<svg viewBox="0 0 460 335" xmlns="http://www.w3.org/2000/svg"><g fill="none" fill-rule="evenodd" transform="translate(0 -6)"><g transform="translate(74.355 44.2)"><path d="m172.2 211.63v-81.866c-1.0237-7.0833 1.5887-10.259 7.8369-9.5269 2.1098.24716 6.3357 0 23.599 0 4.9797 0 7.4815-2.6638 7.5055-7.9914v-40.17" stroke="#424d4c" stroke-dasharray="4.275" stroke-width="2.565" transform="matrix(-1 0 0 1 383.12 0)"/><g transform="translate(123.25 130.22)"><g fill-rule="nonzero" stroke="#424d4c" stroke-width="3.42"><path d="m123.66 163.08h-72.386c0-6.662 5.4018-12.063 12.064-12.063h48.257c6.6628-.000342 12.065 5.4014 12.065 12.063" fill="#fff"/><path d="m108.58 151.02h-42.226l6.032-24.13h30.164z" fill="#fff"/><path d="m174.93 102.76h-174.93v-91.984c0-5.8298 4.7263-10.556 10.556-10.556h153.82c5.8302 0 10.556 4.7259 10.556 10.556v91.984h-.000342z" fill="#f0f7ff"/></g><path d="m41.895 59.85h106.88v3.42h-106.88z" fill="#a1c2e3"/><path d="m41.895 65.835h64.125v3.42h-64.125z" fill="#a1c2e3"/><path d="m94.415 48.308-16.245 13.617v-27.235z" fill="#ffc13e" transform="matrix(0 -1 1 0 37.984 134.6)"/><path d="m73.681 41.04-30.78 25.801v-51.602z" fill="#4ccafc" transform="matrix(0 -1 1 0 17.251 99.331)"/><path d="m132.68 41.04-30.78 25.801v-51.602z" fill="#a1c2e3" transform="matrix(0 -1 1 0 76.25 158.33)"/><path d="m164.38 126.89h-153.82c-5.8302 0-10.556-4.7259-10.556-10.556v-13.571h174.93v13.571c0 5.8298-4.7263 10.556-10.556 10.556" fill="#fff" fill-rule="nonzero" stroke="#424d4c" stroke-width="3.42"/></g><g fill-rule="nonzero" transform="translate(154.78363 7.17248)"><path d="m81.59 67.294c10.52 0 19.128-8.6642 19.128-19.252 0-9.3765-6.7542-17.477-15.605-19.155-.19947-15.186-12.476-27.932-27.612-27.932-9.6422 0-18.696 5.246-23.695 12.807-2.1959-1.4717-4.8341-2.3323-7.6718-2.3323-7.6631 0-13.876 6.2533-13.876 13.966 0 .2671.024283.52722.039894.79258-.017345.31773-.039894.63895-.039894.95319-6.9173 3.3379-12.142 11.272-12.142 19.474 0 11.374 9.245 20.679 20.545 20.679h60.929z" fill="#f0f7ff" stroke="#424d4c" stroke-linecap="round" stroke-width="1.6758"/><g transform="translate(19 3)"><path d="m7.7939 21.277h9.8192v39.765h-9.8192z" fill="#fac434"/><path d="m7.7939 21.277h2.9458v39.765h-2.9458z" fill="#d69f1d"/><path d="m26.45 33.885h9.8192v27.157h-9.8192z" fill="#48cbff"/><path d="m26.45 33.885h2.9458v27.157h-2.9458z" fill="#56c4f0"/><path d="m45.107 27.096h9.8192v33.946h-9.8192z" fill="#ff9d4a"/><path d="m45.107 27.096h2.9458v33.946h-2.9458z" fill="#f48a16"/><g fill="#4a4a4a"><path d="m61.799 60.133h-5.9529v-33.037c0-.50227-.41209-.90931-.92059-.90931h-9.8192c-.5085 0-.92059.40704-.92059.90931v33.037h-6.9962v-15.054c0-.50227-.41209-.90931-.92059-.90931s-.92059.40704-.92059.90931v15.054h-7.9781v-25.338h7.9781v5.8797c0 .50227.41209.90931.92059.90931s.92059-.40704.92059-.90931v-6.789c0-.50227-.41209-.90931-.92059-.90931h-9.8192c-.50838 0-.92059.40704-.92059.90931v26.248h-6.9962v-38.856c0-.50227-.41221-.90931-.92059-.90931h-9.8187c-.50838 0-.92059.40704-.92059.90931v38.856h-5.0323v-59.224c0-.50227-.41209-.90931-.92046-.90931s-.92059.40704-.92059.90931v60.133c0 .50215.41221.90919.92059.90919h60.879c.5085 0 .92059-.40704.92059-.90931s-.41221-.90919-.92071-.90919zm-53.085 0v-37.947h7.9781v37.947zm37.313 0v-32.128h7.9781v32.128z"/><path d="m12.704 15.397c.75423 0 1.4413-.28774 1.9558-.75745l13.858 10.038c-.026828.15597-.04165.31569-.04165.47903 0 1.5709 1.294 2.849 2.8844 2.849 1.3656 0 2.5119-.94258 2.8088-2.2036l13.785-5.4463c.52406.53046 1.2551.86067 2.063.86067 1.5904 0 2.8844-1.2781 2.8844-2.849s-1.294-2.8489-2.8844-2.8489-2.8844 1.2781-2.8844 2.849c0 .11701.0079625.2322.021928.34569l-13.193 5.2125c-.46574-.95625-1.4565-1.618-2.6008-1.618-.75423 0-1.4413.28774-1.9558.75745l-13.858-10.038c.026828-.15597.04165-.31569.04165-.47903 0-1.5709-1.294-2.849-2.8844-2.849s-2.8844 1.278-2.8844 2.8489 1.2937 2.849 2.8843 2.849zm37.313 1.9397c.57526 0 1.0433.46222 1.0433 1.0305s-.46795 1.0305-1.0433 1.0305c-.57526 0-1.0433-.46222-1.0433-1.0305s.46807-1.0305 1.0433-1.0305zm-18.656 6.7891c.57526 0 1.0433.46222 1.0433 1.0305 0 .56833-.46795 1.0305-1.0433 1.0305s-1.0433-.46222-1.0433-1.0305c0-.56833.46807-1.0305 1.0433-1.0305zm-18.656-12.608c.57526 0 1.0433.46222 1.0433 1.0305 0 .56833-.46795 1.0305-1.0433 1.0305s-1.0433-.46222-1.0433-1.0305c0-.56833.46795-1.0305 1.0433-1.0305z"/></g></g><path d="m145.69 25.722s-3.5477-.50137-7.0016 0"/></g><g stroke="#424d4c"><path d="m78.151 234.72v-81.866c-1.0237-7.0833 1.5887-10.259 7.8369-9.5269 2.1098.24716 6.3357 0 23.599 0 4.9797 0 7.4815-2.6638 7.5055-7.9914v-40.17" stroke-dasharray="4.275" stroke-width="2.565"/><path d="m75.754 56.468c7.8445 0 14.264-6.4608 14.264-14.356 0-6.9919-5.0365-13.032-11.637-14.283-.14874-11.324-9.3034-20.829-20.59-20.829-7.19 0-13.942 3.9119-17.669 9.5499-1.6374-1.0974-3.6047-1.7392-5.7207-1.7392-5.7143 0-10.347 4.663-10.347 10.414 0 .19917.018108.39314.029748.59101-.012934.23693-.029748.47645-.029748.71078-5.1581 2.489-9.0538 8.4056-9.0538 14.521 0 8.4811 6.8938 15.42 15.32 15.42h45.433z" fill="#f0f7ff" fill-rule="nonzero" stroke-linecap="round" stroke-width="1.71"/><g fill-rule="nonzero" transform="translate(20)"><g stroke-width="1.5"><path d="m0 13.117v23.751c0 .46542.19977.88579.51792 1.1786.27376.26273.64371.41287 1.0506.41287h34.449c.40694 0 .77689-.15013 1.0506-.41287.32555-.29276.51792-.71314.51792-1.1786v-23.751h-37.586z" fill="#ffc95f"/><path d="m37.586 12.632-17.92-11.706c-.53272-.36032-1.2208-.36032-1.7461 0-8.067 5.3097-14.04 9.2843-17.92 11.924-.0001469.12767-.0001469.21674 0 .26721l18.793 14.833 18.793-14.833v-.48523z" fill="#f6b44b"/><path d="m16.102 25.728h5.377l10.697-8.482v-9.2841l-6.244-6.3207h-20.8355l.1271 15.5018z" fill="#f2f2f2"/></g><path d="m.42483 7.0632 6.93537.1256v-.5379l-6.39757-6.41489h-.5378z" fill="#fac434" stroke-width=".75" transform="translate(25.149 1.1845)"/><path d="m1.5686 38.46h34.449c.40694 0 .63917-.23354.91293-.49627l-15.319-12.235h-5.638l-15.071 12.127.66526.60473z" fill="#ffc233" stroke-width="1.5"/></g></g><g transform="translate(8.68 175.54)"><path d="m64.081 103.39v6.0642h48.823v-6.0642h51.875v-97.028c0-3.3503-2.7312-6.0642-6.1029-6.0642h-140.37c-3.3717 0-6.1029 2.7139-6.1029 6.0642v97.028h51.875z" fill="#fff" fill-rule="nonzero" stroke="#424d4c" stroke-width="2.6932"/><path d="m19.665 96.508h138.205v-88.813h-138.205z" fill="#f0f7ff" fill-rule="nonzero"/><path d="m23.085 15.39h62.415v41.04h-62.415z" fill="#ffc13e"/><circle cx="54.72" cy="35.91" fill="#fff" r="7.695"/><g fill="#a1c2e3"><path d="m88.92 15.39h22.23v15.39h-22.23z"/><path d="m114.57 15.39h33.345v1.71h-33.345z"/><path d="m114.57 18.81h33.345v1.71h-33.345z"/><path d="m114.57 22.23h18.81v1.71h-18.81z"/><path d="m114.57 35.055h33.345v1.71h-33.345z"/><path d="m114.57 38.475h33.345v1.71h-33.345z"/><path d="m114.57 41.895h18.81v1.71h-18.81z"/><path d="m114.57 54.72h33.345v1.71h-33.345z"/><path d="m114.57 58.14h33.345v1.71h-33.345z"/><path d="m114.57 61.56h18.81v1.71h-18.81z"/><path d="m114.57 74.385h33.345v1.71h-33.345z"/><path d="m114.57 77.805h33.345v1.71h-33.345z"/><path d="m114.57 81.225h18.81v1.71h-18.81z"/><path d="m88.92 35.055h22.23v15.39h-22.23z"/><path d="m88.92 54.72h22.23v15.39h-22.23z"/><path d="m88.92 74.385h22.23v15.39h-22.23z"/></g><path d="m18.309 97.324h140.371v-90.9637h-140.371z" fill-rule="nonzero" stroke="#424d4c" stroke-width="2.6932"/><path d="m112.9 103.39v6.0642h-48.824v-6.0642h-64.081v9.0965c0 3.3503 2.7312 6.0642 6.1029 6.0642h164.78c3.3717 0 6.1029-2.7139 6.1029-6.0642v-9.0965h-64.081z" fill="#fff" fill-rule="nonzero" stroke="#424d4c" stroke-width="2.6932"/></g><g fill-rule="nonzero" transform="translate(69.89408 .61545)"><path d="m103.32 83.435c13.322 0 24.223-10.897 24.223-24.214 0-11.793-8.5531-21.981-19.762-24.091-.2526-19.1-15.799-35.131-34.966-35.131-12.21 0-23.676 6.598-30.006 16.107-2.7807-1.8509-6.1216-2.9334-9.715-2.9334-9.704 0-17.572 7.8649-17.572 17.565 0 .33594.030751.66309.050519.99683-.021965.39961-.050519.80361-.050519 1.1988-8.7596 4.1981-15.375 14.177-15.375 24.493 0 14.305 11.707 26.008 26.017 26.008h77.156z" fill="#bad3ed" stroke="#424d4c" stroke-linecap="round" stroke-width="2.1541"/><path d="m108.64 36.597s-6.0248-.85138-11.89 0"/></g><g fill-rule="nonzero" transform="translate(.985 245.64)"><path d="m24.449 49.59h-21.537c-1.6074 0-2.9113-1.3039-2.9113-2.9113v-43.767c0-1.6074 1.3039-2.9113 2.9113-2.9113h21.537c1.6083 0 2.9121 1.3039 2.9121 2.9113v43.767c0 1.6083-1.3039 2.9121-2.9113 2.9121z" fill="#fff" stroke="#424d4c" stroke-width="1.71"/><path d="m.41598 5.13h26.51102v34.2h-26.51102z" fill="#f0f7ff" stroke="#424d4c" stroke-width=".855"/><g fill="#424d4c"><circle cx="13.68" cy="44.46" r="2.565"/><path d="m13.68 3.42h-3.42c-.47282 0-.855-.38218-.855-.855s.38218-.855.855-.855h3.42c.47282 0 .855.38218.855.855s-.38218.855-.855.855z"/><path d="m17.1 3.42h-.855c-.47282 0-.855-.38218-.855-.855s.38218-.855.855-.855h.855c.47282 0 .855.38218.855.855s-.38218.855-.855.855z"/></g><path d="m15.358 14.551h-3.355c-.48992 0-.88749-.39758-.88749-.88749v-3.355c0-.48992.39758-.88749.88749-.88749h3.355c.48992 0 .88749.39758.88749.88749v3.355c0 .48992-.39758.88749-.88749.88749z" fill="#8ab0d9"/><path d="m7.6625 14.551h-3.355c-.48992 0-.88749-.39758-.88749-.88749v-3.355c0-.48992.39758-.88749.88749-.88749h3.355c.48992 0 .88749.39758.88749.88749v3.355c0 .48992-.39758.88749-.88749.88749z" fill="#62aa13"/><path d="m23.053 14.551h-3.355c-.48992 0-.88749-.39758-.88749-.88749v-3.355c0-.48992.39758-.88749.88749-.88749h3.355c.48992 0 .88749.39758.88749.88749v3.355c0 .48992-.39758.88749-.88749.88749z" fill="#f5a623"/><path d="m15.358 22.23h-3.355c-.48992 0-.88749-.39758-.88749-.88749v-3.355c0-.48992.39758-.88749.88749-.88749h3.355c.48992 0 .88749.39758.88749.88749v3.355c0 .48992-.39758.88749-.88749.88749z" fill="#ebba16"/><path d="m7.6625 22.23h-3.355c-.48992 0-.88749-.39758-.88749-.88749v-3.355c0-.48992.39758-.88749.88749-.88749h3.355c.48992 0 .88749.39758.88749.88749v3.355c0 .48992-.39758.88749-.88749.88749z" fill="#8ab0d9"/><path d="m23.053 22.23h-3.355c-.48992 0-.88749-.39758-.88749-.88749v-3.355c0-.48992.39758-.88749.88749-.88749h3.355c.48992 0 .88749.39758.88749.88749v3.355c0 .48992-.39758.88749-.88749.88749z" fill="#d0021b"/><path d="m15.358 29.925h-3.355c-.48992 0-.88749-.39758-.88749-.88749v-3.355c0-.48992.39758-.88749.88749-.88749h3.355c.48992 0 .88749.39758.88749.88749v3.355c0 .48992-.39758.88749-.88749.88749z" fill="#8ab0d9"/><path d="m7.6625 29.925h-3.355c-.48992 0-.88749-.39758-.88749-.88749v-3.355c0-.48992.39758-.88749.88749-.88749h3.355c.48992 0 .88749.39758.88749.88749v3.355c0 .48992-.39758.88749-.88749.88749z" fill="#ea6248"/><path d="m23.053 29.925h-3.355c-.48992 0-.88749-.39758-.88749-.88749v-3.355c0-.48992.39758-.88749.88749-.88749h3.355c.48992 0 .88749.39758.88749.88749v3.355c0 .48992-.39758.88749-.88749.88749z" fill="#8ab0d9"/></g></g><circle cx="383.14" cy="117.99" fill="#ffc13e" r="13.68"/><path d="m16.11 8.7258c-.010809-.30681-.043273-.6081-.09139-.9036l1.936-1.1008-.47788-1.1813-.47788-1.1817-2.1564.55445c-.46577-.67046-1.0425-1.256-1.7032-1.7314l.59078-2.1473-1.1735-.49726-1.1732-.49762-1.1324 1.9157c-.49372-.08904-1.0038-.12873-1.5255-.11033-.30682.010809-.6081.043273-.9036.091354l-1.1004-1.936-2.3633.9558.55445 2.1564c-.67046.46577-1.256 1.0425-1.7314 1.7032l-2.1473-.59082-.4973 1.1736-.49762 1.1732 1.9157 1.1324c-.089077.49332-.12877 1.0034-.11037 1.5251.010809.30721.043273.60846.09139.90399l-1.936 1.1004.9558 2.3633 2.1564-.55445c.46577.67046 1.0425 1.256 1.7032 1.7314l-.59082 2.1469 1.1735.49758 1.1732.49762 1.1324-1.9157c.49332.089076 1.0034.12837 1.5251.10997.30721-.010809.60846-.042911.904-.091028l1.1004 1.936 2.3633-.9558-.55445-2.1564c.67046-.46577 1.256-1.0425 1.7314-1.7032l2.1469.59082.49762-1.1735.49762-1.1732-1.9157-1.1324c.089076-.49375.12877-1.0038.11037-1.5255zm-6.9864 4.4131c-2.2981.08105-4.2268-1.7162-4.3079-4.015-.08105-2.2981 1.7162-4.2268 4.0144-4.3079 2.2987-.08105 4.2274 1.7161 4.3085 4.0143.08105 2.2988-1.7163 4.2275-4.015 4.3086z" fill="#fff" fill-rule="nonzero" transform="translate(374.59 109.44)"/><circle cx="102.7" cy="23.94" fill="#ffc13e" r="13.68"/><path d="m16.11 8.7258c-.010809-.30681-.043273-.6081-.09139-.9036l1.936-1.1008-.47788-1.1813-.47788-1.1817-2.1564.55445c-.46577-.67046-1.0425-1.256-1.7032-1.7314l.59078-2.1473-1.1735-.49726-1.1732-.49762-1.1324 1.9157c-.49372-.08904-1.0038-.12873-1.5255-.11033-.30682.010809-.6081.043273-.9036.091354l-1.1004-1.936-2.3633.9558.55445 2.1564c-.67046.46577-1.256 1.0425-1.7314 1.7032l-2.1473-.59082-.4973 1.1736-.49762 1.1732 1.9157 1.1324c-.089077.49332-.12877 1.0034-.11037 1.5251.010809.30721.043273.60846.09139.90399l-1.936 1.1004.9558 2.3633 2.1564-.55445c.46577.67046 1.0425 1.256 1.7032 1.7314l-.59082 2.1469 1.1735.49758 1.1732.49762 1.1324-1.9157c.49332.089076 1.0034.12837 1.5251.10997.30721-.010809.60846-.042911.904-.091028l1.1004 1.936 2.3633-.9558-.55445-2.1564c.67046-.46577 1.256-1.0425 1.7314-1.7032l2.1469.59082.49762-1.1735.49762-1.1732-1.9157-1.1324c.089076-.49375.12877-1.0038.11037-1.5255zm-6.9864 4.4131c-2.2981.08105-4.2268-1.7162-4.3079-4.015-.08105-2.2981 1.7162-4.2268 4.0144-4.3079 2.2987-.08105 4.2274 1.7161 4.3085 4.0143.08105 2.2988-1.7163 4.2275-4.015 4.3086z" fill="#fff" fill-rule="nonzero" transform="translate(94.15 15.39)"/><circle cx="348.94" cy="23.94" fill="#4ccafc" r="13.68"/><path d="m16.11 8.7258c-.010809-.30681-.043273-.6081-.09139-.9036l1.936-1.1008-.47788-1.1813-.47788-1.1817-2.1564.55445c-.46577-.67046-1.0425-1.256-1.7032-1.7314l.59078-2.1473-1.1735-.49726-1.1732-.49762-1.1324 1.9157c-.49372-.08904-1.0038-.12873-1.5255-.11033-.30682.010809-.6081.043273-.9036.091354l-1.1004-1.936-2.3633.9558.55445 2.1564c-.67046.46577-1.256 1.0425-1.7314 1.7032l-2.1473-.59082-.4973 1.1736-.49762 1.1732 1.9157 1.1324c-.089077.49332-.12877 1.0034-.11037 1.5251.010809.30721.043273.60846.09139.90399l-1.936 1.1004.9558 2.3633 2.1564-.55445c.46577.67046 1.0425 1.256 1.7032 1.7314l-.59082 2.1469 1.1735.49758 1.1732.49762 1.1324-1.9157c.49332.089076 1.0034.12837 1.5251.10997.30721-.010809.60846-.042911.904-.091028l1.1004 1.936 2.3633-.9558-.55445-2.1564c.67046-.46577 1.256-1.0425 1.7314-1.7032l2.1469.59082.49762-1.1735.49762-1.1732-1.9157-1.1324c.089076-.49375.12877-1.0038.11037-1.5255zm-6.9864 4.4131c-2.2981.08105-4.2268-1.7162-4.3079-4.015-.08105-2.2981 1.7162-4.2268 4.0144-4.3079 2.2987-.08105 4.2274 1.7161 4.3085 4.0143.08105 2.2988-1.7163 4.2275-4.015 4.3086z" fill="#fff" fill-rule="nonzero" transform="translate(340.39 15.39)"/><circle cx="69.355" cy="131.67" fill="#4ccafc" r="13.68"/><path d="m16.11 8.7258c-.010809-.30681-.043273-.6081-.09139-.9036l1.936-1.1008-.47788-1.1813-.47788-1.1817-2.1564.55445c-.46577-.67046-1.0425-1.256-1.7032-1.7314l.59078-2.1473-1.1735-.49726-1.1732-.49762-1.1324 1.9157c-.49372-.08904-1.0038-.12873-1.5255-.11033-.30682.010809-.6081.043273-.9036.091354l-1.1004-1.936-2.3633.9558.55445 2.1564c-.67046.46577-1.256 1.0425-1.7314 1.7032l-2.1473-.59082-.4973 1.1736-.49762 1.1732 1.9157 1.1324c-.089077.49332-.12877 1.0034-.11037 1.5251.010809.30721.043273.60846.09139.90399l-1.936 1.1004.9558 2.3633 2.1564-.55445c.46577.67046 1.0425 1.256 1.7032 1.7314l-.59082 2.1469 1.1735.49758 1.1732.49762 1.1324-1.9157c.49332.089076 1.0034.12837 1.5251.10997.30721-.010809.60846-.042911.904-.091028l1.1004 1.936 2.3633-.9558-.55445-2.1564c.67046-.46577 1.256-1.0425 1.7314-1.7032l2.1469.59082.49762-1.1735.49762-1.1732-1.9157-1.1324c.089076-.49375.12877-1.0038.11037-1.5255zm-6.9864 4.4131c-2.2981.08105-4.2268-1.7162-4.3079-4.015-.08105-2.2981 1.7162-4.2268 4.0144-4.3079 2.2987-.08105 4.2274 1.7161 4.3085 4.0143.08105 2.2988-1.7163 4.2275-4.015 4.3086z" fill="#fff" fill-rule="nonzero" transform="translate(60.805 123.12)"/><g fill-rule="nonzero" transform="translate(179.65 98.325)"><path d="m52.232 28.695c-.034452-.97791-.13792-1.9382-.29129-2.88l6.1706-3.5086-1.5232-3.7652-1.5232-3.7663-6.873 1.7672c-1.4846-2.137-3.3226-4.0034-5.4286-5.5186l1.883-6.844-3.7404-1.5849-3.7393-1.5861-3.6093 6.1059c-1.5736-.2838-3.1994-.41031-4.8622-.35167-.97791.034452-1.9382.13792-2.88.29117l-3.5074-6.1706-7.5327 3.0464 1.7672 6.873c-2.137 1.4846-4.0034 3.3226-5.5186 5.4287l-6.844-1.8831-1.585 3.7405-1.5861 3.7394 6.106 3.6093c-.28391 1.5724-.41043 3.1982-.35178 4.8611.034452.97918.13792 1.9393.29129 2.8813l-6.1706 3.5073 3.0464 7.5327 6.873-1.7672c1.4846 2.137 3.3226 4.0034 5.4286 5.5186l-1.8831 6.8428 3.7404 1.586 3.7393 1.5861 3.6093-6.1059c1.5724.28391 3.1982.40916 4.8611.35051.97918-.034452 1.9393-.13677 2.8813-.29014l3.5074 6.1707 7.5327-3.0464-1.7672-6.873c2.137-1.4846 4.0034-3.3226 5.5186-5.4287l6.8428 1.8831 1.5861-3.7404 1.5861-3.7394-6.106-3.6093c.28391-1.5737.41043-3.1994.35178-4.8622zm-22.455 8.7595c-4.3943.15498-8.0822-3.2816-8.2372-7.6772-.15498-4.3943 3.2816-8.0822 7.6759-8.2372 4.3955-.15498 8.0834 3.2815 8.2383 7.6758.15498 4.3956-3.2817 8.0835-7.6771 8.2386z" fill="#fff"/><path d="m28.915 13.01c-9.1052.32113-16.227 7.9637-15.906 17.069.32113 9.1063 7.9637 16.228 17.069 15.907 9.1063-.32113 16.228-7.9637 15.907-17.07-.32113-9.1053-7.9637-16.227-17.07-15.906zm.86223 24.445c-4.3943.15498-8.0822-3.2816-8.2372-7.6772-.15498-4.3943 3.2816-8.0822 7.6759-8.2372 4.3955-.15498 8.0834 3.2815 8.2383 7.6758.15498 4.3956-3.2817 8.0835-7.6771 8.2386z" fill="#4ccafc"/><path d="m29.051 16.916c-6.9469.24508-12.38 6.0752-12.135 13.022.24543 6.9566 6.0756 12.39 13.022 12.145 6.9566-.24543 12.39-6.0756 12.144-13.032-.24508-6.947-6.0752-12.38-13.032-12.135zm.72442 20.539c-4.3942.15498-8.0762-3.2855-8.2312-7.6797s3.2758-8.0759 7.67-8.2308 8.0857 3.2755 8.2406 7.6697c.15475 4.3941-3.2854 8.0859-7.6795 8.2409z" fill="#9ca5aa"/><path d="m29.053 16.914c-6.9492.24508-12.384 6.0772-12.139 13.026.2452 6.9503 6.0773 12.385 13.026 12.14 6.9503-.2452 12.385-6.0773 12.14-13.028-.2452-6.9493-6.0773-12.384-13.028-12.139zm.72442 20.54c-4.3943.15498-8.0822-3.2816-8.2372-7.6772-.15498-4.3943 3.2816-8.0822 7.6759-8.2372 4.3955-.15498 8.0834 3.2815 8.2383 7.6758.15498 4.3956-3.2817 8.0835-7.6771 8.2386z" fill="#ffc13e"/><g fill="#424d4c"><path d="m29.023 16.032c-3.5969.12686-6.929 1.6467-9.3826 4.2798s-3.735 6.064-3.6081 9.6609c.12686 3.5967 1.6467 6.9289 4.2798 9.3826 2.5141 2.3427 5.7552 3.6169 9.1741 3.6168.16166 0 .32413-.0028806.48671-.0086419 3.5967-.12686 6.9289-1.6467 9.3826-4.2799 2.4537-2.6329 3.7351-6.0638 3.6081-9.6608-.12686-3.5969-1.6467-6.929-4.2798-9.3826-2.6331-2.4538-6.0642-3.7345-9.6608-3.6081zm8.4564 4.9003c2.2879 2.132 3.6085 5.0272 3.7189 8.1526.11027 3.1252-1.0033 6.1063-3.1353 8.3942s-5.0272 3.6085-8.1525 3.7188c-3.1262.10866-6.1064-1.0033-8.3943-3.1353-2.2879-2.1319-3.6085-5.0271-3.7188-8.1525-.11027-3.1252 1.0033-6.1063 3.1353-8.3942 2.1319-2.2879 5.0272-3.6085 8.1526-3.7188.14127-.0049547.2823-.0073744.4231-.0073744 2.9703-.0001152 5.7866 1.107 7.971 3.1425z"/><path d="m28.885 12.127c-4.6399.16316-8.9384 2.1236-12.104 5.5202-3.1653 3.3967-4.8182 7.8226-4.6543 12.462.16316 4.6399 2.1236 8.9383 5.5202 12.104 3.2429 3.0221 7.4239 4.6657 11.834 4.6657.2089 0 .4185-.0036872.62832-.011177 9.5785-.33818 17.096-8.4051 16.758-17.983-.21893-6.1872-3.6649-11.722-9.0615-14.657-.4435-.24117-.999-.058304-1.2167.39718l-.0001153.0002305c-.20176.42241-.039407.93009.3716 1.1537 4.8485 2.6373 7.9446 7.6101 8.1413 13.169.30373 8.6039-6.4499 15.851-15.055 16.155-4.1683.14691-8.1445-1.3379-11.196-4.1815-3.0514-2.8435-4.8126-6.7052-4.9592-10.874-.14714-4.1684 1.3379-8.1444 4.1814-11.196s6.7052-4.8126 10.874-4.9592c1.4942-.052427 2.9705.10474 4.3997.46735.45249.11476.91523-.14818 1.0542-.59398.1506-.48314-.13447-.9952-.62509-1.1195-1.5894-.40294-3.2303-.57797-4.8908-.51897z"/><path d="m58.436 36.406-5.5853-3.301c.22642-1.4716.31514-2.9623.26375-4.4409-.027884-.7735-.098287-1.5721-.21005-2.3813l5.6435-3.2085c.38485-.2187.54824-.6887.3822-1.099l-3.0464-7.5314c-.16581-.41031-.60977-.6342-1.0387-.52427l-6.2867 1.6167c-1.3538-1.8465-2.9586-3.4777-4.7831-4.8619l1.7221-6.2596c.11741-.42679-.099324-.87444-.50676-1.0473l-7.4799-3.1725c-.40743-.17295-.87997-.017284-1.1051.36376l-3.301 5.5853c-1.4718-.2263-2.9625-.31514-4.4408-.26375-.77385.027769-1.5721.098287-2.3804.20994l-3.2092-5.6437c-.21881-.38473-.6887-.54824-1.099-.38197l-7.5314 3.0462c-.41043.16592-.63443.61011-.52427 1.0387l1.6167 6.2865c-1.8464 1.3538-3.4777 2.9586-4.862 4.7832l-6.2597-1.7221c-.42633-.11741-.87444.099324-1.0473.50676l-3.1725 7.4797c-.17284.40755-.017284.88009.36388 1.1052l5.5853 3.2998c-.2263 1.4726-.31514 2.9635-.26386 4.4419.027884.77339.098402 1.5717.21005 2.3803l-5.6436 3.2096c-.38485.21881-.54812.68881-.38208 1.099l3.0463 7.5314c.16592.41031.61011.63431 1.0387.52427l6.2869-1.6167c.10209.13919.20614.27769.3118.41515.30488.39706.87951.46055 1.2647.14069.36399-.30212.42656-.83872.13827-1.2139-.2157-.28069-.4238-.56564-.62267-.85186-.21052-.30339-.58753-.44373-.94542-.35178l-6.1246 1.5749-2.4665-6.0983 5.4983-3.1269c.3209-.18252.49431-.54513.43509-.90947-.15359-.9445-.24773-1.8765-.27988-2.7693-.053925-1.5561.059917-3.1289.33853-4.6749.065563-.36342-.10197-.72914-.41988-.91696l-5.4411-3.2148 2.5685-6.0563 6.0986 1.6779c.35616.097941.73571-.03618.95152-.33611 1.4624-2.0345 3.2473-3.7903 5.3047-5.2186.30339-.21063.44373-.58776.35167-.94542l-1.575-6.1245 6.0984-2.4665 3.1269 5.4983c.18252.32079.54513.49466.90958.43497.94369-.15359 1.8757-.24773 2.7692-.27988 1.556-.053695 3.1285.060032 4.6735.33865.36365.065217.72914-.10186.91707-.41965l3.2159-5.4414 6.0563 2.5686-1.6778 6.0986c-.098171.35685.036757.73617.33726.95222 2.0341 1.4623 3.7894 3.2467 5.2174 5.3038.21052.30327.58765.44338.94542.35167l6.1246-1.5749 2.4665 6.0981-5.4982 3.1258c-.3209.1824-.49443.54513-.4352.90947.15359.94496.24773 1.8775.27988 2.7703.05404 1.5566-.059917 3.1293-.33865 4.6743-.065563.3633.10209.72868.41988.9165l5.4413 3.2159-2.5686 6.0563-6.0986-1.6779c-.35616-.098171-.73582.036065-.95152.33611-1.4623 2.0344-3.247 3.7903-5.3046 5.2186-.30339.21063-.44373.58776-.35167.94542l1.575 6.1245-6.0984 2.4665-3.1269-5.4983c-.1824-.32079-.54513-.49477-.90935-.43509-.96086.15613-1.8668.24739-2.77.27884-1.5543.054732-3.1264-.058649-4.6729-.33749-.3633-.065102-.72914.10186-.91707.41965l-3.2161 5.4413-6.0561-2.5686 1.6779-6.0985c.098171-.35708-.037102-.7364-.33784-.95268-.66508-.47818-1.3073-.9975-1.9172-1.5497-.35005-.31698-.88919-.29716-1.2195.040329-.35201.35962-.33116.93862.042057 1.2762.50399.45594 1.0285.89103 1.5688 1.3015l-1.7221 6.2597c-.11741.42679.099324.87444.50676 1.0473l7.48 3.1724c.40743.17307.87997.017168 1.1052-.36388l3.3008-5.5852c1.4733.22665 2.964.31525 4.4397.2626.78376-.027193 1.5681-.095867 2.3816-.20867l3.2094 5.6435c.1612.28334.45859.44661.76797.44661.11062 0 .22296-.020856.33093-.064641l7.5314-3.0461c.41043-.16592.63454-.61011.52439-1.0387l-1.6167-6.2867c1.8462-1.3538 3.4779-2.9589 4.862-4.7831l6.2596 1.7221c.42668.11764.87455-.099208 1.0473-.50676l3.1724-7.4799c.17249-.40697.017053-.87939-.36399-1.1047z"/></g><path d="m23.026 23.467c-1.6107 1.7285-2.4517 3.9808-2.3686 6.3417.16811 4.7688 4.1006 8.5338 8.8355 8.5334.10462 0 .21028-.0018436.31572-.005646 4.8741-.17192 8.6997-4.2771 8.5278-9.1515-.083307-2.3612-1.081-4.5485-2.8094-6.1591-1.7285-1.6108-3.9819-2.4528-6.3418-2.3686-2.3611.083538-4.5485 1.0813-6.1592 2.8096z" fill="#fff"/></g><g stroke="#424d4c"><path d="m82.24 285.97v-81.866c-1.0237-7.0833 1.5887-10.259 7.8369-9.5269 2.1098.24716 6.3357 0 23.599 0 4.9797 0 7.4815-2.6638 7.5055-7.9914v-40.17c0-8.5817 3.0212-12.873 9.0635-12.873h52.017" stroke-dasharray="4.275" stroke-width="2.565"/><path d="m381 24.368h70.11" stroke-linecap="square"/><path d="m362.19 96.188h70.11" stroke-linecap="square"/><path d="m192.9 13.252h70.11" stroke-linecap="square"/><path d="m1.3825 19.238h70.11" stroke-linecap="square"/><path d="m352.79 157.75h32.987" stroke-linecap="square"/><path d="m27.032 160.31h32.987" opacity=".5" stroke-linecap="square"/><path d="m68.928 160.31h32.987" stroke-linecap="square"/><path d="m15.062 52.582h32.987" stroke-linecap="square"/><path d="m301.49 135.52h9.8325" stroke-linecap="square"/><path d="m56.958 52.582h32.987" stroke-linecap="square"/><path d="m315.17 135.52h32.987" stroke-linecap="square"/><path d="m156.14 27.788h9.8325" stroke-linecap="square"/><path d="m169.82 27.788h32.987" stroke-linecap="square"/><path d="m251.04 34.628h9.8325" stroke-linecap="square"/><path d="m264.72 34.628h32.987" stroke-linecap="square"/><path d="m27.032 103.03h9.8325" stroke-linecap="square"/><path d="m40.712 103.03h32.987" stroke-linecap="square"/></g><text fill="#424d4c" font-family="Poppins-Regular, Poppins" font-size="12.825"><tspan x="375.445" y="63.59">+</tspan></text><text fill="#424d4c" font-family="Poppins-Regular, Poppins" font-size="12.825"><tspan x="264.295" y="16.565">+</tspan></text><text fill="#424d4c" font-family="Poppins-Regular, Poppins" font-size="12.825"><tspan x="144.595" y="31.1">+</tspan></text><text fill="#424d4c" font-family="Poppins-Regular, Poppins" font-size="12.825"><tspan x="67.645" y="14">+</tspan></text><text fill="#424d4c" font-family="Poppins-Regular, Poppins" font-size="12.825"><tspan x="101.845" y="159.35">+</tspan></text><text fill="#424d4c" font-family="Poppins-Regular, Poppins" font-size="12.825"><tspan x="291.655" y="136.265">+</tspan></text><text fill="#424d4c" font-family="Poppins-Regular, Poppins" font-size="12.825"><tspan x="52.255" y="84.965">+</tspan></text><text fill="#a3a8a7" font-family="Poppins-Regular, Poppins" font-size="12.825"><tspan x="430.165" y="96.935">+</tspan></text><path d="m395.14 142.81h4.985v4.985h-4.985z" stroke="#424d4c" transform="matrix(.70710678 -.70710678 .70710678 .70710678 13.713444 323.727183)"/><path d="m50.575 47.91h4.985v4.985h-4.985z" stroke="#424d4c" transform="matrix(.70710678 -.70710678 .70710678 .70710678 -20.096632 52.28644)"/><path d="m452.97 18.71h4.985v4.985h-4.985z" stroke="#424d4c" transform="matrix(.70710678 -.70710678 .70710678 .70710678 118.411996 328.275848)"/></g></svg>