<svg width="1009" height="702" viewBox="0 0 1009 702" version="1.1" xmlns="http://www.w3.org/2000/svg" xmlns:xlink="http://www.w3.org/1999/xlink"><title>Artboard</title><desc>Created with Sketch.</desc><g id="Page-1" stroke="none" stroke-width="1" fill="none" fill-rule="evenodd"><g id="Artboard"><g id="mailtrap-large" transform="translate(-470.000000, 263.000000)"><path d="M1506.554,42 C1506.156,42.987 1504.679,45.333 1503.644,46.715 C1500.644,50.715 1446.144,134.215 1444.644,136.215 C1443.144,138.215 1440.644,139.215 1437.144,137.215 C1433.644,135.215 1402.644,113.715 1398.144,110.715 C1396.854,109.855 1394.769,108.371 1394.054,107.499 C1393.596,109.889 1396.098,112.709 1399.394,114.909 C1403.894,117.909 1434.894,139.409 1438.394,141.409 C1441.894,143.409 1444.394,142.409 1445.894,140.409 C1447.394,138.409 1501.894,54.909 1504.894,50.909 C1507.744,47.106 1509.076,43.904 1506.554,41.999 L1506.554,42 Z" id="Shape" fill="#000" fill-rule="nonzero"/><path d="M1454.164,9.5 C1450.164,15 1397.344,95.75 1394.664,99.5 C1392.164,103 1393.164,106 1397.664,109 C1402.164,112 1433.164,133.5 1436.664,135.5 C1440.164,137.5 1442.664,136.5 1444.164,134.5 C1445.664,132.5 1500.164,49 1503.164,45 C1506.164,41 1506.664,39 1503.664,37 C1501.001,35.224 1466.164,11.5 1462.664,9 C1459.164,6.5 1456.138,6.788 1454.164,9.5 Z" id="Shape" fill="#000" fill-rule="nonzero"/><circle id="Oval" fill="#FFF" fill-rule="nonzero" cx="1235.164" cy="83.5" r="6"/><circle id="Oval" fill="#FFF" fill-rule="nonzero" cx="1422.914" cy="113.25" r="4.75"/><polygon id="Shape" fill="#00CACB" fill-rule="nonzero" points="1452.164 25 1407.664 91.5 1447.664 118.5 1492.164 51"/><path d="M1447.823,90.6 C1447.823,90.6 1426.876,76.834 1424.347,85.654 C1421.82,94.474 1447.823,90.847 1447.823,90.847" id="Shape" fill="#B1EFF0" fill-rule="nonzero"/><path d="M1448.4,93.4 C1448.4,93.4 1430.055,98.43 1434.96,103.633 C1439.865,108.836 1448.4,93.401 1448.4,93.4 Z" id="Shape" fill="#B1EFF0" fill-rule="nonzero"/><path d="M1448.317,90.846 L1423.262,85.571" id="Shape" stroke="#00CACB"/><path d="M1448.564,93.318 L1434.718,104.198" id="Shape" stroke="#00CACB"/><path d="M1432.08,87.384 C1432.08,89.662 1429.758,91.504 1426.888,91.504" id="Shape" stroke="#00CACB"/><path d="M1439.086,88.95 C1439.086,91 1437.573,92.66 1435.706,92.66" id="Shape" stroke="#00CACB"/><path d="M1429.443,86.725 C1429.443,83.765 1427.99,80.708 1426.805,80.708" id="Shape" stroke="#00CACB"/><path d="M1435.625,87.96 C1435.625,85.136 1434.998,82.85 1434.225,82.85" id="Shape" stroke="#00CACB"/><path d="M1440.074,100.324 C1440.074,102.921 1439.744,105.022 1439.334,105.022" id="Shape" stroke="#00CACB"/><path d="M1443.62,97.192 C1443.62,100.016 1443.582,102.302 1443.536,102.302" id="Shape" stroke="#00CACB"/><path d="M1438.047,101.203 C1438.047,100.565 1435.465,100.16 1432.821,100.16" id="Shape" stroke="#00CACB"/><path d="M1441.766,98.328 C1441.766,97.628 1439.816,97.062 1437.406,97.062" id="Shape" stroke="#00CACB"/><path d="M1445.373,78.598 C1445.373,78.598 1454.693,96.218 1455.773,99.514 C1456.853,102.81 1456.343,107.698 1456.343,107.698 C1456.343,107.698 1469.071,104.402 1475.779,101.901 C1482.487,99.4 1492.886,94.741 1494.422,94.171 C1495.956,93.601 1498.514,93.036 1498.514,93.036 C1498.514,93.036 1497.434,89.399 1496.184,87.296 C1494.934,85.193 1488.284,71.211 1487.772,67.744 C1487.26,64.277 1485.33,59.332 1485.33,59.332 L1445.373,78.6 L1445.373,78.598 Z" id="Shape" stroke="#000" fill="#FFF" fill-rule="nonzero"/><path d="M1444.805,79.393 C1443.725,79.166 1442.929,78.086 1444.805,77.403 C1446.681,76.72 1482.771,58.763 1484.931,57.909 C1487.091,57.055 1487.491,57.736 1486.696,59.099 C1485.9,60.464 1470.724,84.733 1470.724,84.733 L1444.806,79.393 L1444.805,79.393 Z" id="Shape" stroke="#000" fill="#FFF" fill-rule="nonzero"/><path d="M1453.57,79.564 C1453.927,81.772 1456.718,87.43 1458.135,88.621 C1459.555,89.811 1461.381,88.886 1460.065,87.165 C1458.735,85.422 1457.275,82.57 1456.321,80.028 C1455.158,76.928 1453.118,76.781 1453.571,79.565 L1453.57,79.564 Z" id="Shape" fill="#000" fill-rule="nonzero"/><path d="M1476.012,70.334 C1476.195,72.958 1478.152,78.16 1480.102,79.692 C1482.05,81.224 1483.474,80.262 1482.045,78.347 C1480.615,76.432 1479.018,73.144 1478.575,70.615 C1477.989,67.235 1475.81,67.435 1476.012,70.335 L1476.012,70.334 Z" id="Shape" fill="#000" fill-rule="nonzero"/><path d="M1463.426,91.943 C1463.539,94 1465.156,96.818 1468.116,97.817 C1471.456,98.944 1479.388,97.509 1481.063,92.207 C1482.033,89.137 1481.583,87.362 1480.986,85.609 C1480.34,83.706 1478.252,83.076 1476.968,84.669 C1475.725,86.209 1474.778,87.943 1472.072,88.894 C1469.955,89.638 1467.462,89.746 1465.382,89.746 C1463.305,89.746 1463.425,91.941 1463.426,91.942 L1463.426,91.943 Z" id="Shape" fill="#000" fill-rule="nonzero"/><path d="M1470.72,97.222 C1470.72,97.222 1472.845,97.306 1475.74,95.972 C1478.687,94.614 1479.85,92.166 1479.85,92.166 C1479.85,92.166 1477.252,88.936 1473.078,91.268 C1469.798,93.098 1470.72,97.222 1470.72,97.222 Z" id="Shape" fill="#FFF" fill-rule="nonzero"/><g id="Group" transform="translate(66.000000, 33.000000)" stroke="#313A45" stroke-width="2"><path d="M642.08,0.367 C643.056,0.367 651.987,0.124 656.58,0.367 C661.595,0.632 672.48,1.761 672.48,1.761" id="Shape"/><path d="M648.914,14.76 C648.914,14.76 658.512,14.362 664.394,14.76 C674.294,15.426 681.324,17.38 681.324,17.38" id="Shape"/><path d="M485.894,127.402 C485.894,127.402 479.374,141.996 478.454,161.376 C477.199,187.773 485.894,206.188 485.894,206.188" id="Shape"/><path d="M460.236,118.427 C460.236,118.427 456.611,127.402 456.61,147.857 C456.61,162.895 459.26,178.809 459.26,178.809" id="Shape"/></g><path d="M535.117,417.772 L563.843,517.348 C563.843,517.348 565.953,520.015 568.48,519.188 C570.722,518.451 571.36,515.648 571.36,515.648 L541.797,416.16 L535.117,417.772 Z" id="Shape" fill="#313A45" fill-rule="nonzero"/><path d="M816.242,448.755 C816.242,448.755 836.377,429.275 886.549,428.943 C929.096,428.663 967.105,453.575 973.436,483.489 C980.306,515.939 960.71,532.534 950.906,537.591 C940.302,543.061 932.12,543.651 926.7,544.731 C919.326,546.196 918.5,552.855 918.5,552.855 C918.5,552.855 922.076,554.751 925.352,557.202 C929.62,560.396 933.539,567.012 933.539,567.012 C933.539,567.012 925.679,567.652 916.092,571.502 C908.025,574.742 898.695,588.087 892.304,592.559 C885.91,597.034 874.114,600.944 867.174,592.299 C860.39,583.854 863.694,571.199 863.694,571.199 C863.694,571.199 859.08,569.869 857.149,560.283 C855.251,550.863 855.696,547.188 859.002,540.639 C863.305,532.122 871.446,524.713 898.736,518.369 C928.353,511.489 941.441,501.199 939.954,490.856 C937.668,474.979 921.382,464.596 890.064,464.596 C823.156,464.596 768.468,508.239 768.468,508.239 L816.238,448.754 L816.24,448.754 L816.242,448.755 Z" id="Shape" fill="#000" fill-rule="nonzero"/><path d="M823.17,336.833 L817.83,322.763 C817.83,322.763 829.91,324.819 836.623,324.249 C843.336,323.676 856.25,323.979 870.79,318.999 C885.33,314.019 894.482,306.795 898.447,305.069 C902.413,303.339 904.447,304.153 905.464,305.069 C906.48,305.983 906.894,306.779 906.939,309.839 C906.984,312.899 898.753,338.321 898.753,338.321 L823.171,336.831 L823.169,336.831 L823.17,336.833 Z" id="Shape" fill="#000" fill-rule="nonzero"/><path d="M824.416,337.414 L819.321,323.874 C819.321,323.874 828.729,325.354 836.351,325.13 C843.079,324.93 855.971,324.852 870.516,319.88 C886.616,314.38 894.366,307.834 898.174,305.95 C902.05,304.03 904.172,305.035 905.191,305.95 C906.209,306.865 906.729,308.698 904.991,310.638 C902.221,313.738 898.481,339.203 898.481,339.203 L824.419,337.413 L824.417,337.413 L824.416,337.414 Z" id="Shape" fill="#FFF" fill-rule="nonzero"/><path d="M814.7,335.227 C816.177,333.847 817.664,333.731 824.354,334.517 C831.044,335.303 843.426,335.913 852.977,334.341 C862.525,332.773 880.605,329.124 892.554,321.059 C903.794,313.471 906.866,308.219 906.866,308.219 C906.866,308.219 907.286,314.759 906.559,319.551 C905.091,329.205 904.196,340.129 904.196,340.129 C904.196,340.129 855.166,354.109 849.946,355.392 C844.73,356.672 822.382,351.452 820.509,349.485 C818.639,347.515 814.366,341.715 813.801,339.682 C812.993,336.762 814.699,335.229 814.698,335.229 L814.7,335.227 Z" id="Shape" fill="#000" fill-rule="nonzero"/><path d="M815.022002,336.55 C816.17001,334.844 818.465025,335.044 825.155069,335.83 C831.843114,336.618 844.228196,336.756 853.775259,335.185 C863.327322,333.613 881.408442,329.968 893.355521,321.9 C904.598595,314.314 906.09023,310.637 906.09023,310.637 C906.09023,310.637 906.143605,316.213 905.247599,322.015 C903.587588,332.789 902.613582,340.975 902.613582,340.975 C902.613582,340.975 855.963273,354.955 850.745239,356.235 C845.528204,357.512 824.481065,351.532 822.608053,349.563 C820.73804,347.593 815.588006,342.553 815.018002,340.523 C814.207997,337.603 815.018002,336.55 815.018002,336.55 L815.022002,336.55 Z" id="Shape" fill="#DBDBDB" fill-rule="nonzero"/><path d="M813.803,339.678 C813.803,339.678 816.216,345.733 828.643,347.311 C845.583,349.466 864.439,337.314 876.166,332.471 C887.39,327.831 896.186,329.793 902.466,332.429 C908.256,334.861 913.393,340.249 913.393,340.249 C913.393,340.249 908.951,370.599 909.406,402.622 C909.966,441.872 915.979,471.51 917.062,505.392 C918.848,561.347 908.292,630.32 908.292,630.32 C908.292,630.32 900.895,634.508 892.832,633.96 C869.442,632.373 862.377,618.49 862.377,618.49 C862.377,618.49 878.377,587.448 867.989,524.03 C857.489,459.96 849.764,436.242 841.919,412.14 C833.452,386.17 813.802,339.682 813.802,339.682 L813.802,339.68 L813.803,339.678 Z" id="Shape" fill="#000" fill-rule="nonzero"/><path d="M816.785,344.59 C816.785,344.59 820.871,348 832.805,348.432 C845.715,348.902 864.605,338.884 875.785,333.869 C888.015,328.379 896.288,331.039 902.445,333.621 C908.128,336.011 912.265,340.785 912.265,340.785 C912.265,340.785 907.643,369.407 908.088,400.812 C908.634,439.302 914.898,471.588 915.958,504.822 C917.708,559.695 907.462,629.399 907.462,629.399 C907.462,629.399 901.192,633.139 893.286,632.605 C870.346,631.049 864.023,618.495 864.023,618.495 C864.023,618.495 878.726,582.16 868.538,519.973 C858.242,457.135 850.945,437.03 843.248,413.393 C834.952,387.919 816.782,344.593 816.782,344.593 L816.785,344.589 L816.785,344.59 Z" id="Shape" fill="#FFF" fill-rule="nonzero"/><path d="M837.17,350.8 C849.462,351.243 863.275,343.98 873.92,339.202 C885.567,333.972 894.867,335.859 900.732,338.322 C906.144,340.592 909.436,343.888 909.436,343.888 C909.436,343.888 905.68,374.743 906.106,404.653 C906.626,441.315 912.592,472.067 913.602,503.717 C915.272,555.977 905.512,627.111 905.512,627.111 C905.512,627.111 899.242,629.594 891.714,629.084 C869.864,627.604 880.754,617.482 880.754,617.482 C880.754,617.482 890.608,561.742 880.164,488.726 C864.63,380.104 825.8,350.39 837.17,350.8 Z" id="Shape" fill="#E5E5E5" fill-rule="nonzero"/><path d="M835.89,377.19 L829.12,359.665 C829.12,359.665 839.2,360.218 844.998,359.391 C850.792,358.566 860.178,355.118 863.144,353.321 C866.109,351.527 873.494,347.388 873.494,347.388 C873.494,347.388 875.288,352.286 876.117,358.842 C876.943,365.399 876.943,373.47 876.943,373.47 L835.89,377.192 L835.89,377.19 Z" id="Shape" fill="#00CACA" fill-rule="nonzero"/><g id="Group" transform="translate(880.000000, 341.000000)" fill="#B0B0B0" fill-rule="nonzero"><path d="M10.117,2.77 C17.727,2.74 24.394,7.104 24.394,7.104 L24.786,5.051 C24.786,5.051 15.926,0.891 9.723,0.906 C5.193,0.916 0.163,3.668 0.163,3.668 L0.371,5.434 C0.371,5.434 4.311,2.801 10.118,2.774 L10.118,2.771 L10.117,2.77 Z" id="Shape"/><path d="M24.395,14.19 L24.787,12.136 C24.787,12.136 15.927,7.976 9.724,7.988 C5.194,7.998 0.164,10.751 0.164,10.751 L0.372,12.517 C0.372,12.517 4.31,9.883 10.119,9.859 C17.729,9.826 24.393,14.191 24.393,14.191 L24.395,14.19 Z" id="Shape"/><path d="M0.757,17.906 L0.963,19.672 C0.963,19.672 4.903,17.039 10.71,17.016 C18.32,16.979 24.986,21.346 24.986,21.346 L25.38,19.291 C25.38,19.291 16.52,15.134 10.316,15.146 C5.781,15.153 0.756,17.908 0.756,17.906 L0.757,17.906 Z" id="Shape"/><path d="M0.757,25.095 L0.963,26.861 C0.963,26.861 4.903,24.231 10.71,24.204 C18.32,24.17 24.986,28.534 24.986,28.534 L25.38,26.482 C25.38,26.482 16.52,22.322 10.316,22.332 C5.781,22.342 0.756,25.097 0.756,25.097 L0.757,25.095 Z" id="Shape"/></g><path d="M855.707,421.224 C855.707,421.224 862.175,418.872 868.245,419.464 C881.172,420.719 900.925,427.872 900.925,427.872 L901.008,430.234 C901.008,430.234 878.711,422.426 868.325,421.896 C862.88,421.621 855.777,423.363 855.777,423.363 L855.707,421.223 L855.707,421.224 Z" id="Shape" fill="#B0B0B0" fill-rule="nonzero"/><path d="M857.573,429.417 C857.573,429.417 864.043,427.069 870.111,427.657 C883.041,428.912 902.797,436.067 902.797,436.067 L902.877,438.427 C902.877,438.427 880.582,430.622 870.197,430.092 C864.752,429.812 857.649,431.554 857.649,431.554 L857.574,429.417 L857.573,429.417 Z" id="Shape" fill="#B0B0B0" fill-rule="nonzero"/><path d="M859.115,437.655 C859.115,437.655 865.585,435.305 871.652,435.895 C884.58,437.149 904.338,444.305 904.338,444.305 L904.418,446.665 C904.418,446.665 882.118,438.86 871.734,438.327 C866.289,438.05 859.184,439.792 859.184,439.792 L859.114,437.655 L859.115,437.655 Z" id="Shape" fill="#B0B0B0" fill-rule="nonzero"/><path d="M671.962,442.47 C671.962,442.47 658.212,423.914 624.192,426.82 C579.568,430.63 552.812,473.438 523.175,483.49 C515.601,486.058 508.63,485.035 508.63,485.035 C508.63,485.035 514.513,478.185 512.322,470.815 C510.28,463.932 502.472,460.705 502.472,460.705 C502.472,460.705 500.534,451.775 492.166,447.905 C480.009,442.281 456.604,443.085 447.236,464.6 C436.86,488.424 453.683,512.138 476.38,517.246 C500.724,522.728 529.924,520.321 559.775,498.488 C582.612,481.784 613.138,459.842 642.405,461.932 C668.585,463.806 687.68,487.849 687.68,487.849 L671.962,442.469 L671.962,442.47 Z" id="Shape" fill="#000" fill-rule="nonzero"/><path d="M824.253,418.397 C823.046,391.247 813.449,369.757 785.255,370.623 C778.293,370.836 759.235,381.113 759.235,381.113 C748.422,389.605 741.945,400.153 741.945,400.153 C741.945,400.153 708.877,540.547 710.015,548.305 C710.402,550.93 710.831,547.565 710.831,547.565 C710.831,547.565 750.256,525.965 779.355,501.491 C809.092,476.484 825.825,453.831 824.255,418.398 L824.253,418.397 Z" id="Shape" fill="#FFF" fill-rule="nonzero"/><path d="M823.07,417.217 C821.863,390.067 812.268,368.574 784.07,369.442 C777.11,369.658 770.753,371.926 765.165,375.12 L764.938,362.35 C763.06,362.997 761.556,363.62 759.555,366.244 C757.748,368.611 757.028,372.541 757.028,372.541 L758.05,379.937 C747.237,388.429 740.762,398.977 740.762,398.977 C740.762,398.977 733.975,394.167 725.118,390.447 L718.368,377.96 C718.368,377.96 716.515,377.12 712.953,376.57 C709.197,375.986 705.1,376.86 705.1,376.86 C705.1,376.86 708.565,378.37 711.676,384.084 C712.188,385.022 712.646,385.914 713.066,386.754 C710.383,386.28 707.696,386.072 705.1,386.264 C692.194,387.214 674.722,396.094 669.87,416.238 C661.993,448.922 675.817,475.858 690.94,498.935 C704.92,520.272 707.693,539.372 708.834,547.131 C709.219,549.756 710.53,550.158 710.53,550.158 C710.53,550.158 749.073,524.784 778.173,500.311 C807.906,475.301 824.645,452.651 823.07,417.218 L823.07,417.217 Z" id="Shape" fill="#000" fill-rule="nonzero"/><path d="M708.638,552.854 C708.638,552.854 709.148,552.436 710.075,551.667 L711.759,549.565 C710.123,550.919 709.209,551.67 709.209,551.67 C709.209,551.67 712.282,526.157 696.556,494.3 C686.089,473.098 676.476,447.432 682.036,418.27 C685.353,400.87 703.018,390.65 720.481,392.663 C734.299,394.253 748.797,411.233 748.797,411.233 C748.797,411.233 764.572,378.216 786.749,377.543 C801.219,377.108 812.829,383.68 818.344,393.957 L819.326,393.553 C813.783,382.823 802.149,375.91 787.23,376.363 C764.756,377.048 748.797,407.568 748.797,407.568 C748.797,407.568 734.067,393.298 720.064,391.688 C702.364,389.65 685.344,400.2 681.099,417.64 C674.204,445.947 686.653,476.473 696.997,498.095 C711.337,528.071 708.637,552.855 708.637,552.855 L708.638,552.854 Z" id="Shape" fill="#FFF" fill-rule="nonzero"/><path d="M695.53,390.9 C695.53,390.9 670.524,355.133 623.723,345.93 C572.083,335.777 532.15,345.75 515.285,354.27 C505.405,359.265 502.955,365.335 502.955,369.415 C502.955,377.661 510.305,382.477 511.575,391.542 C512.571,398.656 512.235,408.192 518.005,413.356 C526.425,420.882 540.669,418.068 547.365,413.356 C553.732,408.871 556.885,401.206 559.638,390.786 C560.892,386.036 562.078,383.432 562.078,383.432 C562.078,383.432 576.094,379.292 601.958,383.1 C621.672,386.002 650.556,397.97 670.322,419.99 C676.538,426.91 675.467,416.866 680.192,408.217 C684.987,399.437 695.527,391.997 695.527,391.997" id="Shape" fill="#000" fill-rule="nonzero"/><path d="M576.096,361.343 C575.226,351.85 570.24,346.453 564.768,343.889 C555.828,344.413 547.408,345.631 540.228,347.349 C545.248,348.556 551.37,358.769 551.733,367.671 C551.853,370.583 556.023,376.999 560.213,383.433 C561.585,383.048 563.535,382.247 565.978,381.765 C567.616,381.445 569.473,381.44 571.525,381.161 C573.705,378.619 577.139,372.718 576.095,361.341 L576.096,361.343 Z" id="Shape" fill="#FFF" fill-rule="nonzero"/><path d="M514.87,356.64 C514.87,356.64 519.632,354.207 524.21,352.287 C528.785,350.367 538.862,347.789 538.862,347.789 C538.862,347.789 540.225,348.189 541.779,349.439 C543.409,350.745 545.262,352.969 546.892,355.723 C550.976,362.633 550.572,369.519 550.572,369.519 L531.148,382.852 L515.652,371.52 L514.869,356.64 L514.87,356.64 Z" id="Shape" fill="#028A8A" fill-rule="nonzero"/><ellipse id="Oval" fill="#000" fill-rule="nonzero" transform="translate(556.899686, 350.822870) rotate(81.182000) translate(-556.899686, -350.822870)" cx="556.9" cy="350.823" rx="1.857" ry="4.113"/><path d="M516.678,355.486 C516.678,355.486 518.55,366.046 525.66,372.124 C529.67,375.549 535.344,374.471 540.995,372.864 C547.289,371.074 547.885,368.75 552.907,368.121 C563.444,366.801 572.893,374.686 572.893,374.686 C572.893,374.686 568.153,375.756 564.033,380.796 C558.003,388.163 557.219,398.862 553.4,404.444 C550.17,409.164 546.69,414.168 534.202,415.149 C523.975,415.954 520.598,411.482 517.284,406.109 C513.972,400.732 515.687,394.555 513.924,388.372 C512.154,382.188 507.374,375.229 506.344,371.509 C505.311,367.785 505.804,366.659 508.017,363.465 C512.407,357.125 516.679,355.489 516.679,355.489 L516.677,355.489 L516.678,355.486 Z" id="Shape" fill="#000" fill-rule="nonzero"/><path d="M514.87,356.64 C514.87,356.64 518.31,368.59 525.64,373.787 C530.05,376.919 534.47,376.093 539.895,374.551 C545.938,372.836 548.855,370.025 552.337,369.417 C562.383,367.674 570.722,374.623 570.722,374.623 C570.722,374.623 566.195,375.753 562.627,380.983 C557.477,388.537 556.427,399.513 552.761,404.876 C549.661,409.408 545.669,415.696 533.675,416.64 C523.855,417.41 519.325,413.57 516.145,408.41 C512.962,403.252 514.297,395.28 512.601,389.34 C510.904,383.4 505.683,376.82 504.693,373.248 C503.703,369.672 503.699,367.228 505.825,364.158 C510.043,358.071 514.873,356.643 514.873,356.643 L514.873,356.641 L514.87,356.64 Z" id="Shape" fill="#00CACA" fill-rule="nonzero"/><path d="M511.576,388.96 C511.576,388.96 517.364,395.738 523.781,397.227 C530.181,398.707 534.517,396.357 537.371,393.789 C540.673,390.822 542.371,388.104 546.431,387.579 C548.183,387.354 548.539,387.712 548.115,388.106 C547.991,388.22 547.082,388.2 546.237,388.469 C542.037,389.803 540.551,392.247 538.127,394.535 C535.319,397.182 529.239,400.475 522.899,398.407 C516.766,396.409 511.577,391.319 511.577,391.319 L511.577,388.956 L511.577,388.959 L511.576,388.96 Z" id="Shape" fill="#000" fill-rule="nonzero"/><path d="M753.93,358.932 C754.932,361.786 746.463,367.308 735.813,371.047 C725.161,374.784 715.243,375.741 714.239,372.887 C713.235,370.037 721.196,364.453 732.181,360.717 C742.869,357.079 752.927,356.077 753.927,358.932 L753.929,358.932 L753.93,358.932 Z" id="Shape" fill="#FFF" fill-rule="nonzero"/><path d="M813.6,405.95 C813.6,405.95 812.223,383.448 837.52,373.072 C851.83,367.202 871.752,363.492 906.795,378.919 C952.352,398.972 983.969,391.991 989.932,371.783 C996.042,351.069 993.477,338.103 986.515,329.666 C978.457,319.896 973.985,318.56 973.985,318.56 L973.985,327.624 C973.985,327.624 960.005,322.517 951.212,322.832 C943.162,323.122 936.809,327.172 929.005,327.624 C921.892,328.038 915.909,322.264 916.193,314.008 C916.476,305.751 917.593,301.035 921.317,296.64 C924.1,293.352 922.741,282.405 925.304,278.703 C927.866,275.001 929.904,271.37 935.656,270.766 C948.084,269.466 973.858,275.804 988.1,286.26 C1001.09,295.797 1026.83,313.397 1030.365,349.026 C1033.351,379.129 1023.453,413.352 986.85,425.391 C944.568,439.297 900.534,415.647 880.32,411.237 C860.107,406.824 837.62,408.387 827.37,422.832 C817.12,437.282 803.26,453.576 803.26,453.576 L813.6,405.952 L813.6,405.95 Z" id="Shape" fill="#000" fill-rule="nonzero"/><path d="M958.634,274.774 C958.634,274.774 965.13,276.42 974.647,280.924 C983.094,284.921 989.209,289.498 989.209,289.498 C989.209,289.498 989.729,292.278 989.987,296.081 C990.594,305.004 985.655,315.169 980.632,317.661 C977.444,319.241 971.537,317.217 971.537,317.217 L950.837,294.785 L958.633,275.123" id="Shape" fill="#028A8A" fill-rule="nonzero"/><path d="M991.034,290.795 C991.034,290.795 992.288,299.019 991.034,303.559 C989.779,308.095 988.324,313.621 983.471,317.664 C980.921,319.79 978.651,319.792 978.651,320.004 C978.651,320.214 982.861,323.589 985.861,326.982 C990.306,332.022 992.251,336.792 992.251,336.792 C992.251,336.792 993.691,337.112 996.807,335.886 C1003.474,333.264 1010.64,324.289 1012.223,316.24 C1013.155,311.49 1012.437,309.84 1011.963,308.944 C1011.487,308.05 1009.927,305.917 1003.401,299.94 C997.138,294.21 991.036,290.794 991.035,290.795 L991.034,290.795 Z" id="Shape" fill="#FFF" fill-rule="nonzero"/><ellipse id="Oval" fill="#000" fill-rule="nonzero" transform="translate(990.560064, 324.303097) rotate(54.857000) translate(-990.560064, -324.303097)" cx="990.56" cy="324.303" rx="3.577" ry="2.207"/><path d="M951.18,259.385 C949.316,260.64 948.305,262.272 945.25,268.105 C937.41,283.065 929.16,320.37 928.562,326.645 C927.927,333.28 928.267,337.96 930.187,339.143 C931.212,339.773 934.089,340.693 935.94,340.955 C938.335,341.291 937.858,337.763 938.752,335.651 C940.339,331.898 943.537,309.267 946.107,299.277 C948.677,289.289 952.78,276.821 955.292,271.653 C957.802,266.485 962.26,261.675 960.68,259.987 C958.097,257.237 952.51,258.497 951.18,259.387 L951.18,259.385 Z" id="Shape" fill="#000" fill-rule="nonzero"/><path d="M1017.21,142.276 C1017.21,142.276 1023.094,140.864 1035.096,140.864 C1047.096,140.864 1054.859,141.804 1056.742,142.276 C1058.626,142.746 1061.212,142.511 1063.332,139.452 C1065.45,136.394 1072.744,124.085 1082.392,110.592 C1092.042,97.096 1110.122,75.904 1113.179,72.845 C1116.239,69.785 1119.574,66.741 1115.339,63.445 C1111.104,60.151 1062.391,30.267 1059.566,28.385 C1056.742,26.501 1053.682,25.559 1050.153,29.795 C1046.623,34.032 1033.83,51.207 1026.151,63.445 C1017.444,77.329 1008.738,95.215 1006.854,98.037 C1004.971,100.861 1003.794,104.39 1005.207,108.391 C1006.617,112.394 1017.207,142.278 1017.209,142.277 L1017.21,142.276 Z" id="Shape" fill="#000" fill-rule="nonzero"/><path d="M954.46,260.237 C954.46,260.237 964.19,231.553 978.65,202.439 C995.66,168.189 1017.54,138.309 1017.54,138.309 L1020.836,140.131 C1020.836,140.131 995.658,176.369 983.651,203.431 C974.118,224.924 959.923,260.847 959.923,260.847" id="Shape" fill="#000" fill-rule="nonzero"/><ellipse id="Oval" fill="#FFF" fill-rule="nonzero" cx="1056.489" cy="37.969" rx="4.128" ry="2.497"/><ellipse id="Oval" fill="#FFF" fill-rule="nonzero" cx="1065.689" cy="43.664" rx="4.131" ry="2.498"/><ellipse id="Oval" fill="#FFF" fill-rule="nonzero" cx="1075.648" cy="49.321" rx="4.132" ry="2.498"/><ellipse id="Oval" fill="#FFF" fill-rule="nonzero" cx="1084.967" cy="55.121" rx="4.131" ry="2.497"/><ellipse id="Oval" fill="#FFF" fill-rule="nonzero" cx="1094.631" cy="61.068" rx="4.131" ry="2.498"/><ellipse id="Oval" fill="#FFF" fill-rule="nonzero" cx="1104.543" cy="66.676" rx="4.133" ry="2.497"/><ellipse id="Oval" fill="#FFF" fill-rule="nonzero" cx="1049.552" cy="46.823" rx="4.131" ry="2.498"/><ellipse id="Oval" fill="#FFF" fill-rule="nonzero" cx="1058.9" cy="52.249" rx="4.13" ry="2.497"/><ellipse id="Oval" fill="#FFF" fill-rule="nonzero" cx="1068.207" cy="58.223" rx="4.129" ry="2.498"/><ellipse id="Oval" fill="#FFF" fill-rule="nonzero" cx="1077.516" cy="63.848" rx="4.131" ry="2.498"/><ellipse id="Oval" fill="#FFF" fill-rule="nonzero" cx="1087.202" cy="69.667" rx="4.132" ry="2.497"/><ellipse id="Oval" fill="#FFF" fill-rule="nonzero" cx="1096.694" cy="75.438" rx="4.13" ry="2.498"/><ellipse id="Oval" fill="#FFF" fill-rule="nonzero" cx="1043.119" cy="55.514" rx="4.131" ry="2.498"/><ellipse id="Oval" fill="#FFF" fill-rule="nonzero" cx="1052.161" cy="61.068" rx="4.132" ry="2.498"/><ellipse id="Oval" fill="#FFF" fill-rule="nonzero" cx="1061.321" cy="66.345" rx="4.131" ry="2.498"/><ellipse id="Oval" fill="#FFF" fill-rule="nonzero" cx="1070.576" cy="72.341" rx="4.131" ry="2.498"/><ellipse id="Oval" fill="#FFF" fill-rule="nonzero" cx="1079.78" cy="78.091" rx="4.131" ry="2.497"/><ellipse id="Oval" fill="#FFF" fill-rule="nonzero" cx="1089.098" cy="83.948" rx="4.131" ry="2.498"/><ellipse id="Oval" fill="#FFF" fill-rule="nonzero" cx="1037.918" cy="63.848" rx="3.916" ry="2.368"/><ellipse id="Oval" fill="#FFF" fill-rule="nonzero" cx="1046.843" cy="69.537" rx="3.916" ry="2.367"/><ellipse id="Oval" fill="#FFF" fill-rule="nonzero" cx="1055.729" cy="74.837" rx="3.916" ry="2.367"/><ellipse id="Oval" fill="#FFF" fill-rule="nonzero" cx="1064.78" cy="80.588" rx="3.915" ry="2.368"/><ellipse id="Oval" fill="#FFF" fill-rule="nonzero" cx="1073.959" cy="86.315" rx="3.916" ry="2.367"/><ellipse id="Oval" fill="#FFF" fill-rule="nonzero" cx="1083.072" cy="92.056" rx="3.916" ry="2.368"/><ellipse id="Oval" fill="#FFF" fill-rule="nonzero" cx="1032.931" cy="71.904" rx="3.701" ry="2.238"/><ellipse id="Oval" fill="#FFF" fill-rule="nonzero" cx="1041.834" cy="77.467" rx="3.697" ry="2.238"/><ellipse id="Oval" fill="#FFF" fill-rule="nonzero" cx="1050.365" cy="82.955" rx="3.698" ry="2.238"/><ellipse id="Oval" fill="#FFF" fill-rule="nonzero" cx="1059.189" cy="88.553" rx="3.702" ry="2.238"/><ellipse id="Oval" fill="#FFF" fill-rule="nonzero" cx="1068.207" cy="93.883" rx="3.698" ry="2.238"/><ellipse id="Oval" fill="#FFF" fill-rule="nonzero" cx="1077.086" cy="99.576" rx="3.699" ry="2.238"/><ellipse id="Oval" fill="#FFF" fill-rule="nonzero" cx="1027.785" cy="79.705" rx="3.702" ry="2.238"/><ellipse id="Oval" fill="#FFF" fill-rule="nonzero" cx="1036.632" cy="85.192" rx="3.698" ry="2.238"/><ellipse id="Oval" fill="#FFF" fill-rule="nonzero" cx="1045.302" cy="90.598" rx="3.701" ry="2.238"/><ellipse id="Oval" fill="#FFF" fill-rule="nonzero" cx="1053.875" cy="96.12" rx="3.703" ry="2.237"/><ellipse id="Oval" fill="#FFF" fill-rule="nonzero" cx="1062.44" cy="101.595" rx="3.701" ry="2.238"/><ellipse id="Oval" fill="#FFF" fill-rule="nonzero" cx="1071.418" cy="107.088" rx="3.698" ry="2.238"/><path d="M954.73,260.046 C952.863,261.306 951.853,262.952 948.798,268.823 C940.961,283.881 932.708,321.425 932.11,327.743 C931.477,334.419 931.814,339.133 933.734,340.32 C935.654,341.51 940.38,341.376 942.3,336.804 C943.887,333.027 947.088,310.244 949.655,300.191 C952.225,290.138 956.328,277.591 958.84,272.388 C961.35,267.188 963.33,262.344 961.75,260.648 C959.164,257.878 956.06,259.148 954.73,260.048 L954.73,260.046 Z" id="Shape" fill="#FFF" fill-rule="nonzero"/><path d="M955.91,260.568 C954.043,261.823 953.033,263.455 949.98,269.288 C942.14,284.248 933.89,321.553 933.29,327.828 C932.66,334.461 932.995,339.144 934.915,340.326 C936.835,341.508 941.561,341.374 943.48,336.834 C945.068,333.078 948.27,310.447 950.838,300.459 C953.408,290.469 957.511,277.999 960.022,272.832 C962.532,267.662 964.512,262.852 962.932,261.165 C960.348,258.415 957.24,259.673 955.912,260.565 L955.909,260.567 L955.91,260.568 Z" id="Shape" fill="#000" fill-rule="nonzero"/><ellipse id="Oval" fill="#FFF" fill-rule="nonzero" transform="translate(957.063393, 268.407923) rotate(116.308000) translate(-957.063393, -268.407923)" cx="957.063" cy="268.408" rx="3.78" ry="2.286"/><path d="M955.11,266.907 C955.11,266.907 955.55,268.132 956.298,268.377 C957.688,268.834 959.923,267.961 959.923,267.961 L959.749,268.691 C959.749,268.691 956.953,269.628 955.889,269.101 C955.225,268.767 954.651,267.605 954.651,267.605 L955.109,266.908 L955.11,266.907 Z" id="Shape" fill="#000" fill-rule="nonzero"/><path d="M944.783,271.524 C944.783,271.524 937.079,270.442 932.119,272.887 C926.619,275.6 923.546,281.361 923.155,288.763 C922.767,296.165 922.962,295.875 922.085,298.406 C921.208,300.938 916.212,305.936 917.341,315.481 C918.074,321.685 922.519,327.051 928.268,327.441 C937.592,328.074 939.808,322.241 949.063,321.981 C956.86,321.761 974.495,327.827 974.495,327.827 C974.495,327.827 975.175,319.242 973.615,313.899 C972.013,308.414 969.455,301.133 961.971,295.146 C955.641,290.081 947.526,289.573 942.053,287.596 C938.546,286.333 944.78,271.526 944.781,271.526 L944.783,271.524 Z" id="Shape" fill="#000" fill-rule="nonzero"/><path d="M943.503,272.04 C943.503,272.04 937.568,270.93 932.608,273.377 C927.106,276.09 925.018,280.831 924.628,288.232 C924.238,295.636 923.878,296.422 922.085,298.408 C919.795,300.938 916.539,305.612 917.341,315.482 C917.847,321.709 920.819,325.682 926.568,326.072 C935.898,326.706 939.816,321.585 949.068,321.322 C956.864,321.102 973.436,325.832 973.436,325.832 C973.436,325.832 973.33,319.406 972.322,314.352 C971.202,308.75 968.33,302.264 960.844,296.274 C954.514,291.21 944.994,290.579 940.344,288.602 C936.914,287.145 943.504,272.04 943.504,272.04 L943.503,272.04 Z" id="Shape" fill="#00CACA" fill-rule="nonzero"/><path d="M924.06,294.216 C924.06,294.216 924.064,304.598 931.963,305.913 C938.833,307.06 943.693,305.451 950.447,306.847 C960.837,308.993 965.811,316.847 965.811,316.847 C965.811,316.847 957.941,309.715 950.636,308.257 C943.56,306.844 937.214,308.454 931.74,307.232 C922.57,305.185 923.133,296.118 923.133,296.118 L924.06,294.216 Z" id="Shape" fill="#000" fill-rule="nonzero"/><path d="M699.51,344.146 C699.51,344.146 708.834,350.361 715.427,362.796 C718.552,368.693 722.585,378.052 722.585,378.052 L729.557,395.665 L754.611,386.717 C754.611,386.717 750.691,368.119 748.489,361.477 C746.186,354.517 743.592,346.687 735.539,341.463 C727.486,336.236 699.511,344.146 699.511,344.146 L699.51,344.146 Z" id="Shape" stroke="#000" fill="#00A5A0" fill-rule="nonzero"/><path d="M713.814,373.365 C714.054,373.898 715.728,374.475 720.124,374.593 C721.764,374.637 723.819,374.233 726.119,373.908 C736.369,372.463 740.677,369.428 740.677,369.428 C740.677,369.428 741.761,372.318 742.957,376.232 C744.48,381.222 744.703,386.954 744.703,386.954 C744.703,386.954 747.233,385.987 749.158,384.557 C751.255,382.999 752.038,381.537 752.038,381.537 C752.038,381.537 752.102,377.603 751.336,374.381 C750.529,370.991 748.462,365.164 748.462,365.164 C748.462,365.164 749.048,364.849 750.882,363.424 C753.444,361.434 754.56,358.917 754.56,358.917 C754.56,358.917 758.385,366.007 759.672,381.151 C762.662,416.251 756.438,447.851 747.752,473.465 C734.194,513.425 711.337,550.157 711.337,550.157 C711.337,550.157 720.679,516.647 725.442,472.339 C727.972,448.796 730.742,429.245 724.95,398.475 C722.268,384.221 713.81,373.367 713.81,373.365 L713.814,373.365 Z" id="Shape" fill="#000" fill-rule="nonzero"/><path d="M714.356,373.14 C714.356,373.14 716.276,374.49 720.552,374.606 C722.145,374.65 724.146,374.256 726.384,373.939 C736.354,372.535 740.546,369.582 740.546,369.582 C740.546,369.582 741.604,372.39 742.766,376.199 C744.246,381.054 744.464,386.629 744.464,386.629 C744.464,386.629 746.922,385.689 748.798,384.296 C750.838,382.78 751.598,381.356 751.598,381.356 C751.598,381.356 751.661,377.532 750.918,374.396 C750.135,371.096 748.122,365.43 748.122,365.43 C748.122,365.43 748.692,365.12 750.477,363.738 C752.967,361.804 754.093,359.898 754.093,359.898 C754.093,359.898 757.776,366.25 759.033,380.983 C761.937,415.13 755.885,445.879 747.433,470.795 C734.245,509.671 712.005,545.405 712.005,545.405 C712.005,545.405 721.095,512.802 725.731,469.702 C728.194,446.795 730.891,427.774 725.256,397.836 C722.641,383.972 714.356,373.143 714.356,373.143 L714.356,373.14 Z" id="Shape" fill="#FFF" fill-rule="nonzero"/><path d="M754.505,358.708 C753.929,357.064 751.022,356.422 746.821,356.705 L747.079,357.405 C750.494,357.232 753.109,357.779 753.579,359.109 C753.836,359.839 753.196,361.179 751.842,362.529 C750.37,363.999 747.862,365.454 747.862,365.454 C747.862,365.454 749.878,371.12 750.659,374.42 C751.405,377.555 751.343,381.38 751.343,381.38 C751.343,381.38 750.58,382.805 748.541,384.32 C746.666,385.715 744.841,386.175 744.841,386.175 C744.841,386.175 744.579,380.685 743.097,375.83 C741.935,372.02 740.847,369.247 740.847,369.247 L740.794,369.097 C739.155494,369.80061 737.494623,370.450951 735.814,371.047 C725.161,374.783 715.718,375.501 714.714,372.647 C714.28,371.403 715.522,369.687 717.942,367.837 L717.65,367.232 C714.693,369.432 713.133,371.527 713.666,373.042 C714.798,376.267 724.856,375.669 736.136,371.708 C737.554,371.208 738.956,370.664 740.341,370.078 C741.041,372.018 741.691,373.976 742.294,375.95 C743.991,381.51 744.237,386.93 744.237,386.93 C744.237,386.93 746.394,386.82 748.541,385.23 C750.879,383.49 752.061,381.982 752.061,381.982 C752.061,381.982 752.406,378.359 751.206,373.82 C750.54,371.292 749.446,367.762 748.8,365.72 C752.864,363.092 755.14,360.5 754.51,358.708 L754.505,358.708 Z" id="Shape" fill="#000" fill-rule="nonzero"/><path d="M749.438,396.28 C749.438,396.28 747.248,394.846 745.228,393.803 C743.208,392.76 740.768,391.991 740.768,391.991 C740.768,391.991 741.861,394.691 742.258,397.781 C742.658,400.869 743.061,405.948 743.061,405.948 C743.061,405.948 745.486,403.206 746.876,401.118 C748.319,398.951 749.44,396.282 749.439,396.281 L749.438,396.28 Z" id="Shape" fill="#000" fill-rule="nonzero"/><path d="M755.883,388.458 C754.063,390.443 754.06,390.443 752.783,391.843 C751.87,392.845 749.437,396.281 749.437,396.281 C749.437,396.281 751.292,398.551 752.439,399.594 C753.575995,400.614696 754.723388,401.623748 755.881,402.621 L755.881,388.459 L755.883,388.458 Z" id="Shape" fill="#000" fill-rule="nonzero"/><circle id="Oval" fill="#000" fill-rule="nonzero" cx="748.797" cy="411.233" r="2.121"/><circle id="Oval" fill="#000" fill-rule="nonzero" cx="748.356" cy="422.108" r="2.121"/><circle id="Oval" fill="#000" fill-rule="nonzero" cx="746.235" cy="434.268" r="2.121"/><path d="M821.57,207.29 C821.57,207.29 817.835,231.793 815.238,243.156 C809.663,267.544 801.394,278.872 801.394,278.872 L787.02,230.065 L764.608,292.655 L749.235,230.538 L721.165,290.153 L713.285,220.917 L685.713,276.083 L675.665,212.833 L739.605,213.873 L822.608,202.437 L821.57,207.29 Z" id="Shape" stroke="#000" fill="#FFF" fill-rule="nonzero"/><path d="M828.83,169.464 C828.83,169.464 833.19,136.857 807.938,109.296 C780.99,79.883 728.016,64.198 674.573,83.954 C659.996,89.344 650.873,102.082 636.976,111.27 C626.684,118.076 611.063,120.224 602.846,130.17 C583.259,153.87 571.618,187.76 577.723,237.907 C586.048,306.3 661.84,355.6 730.87,345.56 C781.473,338.198 804.243,316.25 816.07,283.307 C818.402,276.815 819.353,267.264 813.95,278.232 C809.96,286.332 792.428,294.192 770.03,298.935 C742.508,304.768 730.75,302.312 695.69,290.911 C660.633,279.508 643.637,238.539 660.957,216.154 C678.273,193.77 756.727,228.402 794.002,214.886 C831.278,201.37 828.832,169.466 828.832,169.466 L828.83,169.464 Z" id="Shape" stroke="#000" fill="#00CACA" fill-rule="nonzero"/><path d="M829.576,166.42 C829.576,166.42 829.446,166.583 829.326,166.934 C826.812,174.272 819.422,184.154 808.582,190.924 C797.306,197.97 788.109,201.666 763.737,201.146 C738.567,200.608 711.472,184.033 688.775,186.954 C674.437,188.8 664.303,194.924 658.848,206.827 C655.102,214.997 707.481,207.317 760.618,218.887 C788.242,224.905 819.696,206.777 824.968,198.581 C839.608,175.811 829.575,166.421 829.576,166.421 L829.576,166.42 Z" id="Shape" stroke="#000" fill="#028A8A" fill-rule="nonzero"/><path d="M812,256.274 C812,256.274 809.935,269.987 799.243,279.381 C795.659,282.531 780.568,295.891 741.653,292.771 C712.01,290.398 697.611,284.477 683.459,274.539 C666.129,262.371 658.656,242.366 658.656,242.366 C658.656,242.366 661.598,268.75 669.673,276.036 C677.746,283.322 708.323,297.892 727.593,302.816 C746.861,307.738 765.966,309.314 781.126,302.816 C796.289,296.316 813.146,282.468 816.569,273.673 C821.096,262.053 811.999,256.277 811.999,256.277 L811.999,256.275 L812,256.274 Z" id="Shape" stroke="#000" fill="#028A8A" fill-rule="nonzero"/><path d="M834.926,178.824 C834.65,188.107 831.144,201.651 817.978,213.717 C807.135,223.655 785.003,236.243 753.953,231.379 C727.598,227.249 691.277,211.099 676.728,215.469 C667.512,218.235 659.205,223.862 659.988,239.809 C660.618,252.659 673.816,283.189 715.073,294.345 C745.6,302.6 773.179,300.512 787.069,294.345 C802.206,287.625 809.234,279.371 812.602,268.813 C814.722,262.177 812.198,254.708 812.198,254.708 C812.198,254.708 819.165,256.428 819.898,263.248 C823.675,298.515 765.23,321.945 711.71,305.568 C686.976,298.003 651.934,280.378 648.64,242.702 C645.57,207.57 668.993,197.577 678.978,195.859 C705.658,191.269 738.262,208.276 758.075,208.962 C766.908,209.268 774.379,210.034 782.09,208.732 C806.307,204.648 821.682,196.272 829.15,177.01 C830.803,172.75 829.578,166.42 829.578,166.42 C829.578,166.42 832.138,166.805 833.58,170.084 C834.51,172.204 835.03,175.264 834.924,178.824 L834.926,178.824 Z" id="Shape" fill="#000" fill-rule="nonzero"/><path d="M675.91,74.427 C670.824,67.907 666.52,62.55 661.784,61.517 C661.961,61.639 662.141,61.755 662.306,61.891 C665.926,64.861 665.976,79.051 633.15,105.009 C604.793,127.433 584.637,129.634 579.505,124.611 C579.553,130.473 584.027,135.401 588.512,140.327 C592.392,144.587 598.64,150.293 604.462,151.331 C610.282,152.371 630.917,145.101 649.844,130.351 C669.696,114.881 679.544,102.369 682.136,92.257 C683.706,86.151 679.024,78.417 675.909,74.427 L675.91,74.427 Z" id="Shape" fill="#000" fill-rule="nonzero"/><path d="M590.123,111.227 C594.02,114.222 610.8,108.273 623.597,98.231 C636.397,88.191 648.407,75.589 648.212,68.895 C648.012,62.201 636.397,55.309 630.882,52.158 C625.368,49.008 605.578,42.608 590.122,55.505 C575.622,67.603 578.702,83.859 579.292,87.795 C579.882,91.735 585.985,108.048 590.122,111.228 L590.123,111.227 Z" id="Shape" fill="#000" fill-rule="nonzero"/><path d="M659.436,62 C656.791,59.833 651.993,59.52 646.706,61.17 C648.544,63.338 650.256,65.614 650.426,67.86 C650.999,75.548 638.09,88.97 624.349,99.954 C610.609,110.939 594.452,116.241 589.952,114.178 C587.852,113.218 585.858,110.671 584.272,106.846 C581.139,111.189 578.782,115.766 578.782,119.27 C578.782,127.146 599.806,128.39 631.477,103.348 C662.954,78.456 662.905,64.848 659.435,62 L659.436,62 Z" id="Shape" fill="#000" fill-rule="nonzero"/><path d="M588.612,65.816 C587.274,66.918 585.24,69.229 584.249,73.663 C582.819,80.061 585.209,87.725 587.466,93.083 C589.726,98.443 590.319,99.533 591.57,99.311 C593.584,98.959 595.407,97.711 595.548,96.281 C595.655,95.195 589.688,86.216 588.966,80.181 C588.608,77.201 588.471,73.248 589.816,69.768 C590.34,68.41 591.831,65.901 591.223,65.243 C590.493,64.457 589.337,65.223 588.615,65.819 L588.612,65.817 L588.612,65.816 Z" id="Shape" fill="#FFF" fill-rule="nonzero"/><path d="M597.806,100.087 C597.326,100.027 596.246,100.815 595.24,101.337 C594.157,101.902 593.16,102.224 593.11,102.694 C592.985,103.802 594.402,105.939 595.436,105.947 C596.396,105.957 599.384,104.681 599.526,103.25 C599.561,102.698 598.59,100.183 597.806,100.087 Z" id="Shape" fill="#FFF" fill-rule="nonzero"/><path d="M782.617,180.072 C782.617,178.989 785.679,177.072 788.279,175.772 C790.879,174.472 795.149,172.894 795.859,173.605 C796.569,174.315 796.176,184.218 796.176,184.218 C796.176,184.218 782.616,181.154 782.616,180.072 L782.617,180.072 Z" id="Shape" fill="#000" fill-rule="nonzero"/><path d="M784.568,121.083 C784.568,127.147 794.088,151.925 800.833,158.159 C806.275,163.189 809.983,159.535 809.103,152.782 C808.13,145.3 801.11,125.767 793.94,118.462 C789.28,113.717 784.567,116.946 784.568,121.082 L784.568,121.083 Z" id="Shape" fill="#000" fill-rule="nonzero"/><path d="M727.985,131.717 C730.399,142.309 744.322,170.515 754.505,178.437 C762.725,184.831 768.689,179.277 766.652,169.929 C764.397,159.572 752.012,133.719 741.704,123.699 C734.614,116.809 725.614,121.304 727.984,131.716 L727.985,131.717 Z" id="Shape" fill="#000" fill-rule="nonzero"/><path d="M792.976,106.473 C792.976,106.473 787.971,103.243 782.616,104.407 C778.586,105.285 775.322,108.867 774.783,113.505 C774.413,116.685 775.76,119.072 777.286,118.205 C779.206,117.115 776.358,111.895 781.526,107.567 C785.666,104.097 792.976,106.473 792.976,106.473 Z" id="Shape" fill="#000" fill-rule="nonzero"/><path d="M755.58,123.672 C755.58,123.672 747.324,106.002 730.53,106.154 C718.7,106.261 714.668,113.364 713.547,115.661 C712.425,117.959 713.644,120.501 714.935,120.471 C717.445,120.405 717.795,117.741 720.01,114.914 C722.862,111.271 726.74,109.734 733.79,110.001 C745.104,110.428 755.58,123.673 755.58,123.673 L755.58,123.672 Z" id="Shape" fill="#000" fill-rule="nonzero"/><path d="M788.663,129.633 C788.663,132.259 792.783,142.99 795.709,145.69 C798.062,147.868 799.669,146.287 799.287,143.36 C798.867,140.12 795.824,131.662 792.717,128.497 C790.702,126.444 788.661,127.842 788.662,129.633 L788.663,129.633 Z" id="Shape" fill="#FFF" fill-rule="nonzero"/><path d="M734.736,138.76 C734.868,142.36 741.06,156.854 745.198,160.408 C748.54,163.275 750.658,161.026 749.99,157.036 C749.248,152.616 744.653,141.178 740.24,136.998 C737.374,134.285 734.646,136.305 734.736,138.758 L734.736,138.76 Z" id="Shape" fill="#FFF" fill-rule="nonzero"/><path d="M747.784,187.636 C747.784,187.636 750.431,190.282 755.112,190.282 C762.435,190.282 765.264,185.789 765.57,185.482 C765.88,185.177 766.182,184.919 766.655,185.394 C767.125,185.868 766.655,186.556 766.655,186.556 C766.655,186.556 762.057,192.376 754.549,191.606 C748.669,191.004 747.052,188.469 747.052,188.469 C747.052,188.469 746.729,188.005 747.052,187.683 C747.372,187.363 747.784,187.637 747.784,187.637 L747.784,187.635 L747.784,187.636 Z" id="Shape" fill="#000" fill-rule="nonzero"/><path d="M812.33,166.643 C812.072,167.255 810.944,169.969 809.177,170.723 C807.112,171.601 804.979,171.513 803.867,170.985 C802.31,170.245 801.407,171.541 803.177,172.197 C804.947,172.852 807.437,173.017 809.372,172.197 C811.308,171.377 813.042,169.051 813.568,167.412 C814.091,165.774 812.584,166.032 812.328,166.642 L812.33,166.643 Z" id="Shape" fill="#000" fill-rule="nonzero"/><g id="Group" transform="translate(777.000000, 408.000000)" fill="#FFF" fill-rule="nonzero"><path d="M28.19,16.47 C28.1586941,16.56443 28.1124396,16.6532252 28.053,16.733 C27.736,17.171 27.176,17.337 26.663,17.383 C25.918,17.448 25.659,17.543 25.65,17.803 C25.644,18.029 25.94,18.238 26.464,18.238 L27.964,18.238 L27.964,19.052 L26.507,19.052 C25.649,19.045 24.8,18.582 24.8,17.798 L24.8,16.378 C24.8,15.898 24.768,15.571 25.173,15.211 C25.5,14.919 26.003,14.755 26.506,14.751 C27.122,14.748 27.746,14.941 28.056,15.341 C28.134,15.451 28.183,15.557 28.216,15.661 C28.276,15.895 28.266,16.246 28.191,16.471 L28.19,16.47 Z M11.093,19.05 L9.283,19.05 L9.283,18.238 L11.493,18.238 C11.593,18.238 11.683,18.198 11.753,18.138 C11.8307116,18.0746381 11.87938,17.9824495 11.8878628,17.8825402 C11.8963457,17.7826309 11.8639166,17.6835568 11.798,17.608 C11.7424611,17.5456064 11.6718937,17.4984467 11.593,17.471 C11.416,17.403 11.173,17.363 10.979,17.323 L10.639,17.25 C10.185,17.147 9.749,17.02 9.504,16.677 C9.162,16.217 9.212,15.577 9.621,15.177 C9.851,14.947 10.161,14.814 10.486,14.813 L12.281,14.813 L12.281,15.629 L10.485,15.629 C10.175,15.629 9.988,15.999 10.167,16.224 C10.284,16.368 10.503,16.42 10.687,16.464 L11.273,16.592 C11.786,16.709 12.243,16.732 12.555,17.302 C12.909,17.96 12.565,18.738 11.909,18.977 C11.825,19.004 11.749,19.025 11.676,19.037 C11.496,19.059 11.279,19.047 11.089,19.047 L11.092,19.049 L11.093,19.05 Z M6.413,14.81 L6.413,19.05 L7.228,19.05 L7.228,15.4 C7.228,15.06 7.168,14.81 6.708,14.81 L6.408,14.81 L6.412,14.81 L6.413,14.81 Z M6.413,13.496 L6.413,14.308 L7.228,14.308 L7.228,14.082 C7.228,13.74 7.168,13.492 6.708,13.492 L6.408,13.492 L6.408,13.494 L6.412,13.496 L6.413,13.496 Z M2.835,16.718 C3.145,16.518 3.545,16.428 3.9,16.394 C4.217,16.372 4.44,16.334 4.593,16.29 C4.935,16.187 4.933,15.91 4.703,15.77 C4.573,15.692 4.336,15.63 4.098,15.63 L2.848,15.63 L2.848,14.81 L4.055,14.81 C5,14.82 5.761,15.254 5.761,16.265 L5.761,17.49 C5.761,17.97 5.794,18.294 5.388,18.657 C5.038,18.969 4.473,19.127 3.921,19.114 C3.327,19.101 2.589,18.924 2.353,18.309 C2.29084366,18.1518985 2.26091701,17.9839012 2.265,17.815 C2.268,17.362 2.451,16.965 2.832,16.715 L2.837,16.717 L2.835,16.718 Z M3.201,17.458 C3.02636518,17.6514565 3.04112215,17.9497263 3.234,18.125 L3.262,18.148 C3.612,18.428 4.952,18.398 4.952,17.664 L4.952,16.951 C4.522,17.141 4.095,17.121 3.697,17.211 C3.517,17.251 3.327,17.313 3.203,17.459 L3.201,17.458 Z M2.347,14.828 L1.997,14.828 C0.957864549,14.8318451 0.116741941,15.6738611 0.114,16.713 L0.114,19.05 L0.931,19.05 L0.931,16.713 C0.931,16.126 1.413,15.645 1.996,15.645 L2.343,15.645 L2.343,14.83 L2.347,14.828 Z M7.899,13.496 L7.899,19.05 L8.713,19.05 L8.713,14.085 C8.713,13.743 8.653,13.495 8.196,13.495 L7.899,13.495 L7.899,13.496 Z M15.461,16.158 L16.254,19.05 L17.091,19.05 L18.297,14.81 L17.482,14.81 L16.672,17.765 L15.864,14.81 L15.464,14.818 L15.059,14.81 L14.251,17.765 L13.441,14.81 L12.625,14.81 L13.831,19.05 L14.667,19.05 L15.461,16.158 Z M24.531,14.828 L24.185,14.828 C23.1447907,14.8296532 22.3021012,15.67279 22.301,16.713 L22.301,19.05 L23.114,19.05 L23.114,16.713 C23.114,16.126 23.594,15.645 24.181,15.645 L24.528,15.645 L24.531,14.828 Z M19.171,16.528 C19.3810396,16.4591252 19.5980061,16.4135187 19.818,16.392 C20.132,16.37 20.356,16.332 20.508,16.288 C20.85,16.188 20.848,15.908 20.62,15.77 C20.49,15.69 20.253,15.63 20.015,15.63 L18.619,15.63 L18.619,14.81 L19.972,14.81 C20.919,14.82 21.68,15.254 21.68,16.265 L21.68,17.488 C21.68,17.968 21.713,18.293 21.308,18.656 C20.955,18.968 20.392,19.126 19.838,19.113 C19.46,19.103 19.05,19.023 18.734,18.817 C18.4633211,18.646301 18.2773648,18.3691825 18.222,18.054 C18.132,17.559 18.292,17.097 18.662,16.799 C18.815,16.676 18.988,16.587 19.17,16.527 L19.171,16.528 Z M19.186,17.412 C18.954,17.62 18.956,17.942 19.192,18.135 C19.54,18.415 20.869,18.413 20.869,17.68 L20.869,16.95 C20.437,17.14 20.027,17.12 19.635,17.21 C19.477,17.25 19.315,17.3 19.19,17.413 L19.187,17.413 L19.186,17.412 Z M27.043,16.53 C27.656,16.298 27.563,15.672 26.811,15.59 C26.7295578,15.5821519 26.6478154,15.5778145 26.566,15.577 C26.138,15.575 25.616,15.707 25.616,16.223 L25.616,16.823 C26.128,16.593 26.588,16.705 27.043,16.53 Z" id="Shape"/><path d="M0.147,5.73 L4.607,10.187 L0.147,10.187 L0.147,5.727 L0.147,5.73 Z M19.83,0.582 L27.074,7.827 C27.654,8.407 27.654,9.347 27.074,9.93 C26.494,10.508 25.554,10.508 24.974,9.93 L15.626,0.582 L19.831,0.582 L19.83,0.582 Z M14.865,0.582 L10.658,0.582 L20.008,9.93 C20.5890506,10.507112 21.5269494,10.507112 22.108,9.93 C22.686,9.35 22.686,8.41 22.108,7.827 L14.865,0.582 Z M9.9,0.582 L5.693,0.582 L15.039,9.93 C15.619,10.508 16.559,10.508 17.141,9.93 C17.7190066,9.34814823 17.7190066,8.40885177 17.141,7.827 L9.898,0.582 L9.9,0.582 Z M4.933,0.582 L0.729,0.582 L6.132,5.987 C6.708,6.567 7.654,6.567 8.234,5.987 C8.81200661,5.40514823 8.81200661,4.46585177 8.234,3.884 L4.932,0.582 L4.933,0.582 Z M0.147,0.764 L0.147,4.968 L5.367,10.192 L9.574,10.192 L0.147,0.764 Z" id="Shape"/></g><g id="Group" transform="translate(385.000000, 57.000000)" fill="#313A45" fill-rule="nonzero"><path d="M63.89,358.24 C63.89,358.24 69.786,371.03 73.955,379.385 C78.125,387.74 89.751,416.493 89.751,416.493 L92.524,413.537 L92.524,409.167 C92.524,409.167 82.93,387.922 78.124,378.179 C72.711,367.206 67.401,356.539 67.401,356.539 L63.891,358.237 L63.891,358.239 L63.89,358.24 Z" id="Shape"/><path d="M97.765,206.966 C97.765,206.966 110.145,240.829 113.238,249.202 C116.333,257.577 134.403,307.508 134.403,307.508 C134.403,307.508 137.655,313.001 139.635,314.632 C141.615,316.266 144.005,316.926 144.005,316.926 C144.005,316.926 130.475,276.981 121.962,255.874 C114.762,238.029 102.132,205.874 101.586,205.51 C101.039,205.145 97.766,206.966 97.766,206.966 L97.765,206.966 Z" id="Shape"/><ellipse id="Oval" transform="translate(68.985257, 109.278140) rotate(73.274000) translate(-68.985257, -109.278140)" cx="68.985" cy="109.278" rx="103.273" ry="34.976"/></g><path d="M420.43,70.05 C420.43,70.05 375.576,96.48 341.518,127.4 C289.658,174.485 222.941,221.5 150.523,262.53 C60.21,313.698 5.87,321.773 1.628,333.035 C-3.466,346.56 20.914,348.495 79.542,343.785 C138.169,339.068 216.345,321.187 289.64,298.01 C369.936,272.622 444.777,266.774 473.244,265.47 C543.578,262.247 433.024,88.828 433.024,88.828 L420.43,70.05 Z" id="Shape" stroke="#313A45"/><path d="M411.152,88.506 C411.152,88.506 371.777,112.231 340.17,140.926 C292.04,184.626 228.397,230.153 160.062,266.159 C79.022,308.86 2.176,323.83 1.47,335.726 C0.674,349.113 43.247,348.496 90.41,340.664 C144.255,331.724 226.025,310.06 294.042,288.554 C368.558,264.994 445.242,255.641 471.662,254.432 C536.932,251.444 425.089,105.132 425.089,105.132 L411.151,88.505 L411.152,88.506 Z" id="Shape" stroke="#313A45"/><path d="M409.307,107.894 C409.307,107.894 376.072,127.931 344.197,152.424 C299.707,186.614 249.001,228.744 189.411,258.638 C60.88,323.12 2.02,326.484 1.47,335.728 C0.782,347.284 48.782,345.016 126.134,328.923 C178.064,318.118 245.867,295.173 304.577,276.61 C368.891,256.272 437.954,242.99 460.759,241.946 C517.096,239.366 417.494,121.529 417.494,121.529 L409.309,107.893 L409.307,107.894 Z" id="Shape" stroke="#313A45"/><path d="M483.82,156.94 C499.554,209.32 500.474,254.922 484.746,261.487 C468.179,268.403 440.486,227.98 424.752,175.6 C409.022,123.217 408.655,75.893 425.696,70.202 C440.483,65.262 468.091,104.558 483.822,156.939 L483.82,156.939 L483.82,156.94 Z" id="Shape" fill="#FFF" fill-rule="nonzero"/><g id="Group" transform="translate(411.000000, 76.000000)" stroke="#313A45"><path d="M5.62,71.76 C5.62,71.76 18.6,65.03 33.858,56.9 C46.652,50.08 59.966,44.47 59.966,44.47" id="Shape"/><path d="M8.698,90.42 C8.698,90.42 22.785,83.134 39.746,75.512 C54.272,68.984 68.902,63.007 68.902,63.007" id="Shape"/><path d="M14.474,108.51 C14.474,108.51 29.134,102.455 46.684,96.313 C61.717,91.053 76.804,86.349 76.804,86.349" id="Shape"/><path d="M19.886,125.518 C19.886,125.518 34.79,120.9 52.552,116.436 C67.764,112.613 82.989,109.333 82.989,109.333" id="Shape"/><path d="M27.104,141.27 C27.104,141.27 41.014,138 57.562,135.004 C71.737,132.44 85.909,130.348 85.909,130.348" id="Shape"/><path d="M34.25,154.575 C34.25,154.575 46.598,152.968 61.264,151.778 C73.826,150.758 86.371,150.12 86.371,150.12" id="Shape"/><path d="M41.273,167.34 C41.273,167.34 51.809,166.336 64.285,165.773 C74.972,165.291 85.623,165.143 85.623,165.143" id="Shape"/><path d="M51.398,177.913 C51.398,177.913 58.822,177.509 67.575,177.488 C75.072,177.468 82.525,177.693 82.525,177.693" id="Shape"/></g><path d="M875.84,120.633 C875.84,120.633 887.714,140.945 888.568,144.616 C889.658,149.316 888.91,152.45 888.91,153.403 C888.91,154.357 889.452,154.966 892.314,154.698 C911.116,152.928 930.309,145.121 933.374,143.552 C936.437,141.985 938.374,142.49 939.728,142.776 C940.656,142.97 942.044,141.686 941.566,139.71 C941.088,137.735 938.434,125.972 934.278,117.232 C930.455,109.192 925.628,102.314 925.628,102.314 L875.84,120.634 L875.84,120.633 Z" id="Shape" fill="#000" fill-rule="nonzero"/><path d="M876.93,120.895 C876.93,120.895 888.613,140.477 889.44,144.025 C890.492,148.57 889.867,151.762 889.867,152.685 C889.867,153.607 890.094,154.092 892.859,153.831 C911.036,152.121 929.593,144.131 932.559,142.616 C935.521,141.101 938.223,141.65 939.529,141.926 C940.425,142.116 940.939,141.253 940.479,139.343 C940.019,137.433 938.382,128.577 933.289,117.609 C929.094,108.584 925.065,103.184 925.065,103.184 L876.928,120.899 L876.928,120.896 L876.93,120.895 Z" id="Shape" fill="#FFF" fill-rule="nonzero"/><path d="M883.797,136.928 C883.797,136.928 864.911,125.972 854.777,124.658 C846.567,123.593 844.6,132.711 852.364,135.078 C862.992,138.32 883.797,136.928 883.797,136.928 Z" id="Shape" fill="#DDD" fill-rule="nonzero"/><path d="M883.797,139.698 C883.797,139.698 871.041,143.733 865.24,146.973 C858.213,150.898 864.834,159.936 871.29,154.763 C877.747,149.588 883.798,139.698 883.797,139.698 Z" id="Shape" fill="#DDD" fill-rule="nonzero"/><path d="M939.06,121.97 C939.06,121.97 947.09,99.333 951.002,91.56 C956.145,81.338 960.557,78.54 965.46,80.453 C970.2,82.301 968.62,89.805 965.135,94.659 C953.747,110.516 939.06,121.969 939.06,121.969 L939.06,121.97 Z" id="Shape" fill="#DDD" fill-rule="nonzero"/><path d="M940.122,123.35 C940.122,123.35 954.672,114.522 960.395,112.806 C966.117,111.09 969.468,113.051 970.082,115.054 C970.695,117.056 970.615,122.616 964.156,123.35 C958.342,124.012 940.122,123.35 940.122,123.35 Z" id="Shape" fill="#DDD" fill-rule="nonzero"/><path d="M874.812,120.476 C875.022,121.934 883.747,122.781 888.992,123.762 C893.962,124.69 903.952,125.972 905.28,126.716 C907.995,128.234 909.072,125.081 910.39,123.764 C911.71,122.444 923.803,105.561 924.84,104.284 C925.88,103.007 930.07,99.374 919.532,102.409 C908.995,105.441 881.082,116.489 879.015,117.375 C877,118.235 874.6,118.982 874.812,120.475 L874.812,120.476 Z" id="Shape" fill="#000" fill-rule="nonzero"/><path d="M875.845,120.193 C876.035,121.509 884.72,122.195 889.45,123.079 C893.937,123.914 903.63,124.814 904.83,125.486 C907.278,126.856 908.143,125.059 909.437,123.291 C911.012,121.139 919.007,110.751 921.817,106.945 C923.72,104.372 930.427,99.163 917.682,103.555 C908.328,106.778 884.956,115.692 881.462,117.058 C879.626,117.778 875.652,118.844 875.845,120.191 L875.845,120.193 Z" id="Shape" fill="#FFF" fill-rule="nonzero"/><path d="M891.12,122.162 C890.272,122.585 891.157,125.112 891.73,126.447 C892.474,128.177 894.54,131.817 895.32,132.347 C896.48,133.133 898.634,132.387 897.64,131.081 C896.085,129.037 894.486,126.548 893.723,124.238 C892.893,121.73 891.888,121.783 891.119,122.163 L891.12,122.162 Z" id="Shape" fill="#000" fill-rule="nonzero"/><path d="M916.073,111.983 C915.343,112.533 916.251,115.391 916.973,116.908 C917.913,118.878 920.463,122.988 921.393,123.568 C922.767,124.425 924.913,123.434 923.703,121.968 C921.81,119.675 920.156,116.548 919.167,113.914 C918.097,111.052 916.897,111.361 916.073,111.984 L916.073,111.983 Z" id="Shape" fill="#000" fill-rule="nonzero"/><path d="M901.164,139.17 C900.646,141.28 902.379,144.602 906.366,145.414 C910.353,146.224 917.178,144.804 920.49,141.968 C922.36,140.368 922.993,136.426 921.37,134.872 C919.748,133.318 916.954,131.552 910.29,133.318 C904.323,134.898 901.77,136.682 901.166,139.171 L901.164,139.171 L901.164,139.17 Z" id="Shape" fill="#000" fill-rule="nonzero"/><ellipse id="Oval" fill="#FFF" fill-rule="nonzero" transform="translate(912.280238, 140.928461) rotate(78.463000) translate(-912.280238, -140.928461)" cx="912.28" cy="140.928" rx="3.843" ry="6.793"/><path d="M883.797,136.928 C883.797,136.928 869.149,134.471 861.262,132.58 C854.114,130.87 847.038,127.317 847.038,127.317" id="Shape" stroke="#FFF"/><path d="M884.17,139.322 C884.17,139.322 875.04,146.658 871.15,149.482 C867.253,152.307 863.162,155.278 863.162,155.278" id="Shape" stroke="#FFF"/><path d="M939.06,123.35 C939.06,123.35 955.074,120.123 959.9,118.82 C964.732,117.517 972.243,115.14 972.243,115.14" id="Shape" stroke="#FFF"/><path d="M938.516,122.422 C938.516,122.422 950.006,106.019 955.224,97.74 C960.438,89.462 965.957,78.965 965.957,78.965" id="Shape" stroke="#FFF"/><path d="M849.823,135.08 C849.823,135.08 852.143,134.737 853.591,134.04 C855.474,133.135 857.037,131.373 857.037,131.373" id="Shape" stroke="#FFF"/><path d="M857.54,137.225 C857.54,137.225 859.846,136.787 861.262,136.035 C863.108,135.05 864.597,133.227 864.597,133.227" id="Shape" stroke="#FFF"/><path d="M864.597,138.927 C864.597,138.927 866.902,138.489 868.317,137.737 C870.161,136.752 871.65,134.929 871.65,134.929" id="Shape" stroke="#FFF"/><path d="M852.61,124.21 C852.61,124.21 853.75,125.54 854.215,126.65 C854.908,128.318 854.843,130.617 854.843,130.617" id="Shape" stroke="#FFF"/><path d="M859.166,124.886 C859.166,124.886 860.728,126.616 861.362,128.062 C862.312,130.235 862.224,133.226 862.224,133.226" id="Shape" stroke="#FFF"/><path d="M866.592,125.972 C866.592,125.972 868.154,127.702 868.787,129.147 C869.74,131.32 869.65,134.311 869.65,134.311" id="Shape" stroke="#FFF"/><path d="M869.653,158.5 C869.653,158.5 870.613,156.362 870.809,154.77 C871.059,152.697 870.419,150.43 870.419,150.43" id="Shape" stroke="#FFF"/><path d="M874.798,154.282 C874.798,154.282 875.758,152.145 875.953,150.552 C876.205,148.478 875.563,146.212 875.563,146.212" id="Shape" stroke="#FFF"/><path d="M868.657,151.065 C868.657,151.065 866.692,150.079 865.355,149.889 C864.022,149.699 860.971,149.854 860.971,149.854" id="Shape" stroke="#FFF"/><path d="M873.56,147.538 C873.56,147.538 871.028,146.226 869.372,146.021 C867.825,145.831 864.894,145.848 864.894,145.848" id="Shape" stroke="#FFF"/><path d="M956.32,82.613 C956.32,82.613 956.11,85.508 956.325,87.143 C956.715,90.101 958.39,91.953 958.39,91.953" id="Shape" stroke="#FFF"/><path d="M950.72,90.536 C950.49,96.506 953.29,100.271 953.29,100.271" id="Shape" stroke="#FFF"/><path d="M946.37,99.04 C946.37,99.04 946.484,102.625 946.9,104.174 C947.443,106.194 948.45,108.238 948.45,108.238" id="Shape" stroke="#FFF"/><path d="M960.52,89.19 C960.52,89.19 963.404,88.84 964.967,88.32 C967.797,87.374 969.291,85.375 969.291,85.375" id="Shape" stroke="#FFF"/><path d="M955.414,97.538 C955.414,97.538 959.092,97.578 961.134,97.195 C964.829,96.507 966.997,94.335 966.997,94.335" id="Shape" stroke="#FFF"/><path d="M950.26,105.518 C950.26,105.518 953.934,105.558 955.974,105.175 C959.67,104.487 961.839,102.315 961.839,102.315" id="Shape" stroke="#FFF"/><path d="M966.997,110.634 C966.997,110.634 964.704,112.414 963.632,113.664 C961.689,115.928 961.432,118.414 961.432,118.414" id="Shape" stroke="#FFF"/><path d="M959.12,111.566 C959.12,111.566 957.2,113.744 956.378,115.171 C954.893,117.761 955.103,120.251 955.103,120.251" id="Shape" stroke="#FFF"/><path d="M958.735,118.694 C958.735,118.694 961.537,121.072 963.351,122.082 C966.638,123.915 969.695,123.627 969.695,123.627" id="Shape" stroke="#FFF"/><path d="M951.252,120.875 C951.252,120.875 954.058,123.253 955.872,124.263 C959.152,126.096 962.21,125.809 962.21,125.809" id="Shape" stroke="#FFF"/><path d="M881.36,39.176 C879.7,40.386 879.202,41.658 881.36,44.951 C883.516,48.248 894.306,70.881 895.135,73.588 C895.965,76.294 895.965,78.38 895.965,79.992 C895.965,81.602 897.27,83.048 900.435,81.496 C903.6,79.946 948.161,64.678 959.072,63.018 C969.985,61.358 970.195,60.104 972.746,60.068 C975.298,60.032 976.2,56.808 975.001,54.436 C973.801,52.064 964.491,19.369 962.757,17.378 C961.024,15.388 960.063,13.728 954.983,14.058 C949.903,14.39 931.787,16.888 916.376,22.15 C900.419,27.604 883.02,37.97 881.362,39.18 L881.362,39.178 L881.36,39.176 Z" id="Shape" fill="#000" fill-rule="nonzero"/><path d="M882.733,39.44 C881.123,40.614 880.64,41.848 882.733,45.044 C884.828,48.24 895.295,70.202 896.101,72.829 C896.905,75.454 896.905,77.479 896.905,79.042 C896.905,80.605 898.541,81.639 901.611,80.134 C904.681,78.629 947.235,63.866 957.824,62.254 C968.414,60.642 968.937,59.287 971.412,59.251 C973.887,59.215 974.766,56.547 973.602,54.244 C972.438,51.942 963.406,20.217 961.722,18.286 C960.04,16.354 959.108,14.744 954.18,15.064 C949.25,15.386 931.672,18.25 916.71,23.358 C902.493,28.212 885.36,37.518 882.735,39.438 L882.733,39.44 Z" id="Shape" fill="#FFF" fill-rule="nonzero"/><path d="M881.07,41.476 C881.07,41.476 883.68,40.536 887.407,40.081 C891.204,39.619 900.617,37.581 907.687,37.734 C914.754,37.888 922.057,39.25 922.057,39.25 C922.057,39.25 925.747,35.195 929.827,32.45 C934.024,29.63 959.437,15.407 959.437,15.407 L958.504,15.027 C958.504,15.027 932.956,29.189 929.304,31.52 C925.654,33.85 921.807,37.97 921.807,37.97 C921.807,37.97 911.565,36.72 907.495,36.72 C902.848,36.72 890.958,38.64 887.691,39.112 C884.508,39.574 881.335,40.469 881.335,40.469 L881.068,41.474 L881.071,41.474 L881.07,41.476 Z" id="Shape" fill="#000" fill-rule="nonzero"/><path d="M895.58,44.003 C894.79,44.597 894.17,46.588 895.66,50.903 C896.428,53.128 899.145,57.715 900.085,58.433 C902.452,60.238 904.225,57.945 902.922,56.363 C900.877,53.888 898.916,51.04 898.339,47.361 C897.613,42.751 896.464,43.335 895.579,44.004 L895.58,44.003 Z" id="Shape" fill="#000" fill-rule="nonzero"/><path d="M947.52,29.38 C947.287,30.494 947.56,33 948.374,34.845 C949.186,36.693 950.794,39.717 952.57,40.298 C954.874,41.05 956.275,39.128 954.982,37.798 C953.692,36.471 951.858,33.738 951.444,31.67 C951.03,29.6 950.944,28.118 949.924,27.84 C948.314,27.41 947.754,28.27 947.52,29.38 Z" id="Shape" fill="#000" fill-rule="nonzero"/><path d="M933.41,41.162 C927.816,40.808 916.97,43.55 912.636,51.789 C908.576,59.499 908.566,65.639 909.146,67.805 C909.726,69.973 913.322,72.458 916.284,70.131 C919.244,67.805 923.528,61.657 930.724,59.617 C936.547,57.967 942.166,58.905 945.624,60.454 C950.7,62.727 956.25,59.396 953.236,54.481 C950.224,49.564 944.264,41.847 933.411,41.159 L933.411,41.161 L933.41,41.162 Z" id="Shape" fill="#000" fill-rule="nonzero"/><path d="M884.58,62.094 C884.58,62.094 859.62,47.614 846.226,45.877 C835.374,44.469 832.774,56.522 843.038,59.651 C857.082,63.939 884.578,62.096 884.578,62.095 L884.58,62.094 Z" id="Shape" fill="#DDD" fill-rule="nonzero"/><path d="M885.444,65.148 C885.444,65.148 868.587,70.48 860.924,74.763 C851.631,79.951 860.381,91.896 868.919,85.059 C877.451,78.219 885.443,65.146 885.443,65.147 L885.444,65.148 Z" id="Shape" fill="#DDD" fill-rule="nonzero"/><path d="M884.58,62.094 C884.58,62.094 865.22,58.844 854.796,56.348 C845.353,54.086 836,49.393 836,49.393" id="Shape" stroke="#FFF"/><path d="M885.94,64.652 C885.94,64.652 873.88,74.348 868.73,78.082 C863.58,81.814 858.17,85.74 858.17,85.74" id="Shape" stroke="#FFF"/><path d="M839.68,59.652 C839.68,59.652 842.742,59.2 844.655,58.279 C847.141,57.079 849.207,54.752 849.207,54.752" id="Shape" stroke="#FFF"/><path d="M849.882,62.487 C849.882,62.487 852.928,61.909 854.797,60.914 C857.234,59.614 859.2,57.204 859.2,57.204" id="Shape" stroke="#FFF"/><path d="M859.2,64.737 C859.2,64.737 862.252,64.16 864.12,63.162 C866.555,61.862 868.523,59.452 868.523,59.452" id="Shape" stroke="#FFF"/><path d="M843.362,45.287 C843.362,45.287 844.872,47.044 845.482,48.512 C846.402,50.719 846.315,53.755 846.315,53.755" id="Shape" stroke="#FFF"/><path d="M852.026,46.18 C852.026,46.18 854.093,48.467 854.931,50.378 C856.191,53.25 856.071,57.202 856.071,57.202" id="Shape" stroke="#FFF"/><path d="M861.84,47.615 C861.84,47.615 863.906,49.902 864.743,51.812 C866.003,54.684 865.883,58.636 865.883,58.636" id="Shape" stroke="#FFF"/><path d="M866.75,90 C866.75,90 868.023,87.174 868.277,85.07 C868.611,82.328 867.764,79.334 867.764,79.334" id="Shape" stroke="#FFF"/><path d="M873.55,84.424 C873.55,84.424 874.824,81.598 875.08,79.494 C875.412,76.752 874.566,73.759 874.566,73.759" id="Shape" stroke="#FFF"/><path d="M865.438,80.172 C865.438,80.172 862.838,78.87 861.076,78.619 C859.314,78.365 855.281,78.573 855.281,78.573" id="Shape" stroke="#FFF"/><path d="M871.914,75.51 C871.914,75.51 868.568,73.777 866.382,73.504 C864.337,73.25 860.465,73.274 860.465,73.274" id="Shape" stroke="#FFF"/><path d="M972.858,38.64 C972.858,38.64 987.314,17.125 993.483,10.046 C1001.597,0.736 1006.963,-1.007 1011.576,2.306 C1016.036,5.506 1012.372,12.926 1007.429,17.07 C991.277,30.598 972.857,38.64 972.857,38.64 L972.858,38.64 Z" id="Shape" fill="#DDD" fill-rule="nonzero"/><path d="M973.598,40.364 C973.598,40.364 991.172,35.032 997.615,34.77 C1004.055,34.506 1007.033,37.453 1007.135,39.712 C1007.242,41.97 1005.67,47.758 998.722,46.798 C992.469,45.935 973.599,40.364 973.598,40.364 Z" id="Shape" fill="#DDD" fill-rule="nonzero"/><path d="M972.488,40.08 C972.488,40.08 990.092,40.995 995.488,40.925 C1000.888,40.855 1009.378,40.383 1009.378,40.383" id="Shape" stroke="#FFF"/><path d="M972.166,38.965 C972.166,38.965 988.57,24.895 996.242,17.637 C1003.91,10.38 1012.49,0.887 1012.49,0.887" id="Shape" stroke="#FFF"/><path d="M1001.438,2.118 C1001.438,2.118 1000.448,5.088 1000.233,6.854 C999.845,10.05 1001.103,12.436 1001.103,12.436" id="Shape" stroke="#FFF"/><path d="M993.462,8.9 C991.625,15.08 993.546,19.766 993.546,19.766" id="Shape" stroke="#FFF"/><path d="M986.638,16.626 C986.638,16.626 985.798,20.404 985.818,22.134 C985.844,24.389 986.348,26.797 986.348,26.797" id="Shape" stroke="#FFF"/><path d="M1004.07,10.116 C1004.07,10.116 1007.175,10.523 1008.95,10.396 C1012.16,10.166 1014.26,8.476 1014.26,8.476" id="Shape" stroke="#FFF"/><path d="M996.5,17.478 C996.5,17.478 1000.33,18.501 1002.564,18.65 C1006.614,18.92 1009.462,17.23 1009.462,17.23" id="Shape" stroke="#FFF"/><path d="M988.97,24.437 C988.97,24.437 992.8,25.461 995.036,25.61 C999.086,25.88 1001.936,24.19 1001.936,24.19" id="Shape" stroke="#FFF"/><path d="M1005.1,34.268 C1005.1,34.268 1002.224,35.515 1000.768,36.534 C998.128,38.381 997.195,40.909 997.195,40.909" id="Shape" stroke="#FFF"/><path d="M996.61,33.13 C996.61,33.13 994.02,34.893 992.782,36.167 C990.539,38.473 990.088,41.131 990.088,41.131" id="Shape" stroke="#FFF"/><path d="M994.302,40.48 C994.302,40.48 996.594,43.718 998.222,45.26 C1001.162,48.054 1004.436,48.57 1004.436,48.57" id="Shape" stroke="#FFF"/><path d="M985.898,40.758 C985.898,40.758 988.194,43.994 989.818,45.535 C992.758,48.332 996.031,48.85 996.031,48.85" id="Shape" stroke="#FFF"/><path d="M922.627,62.73 C922.627,62.73 925.852,59.77 929.394,58.766 C932.934,57.761 936.16,57.444 936.16,57.444 C936.16,57.444 934.89,53.424 930.238,53.479 C925.588,53.529 923.472,55.539 922.202,57.812 C921.112,59.772 922.627,62.729 922.627,62.729 L922.627,62.73 Z" id="Shape" fill="#FFF" fill-rule="nonzero"/><path d="M912.16,55.488 L915.487,57.92 C915.487,57.92 917.307,53.8 922.283,50.967 C927.758,47.847 929.765,48.087 933.2,48.245 C936.638,48.405 939.703,50.412 939.703,50.412 L942.85,45.416 C942.85,45.416 937.594,41.912 932.195,42.166 C925.43,42.481 922.222,43.894 918.24,46.816 C913.563,50.248 912.16,55.488 912.16,55.488 Z" id="Shape" fill="#FFF" fill-rule="nonzero"/><path d="M487.734,36.745 C488.446,39.831 495.13,62.085 495.624,64.305 C496.116,66.525 497.228,66.843 499.09,66.541 C500.95,66.241 517.152,63.981 524.11,61.817 C531.066,59.651 541.048,54.475 543.117,54.347 C546.791,54.115 546.714,51.127 545.364,50.067 C543.424,48.543 539.911,42.877 538.571,38.317 C537.204,33.661 536.211,28.247 535.997,26.407 C535.494,22.02 534.685,22.995 531.287,23.644 C527.889,24.294 487.737,36.747 487.735,36.746 L487.734,36.745 Z" id="Shape" fill="#000" fill-rule="nonzero"/><path d="M488.774,37.04 C489.462,40.018 495.908,61.482 496.384,63.623 C496.859,65.765 497.929,66.07 499.727,65.779 C501.524,65.485 517.15,63.309 523.859,61.219 C530.569,59.129 540.219,54.339 542.191,54.011 C545.097,53.528 546.418,51.504 544.359,49.885 C542.487,48.413 539.099,42.948 537.809,38.551 C536.489,34.061 535.539,28.837 535.325,27.061 C535.112,25.297 534.055,23.771 530.781,24.398 C527.505,25.024 488.773,37.038 488.773,37.038 L488.774,37.04 Z" id="Shape" fill="#FFF" fill-rule="nonzero"/><path d="M488.336,36.8 C490.511,37.306 499.206,39.755 504.408,41.216 C509.612,42.678 517.368,43.081 518.958,43.352 C520.548,43.622 520.985,42.16 521.644,41.294 C522.3,40.427 531.421,28.624 533.147,27.27 C535.805,25.185 536.707,22.45 533.147,22.667 C529.587,22.883 515.127,26.837 508.659,28.352 C503.389,29.588 490.252,33.93 488.719,34.796 C487.185,35.663 487.093,36.511 488.334,36.8 L488.336,36.8 Z" id="Shape" fill="#000" fill-rule="nonzero"/><path d="M489.79,36.562 C491.825,37.036 499.977,39.332 504.853,40.702 C509.731,42.072 517.001,42.449 518.49,42.702 C519.98,42.957 520.39,41.586 521.008,40.774 C521.624,39.962 528.896,30.794 531.791,27.629 C533.925,25.296 535.791,23.109 532.456,23.314 C529.116,23.516 515.186,27.504 509.124,28.924 C504.186,30.084 492.061,34.056 490.53,34.684 C488.008,35.714 488.625,36.289 489.79,36.561 L489.79,36.562 Z" id="Shape" fill="#FFF" fill-rule="nonzero"/><path d="M501.375,37.562 C502.245,38.862 502.799,39.8 503.187,41.332 C503.573,42.868 503.754,45.368 503.615,46.384 C503.345,48.371 505.987,48.617 506.275,46.681 C506.565,44.725 506.575,42.341 505.902,40.441 C505.087,38.143 504.26,36.565 503.128,36.086 C501.996,35.608 500.798,36.706 501.375,37.563 L501.375,37.562 Z" id="Shape" fill="#000" fill-rule="nonzero"/><path d="M525.738,30.947 C526.61,32.249 527.16,33.184 527.55,34.717 C527.938,36.252 528.115,38.753 527.98,39.767 C527.706,41.755 530.35,42.001 530.64,40.064 C530.93,38.107 530.94,35.722 530.266,33.822 C529.451,31.525 528.623,29.947 527.491,29.468 C526.361,28.988 525.164,30.086 525.741,30.945 L525.739,30.947 L525.738,30.947 Z" id="Shape" fill="#000" fill-rule="nonzero"/><path d="M489.572,52.525 C489.572,52.525 471.554,40.857 461.882,39.458 C454.05,38.323 452.172,48.034 459.582,50.556 C469.72,54.009 489.572,52.526 489.572,52.526 L489.572,52.525 Z" id="Shape" fill="#DDD" fill-rule="nonzero"/><path d="M489.572,55.476 C489.572,55.476 477.402,59.772 471.867,63.224 C465.16,67.404 471.477,77.03 477.639,71.519 C483.799,66.009 489.569,55.474 489.571,55.475 L489.572,55.476 Z" id="Shape" fill="#DDD" fill-rule="nonzero"/><path d="M489.572,52.525 C489.572,52.525 475.594,49.908 468.069,47.895 C461.251,46.072 454.499,42.29 454.499,42.29" id="Shape" stroke="#FFF"/><path d="M489.93,55.076 C489.93,55.076 481.22,62.888 477.504,65.896 L469.882,72.069" id="Shape" stroke="#FFF"/><path d="M464.52,52.842 C464.52,52.842 466.72,52.377 468.07,51.572 C469.83,50.527 471.25,48.584 471.25,48.584" id="Shape" stroke="#FFF"/><path d="M471.25,54.656 C471.25,54.656 473.45,54.19 474.8,53.386 C476.56,52.339 477.982,50.396 477.982,50.396" id="Shape" stroke="#FFF"/><path d="M473.155,40.857 C473.155,40.857 474.648,42.7 475.253,44.239 C476.16,46.551 476.075,49.739 476.075,49.739" id="Shape" stroke="#FFF"/><path d="M476.074,75.5 C476.074,75.5 476.992,73.224 477.178,71.527 C477.418,69.317 476.806,66.907 476.806,66.907" id="Shape" stroke="#FFF"/><path d="M480.985,71.008 C480.985,71.008 481.905,68.731 482.089,67.034 C482.327,64.824 481.714,62.414 481.714,62.414" id="Shape" stroke="#FFF"/><path d="M475.127,67.582 C475.127,67.582 473.25,66.532 471.977,66.329 C470.704,66.124 467.793,66.292 467.793,66.292" id="Shape" stroke="#FFF"/><path d="M479.804,63.825 C479.804,63.825 477.387,62.428 475.807,62.209 C474.331,62.002 471.535,62.021 471.535,62.021" id="Shape" stroke="#FFF"/><path d="M541.934,36.978 C541.934,36.978 549.828,20.752 556.216,15.563 C561.386,11.361 567.033,17.583 562.783,22.607 C556.963,29.484 541.933,36.977 541.933,36.977 L541.934,36.978 Z" id="Shape" fill="#DDD" fill-rule="nonzero"/><path d="M543.237,39.113 C543.237,39.113 553.947,36.973 559.482,37.083 C566.187,37.216 565.862,46.913 558.966,45.583 C552.069,44.25 543.236,39.113 543.236,39.113 L543.237,39.113 Z" id="Shape" fill="#DDD" fill-rule="nonzero"/><path d="M541.934,36.978 C541.934,36.978 550.901,29.048 555.461,24.345 C559.594,20.082 562.814,14.429 562.814,14.429" id="Shape" stroke="#FFF"/><path d="M542.802,38.978 C542.802,38.978 552.559,40.878 556.582,41.452 C560.602,42.026 564.826,42.632 564.826,42.632" id="Shape" stroke="#FFF"/><path d="M564.54,21.56 C564.54,21.56 562.776,22.253 561.45,22.312 C559.723,22.387 557.814,21.672 557.814,21.672" id="Shape" stroke="#FFF"/><path d="M560.214,26.396 C560.214,26.396 558.416,27.008 557.084,27.01 C555.348,27.01 553.459,26.217 553.459,26.217" id="Shape" stroke="#FFF"/><path d="M556.142,30.612 C556.142,30.612 554.345,31.224 553.012,31.225 C551.275,31.227 549.387,30.433 549.387,30.433" id="Shape" stroke="#FFF"/><path d="M557.5,14.327 C557.5,14.327 557.338,15.822 557.54,16.87 C557.845,18.442 558.97,20.188 558.97,20.188" id="Shape" stroke="#FFF"/><path d="M553.29,17.546 C553.29,17.546 553.022,19.526 553.266,20.902 C553.633,22.969 555.1,25.237 555.1,25.237" id="Shape" stroke="#FFF"/><path d="M548.67,21.442 C548.67,21.442 548.4,23.422 548.645,24.796 C549.011,26.864 550.478,29.136 550.478,29.136" id="Shape" stroke="#FFF"/><path d="M561.856,47.79 C561.856,47.79 560.186,46.537 559.302,45.39 C558.152,43.894 557.53,41.884 557.53,41.884" id="Shape" stroke="#FFF"/><path d="M556.317,46.656 C556.317,46.656 554.647,45.406 553.762,44.256 C552.612,42.759 551.99,40.748 551.99,40.748" id="Shape" stroke="#FFF"/><path d="M559.045,41.646 C559.045,41.646 559.941,40.076 560.773,39.378 C561.605,38.682 563.789,37.546 563.789,37.546" id="Shape" stroke="#FFF"/><path d="M554,40.944 C554,40.944 555.134,38.889 556.18,38.05 C557.156,37.265 559.19,36.072 559.19,36.072" id="Shape" stroke="#FFF"/><path d="M511.377,47.39 C508.131,47.39 509.394,52.396 511.814,55.473 C513.518,57.64 517.834,58.963 520.124,58.755 C523.258,58.473 526.114,54.909 527.066,51.901 C528.016,48.895 527.979,47.614 527.92,46.859 C527.824,45.614 525.843,44.231 523.83,45.699 C522.495,46.675 521.552,47.874 518.834,48.029 C515.114,48.244 512.328,47.392 511.377,47.391 L511.377,47.39 Z" id="Shape" fill="#000" fill-rule="nonzero"/><path d="M510.38,49.437 C510.38,49.437 511.953,47.672 517.063,48.297 C519.739,48.623 520.315,48.065 521.261,47.617 C522.205,47.167 522.941,46.809 522.941,46.809 C522.941,46.809 531.621,49.021 537.117,52.479 C540.477,54.596 544.463,58.419 545.234,61.369 C545.689,63.105 545.13,68.163 539.11,66.765 C536.253,66.101 529.79,60.059 525.742,57.425 C520.005,53.688 510.382,49.435 510.382,49.435 L510.38,49.435 L510.38,49.437 Z" id="Shape" fill="#000" fill-rule="nonzero"/><path d="M511.518,49.437 C511.518,49.437 512.99,48.273 517.766,48.855 C520.268,49.161 520.806,48.64 521.689,48.22 C522.569,47.8 523.101,47.307 523.101,47.307 C523.101,47.307 531.374,49.537 536.511,52.769 C539.653,54.745 543.073,58.255 544.397,60.786 C545.247,62.41 544.854,67.543 539.225,66.234 C536.555,65.614 529.451,59.161 525.67,56.7 C520.304,53.207 511.516,49.436 511.516,49.436 L511.518,49.436 L511.518,49.437 Z" id="Shape" fill="#FFF" fill-rule="nonzero"/><path d="M518.835,48.942 C518.835,48.942 523.992,50.769 529.038,53.356 C532.392,55.076 537.578,59.342 537.578,59.342 C537.578,59.342 534.288,55.666 529.618,53.025 C526.83,51.45 520.048,48.628 520.048,48.628 L518.833,48.942 L518.835,48.942 Z" id="Shape" fill="#000" fill-rule="nonzero"/><path d="M1390.557,462.347 C1390.557,462.347 1384.084,444.357 1377.983,438.187 C1373.043,433.191 1366.463,439.157 1370.356,444.919 C1375.68,452.809 1390.556,462.345 1390.556,462.346 L1390.557,462.347 Z" id="Shape" fill="#DDD" fill-rule="nonzero"/><path d="M1390.557,462.347 C1390.557,462.347 1382.061,453.005 1377.813,447.542 C1373.961,442.595 1371.215,436.272 1371.215,436.272" id="Shape" stroke="#FFF"/><path d="M1376.77502,436.742 C1376.77502,436.742 1376.78101,438.338 1376.45501,439.424 C1375.965,441.054 1374.602,442.777 1374.602,442.777" id="Shape" stroke="#FFF"/><path d="M1491.885,405.794 C1490.862,405.519 1478.051,399.014 1464.311,394.057 C1450.371,389.031 1435.495,385.547 1434.681,385.45 C1433.071,385.25 1433.171,386.556 1433.575,387.26 C1433.635,387.365 1433.635,387.37 1434.102,388.013 C1428.787,399.325 1425.052,426.267 1424.562,427.943 C1424.042,429.73 1423.15,429.693 1425.605,430.961 C1426.773,431.564 1437.97,436.608 1450.027,440.524 C1463.322,444.846 1477.567,448.057 1478.404,448.294 C1480.004,448.738 1480.6,448.704 1480.749,446.954 C1480.899,445.206 1481.675,427.164 1490.829,410.451 C1491.917,408.466 1492.819,406.931 1492.819,406.931 L1492.733,406.908 C1492.993,406.451 1492.783,406.036 1491.888,405.795 L1491.885,405.794 Z M1435.707,386.534 C1436.731,386.824 1450.95,390.524 1464.087,395.299 C1477.287,400.096 1489.407,405.969 1490.344,406.165 C1492.7,406.659 1490.541,407.532 1488.266,408.183 C1486.504,408.685 1458.442,410.113 1456.12,411.011 C1454.317,411.711 1453.66,411.011 1453.12,410.201 C1452.58,409.388 1435.782,388.736 1435.42,388.105 C1435.06,387.477 1434.31,386.135 1435.708,386.531 L1435.708,386.533 L1435.707,386.534 Z M1489.881,410.221 C1481.854,420.451 1480.227,440.335 1480.081,446.124 C1480.041,447.812 1479.253,447.729 1477.711,447.304 C1476.903,447.076 1463.521,443.501 1450.628,439.296 C1438.942,435.484 1427.665,431.026 1426.54,430.443 C1424.174,429.223 1425.19,429.308 1425.692,427.589 C1426.172,425.939 1430.178,401.257 1434.778,388.767 C1437.916,393.027 1452.088,410.391 1452.574,411.12 C1453.178,412.022 1453.912,412.807 1455.928,412.022 C1458.522,411.015 1487.852,409.112 1489.821,408.548 C1490.316,408.406 1490.771,408.236 1491.173,408.054 C1490.829,408.601 1490.505,409.426 1489.88,410.222 L1489.881,410.221 Z" id="Shape" fill="#000" fill-rule="nonzero"/><path d="M1444.16,394.63 C1443.69,395.854 1440.86,404.32 1440.672,406.12 C1440.484,407.923 1440.635,409.87 1442.159,409.87 C1443.319,409.87 1443.289,407.786 1444.685,402.476 C1445.681,398.693 1446.722,396.683 1447.167,395.686 C1447.617,394.691 1444.697,393.234 1444.16,394.63 Z" id="Shape" fill="#000" fill-rule="nonzero"/><path d="M1474.582,405.456 C1474.112,406.679 1471.282,415.146 1471.092,416.946 C1470.902,418.749 1471.052,420.696 1472.58,420.696 C1473.74,420.696 1473.71,418.612 1475.106,413.301 C1476.102,409.517 1477.141,407.509 1477.588,406.511 C1478.038,405.516 1475.118,404.059 1474.578,405.456 L1474.582,405.456 Z" id="Shape" fill="#000" fill-rule="nonzero"/><path d="M1424.195,407.14 C1424.195,407.14 1418.687,380.825 1411.392,371.044 C1405.486,363.12 1395.162,370.148 1399.455,378.934 C1405.335,390.962 1424.195,407.139 1424.195,407.14 Z" id="Shape" fill="#DDD" fill-rule="nonzero"/><path d="M1421.562,409.774 C1421.562,409.774 1406.98,402.884 1399.012,401.086 C1389.357,398.906 1386.352,413.078 1396.705,413.588 C1407.068,414.098 1421.562,409.774 1421.562,409.774 Z" id="Shape" fill="#DDD" fill-rule="nonzero"/><path d="M1424.195,407.14 C1424.195,407.14 1414.183,392.474 1409.332,384.04 C1404.935,376.398 1402.342,367.06 1402.342,367.06" id="Shape" stroke="#FFF"/><path d="M1422.234,409.733 C1422.234,409.733 1407.572,409.036 1401.607,408.448 C1395.634,407.856 1389.365,407.238 1389.365,407.238" id="Shape" stroke="#FFF"/><path d="M1397.314,376.795 C1397.314,376.795 1399.597,378.421 1401.478,378.975 C1403.925,379.695 1406.916,379.337 1406.916,379.337" id="Shape" stroke="#FFF"/><path d="M1401.78,385.332 C1401.78,385.332 1404.142,386.858 1406.05,387.326 C1408.54,387.943 1411.53,387.461 1411.53,387.461" id="Shape" stroke="#FFF"/><path d="M1406.11,392.887 C1406.11,392.887 1408.466,394.41 1410.378,394.884 C1412.868,395.498 1415.858,395.016 1415.858,395.016" id="Shape" stroke="#FFF"/><path d="M1409.993,368.797 C1409.993,368.797 1409.688,371.022 1409.023,372.469 C1408.023,374.639 1405.786,376.774 1405.786,376.774" id="Shape" stroke="#FFF"/><path d="M1414.875,374.954 C1414.875,374.954 1414.549,377.918 1413.707,379.827 C1412.444,382.697 1409.527,385.467 1409.527,385.467" id="Shape" stroke="#FFF"/><path d="M1420.102,382.236 C1420.102,382.236 1419.778,385.196 1418.938,387.109 C1417.674,389.973 1414.756,392.749 1414.756,392.749" id="Shape" stroke="#FFF"/><path d="M1391.777,415.77 C1391.777,415.77 1394.617,414.544 1396.297,413.19 C1398.482,411.433 1400.093,408.735 1400.093,408.735" id="Shape" stroke="#FFF"/><path d="M1400.116,416.086 C1400.116,416.086 1402.963,414.86 1404.639,413.508 C1406.819,411.743 1408.433,409.048 1408.433,409.048" id="Shape" stroke="#FFF"/><path d="M1398.002,407.858 C1398.002,407.858 1397.282,405.258 1396.336,403.958 C1395.39,402.658 1392.672,400.24 1392.672,400.24" id="Shape" stroke="#FFF"/><path d="M1405.484,408.622 C1405.484,408.622 1404.597,405.242 1403.398,403.655 C1402.278,402.17 1399.788,399.725 1399.788,399.725" id="Shape" stroke="#FFF"/><path d="M1465.45,424.842 C1459.96,424.062 1452.56,421.968 1448.66,419.78 C1443.22,416.725 1442.817,414.956 1440.196,415.66 C1435.384,416.948 1443.256,429.03 1444.983,430.663 C1446.708,432.296 1450.911,435.313 1455.596,435.053 C1460.518,434.779 1465.473,430.455 1466.903,429.22 C1468.333,427.986 1469.84,425.467 1465.449,424.842 L1465.45,424.842 Z M1454.872,434.162 C1451.319,434.115 1446.266,431.525 1444.198,428.112 C1444.443,427.292 1448.623,426.272 1452.758,427.082 C1456.894,427.888 1460.308,430.68 1461.208,432.218 C1459.675,433.438 1457.541,434.195 1454.872,434.162 Z" id="Shape" fill="#000" fill-rule="nonzero"/><path d="M1441.857,171.76 L1458.967,204.662 C1458.967,204.662 1474.377,200.282 1485.614,194.462 C1498.41,187.838 1507.246,177.602 1507.246,177.602 C1507.246,177.602 1501.131,171.23 1497.142,165.83 C1492.496,159.543 1488.246,147.415 1488.246,147.415 L1441.856,171.76 L1441.857,171.76 Z" id="Shape" stroke="#000" fill="#FFF" fill-rule="nonzero"/><path d="M1475.825,173.024 C1472.651,174.647 1441.518,173.394 1440.285,172.16 C1439.053,170.926 1453.045,162.744 1464.263,156.968 C1478.71,149.528 1486.02,145.85 1487.237,145.4 C1488.454,144.95 1489.511,145.858 1488.665,147.414 C1487.818,148.971 1479,171.402 1475.825,173.024 Z" id="Shape" stroke="#000" fill="#FFF" fill-rule="nonzero"/><path d="M1467.932,185.06 C1468.052,187.224 1469.752,190.186 1472.864,191.237 C1476.379,192.423 1484.719,190.913 1486.481,185.339 C1487.501,182.109 1487.031,180.241 1486.401,178.399 C1485.721,176.399 1483.526,175.735 1482.177,177.409 C1480.87,179.032 1479.874,180.854 1477.03,181.854 C1474.8,182.636 1472.18,182.75 1469.994,182.75 C1467.809,182.75 1467.934,185.06 1467.934,185.06 L1467.932,185.06 Z" id="Shape" fill="#000" fill-rule="nonzero"/><path d="M1453.673,172.748 C1454.207,174.92 1457.445,180.334 1458.953,181.408 C1460.465,182.478 1462.213,181.408 1460.763,179.798 C1459.291,178.17 1457.609,175.445 1456.451,172.988 C1455.041,169.988 1452.998,170.008 1453.674,172.748 L1453.673,172.748 Z" id="Shape" fill="#000" fill-rule="nonzero"/><path d="M1458.797,184.782 C1459.682,185.667 1460.723,186.108 1462.102,185.776 C1462.728,185.626 1463.682,184.778 1463.682,183.67" id="Shape" stroke="#000"/><path d="M1450.587,194.987 C1450.587,194.987 1410.463,179.301 1411.777,195.407 C1412.617,205.707 1450.587,194.987 1450.587,194.987 Z" id="Shape" fill="#DADADA" fill-rule="nonzero"/><path d="M1451.932,196.92 C1451.932,196.92 1428.215,211.427 1436.559,215.398 C1448.819,221.234 1451.929,196.918 1451.929,196.918 L1451.931,196.92 L1451.932,196.92 Z" id="Shape" fill="#DADADA" fill-rule="nonzero"/><path d="M1527.047,242.635 C1527.047,242.635 1468.937,225.865 1469.055,242.635 C1469.173,259.407 1527.047,242.635 1527.047,242.635 Z" id="Shape" fill="#DADADA" fill-rule="nonzero"/><path d="M1450.312,195.018 L1450.42,195.018" id="Shape" stroke="#FFF"/><path d="M1411.605,194.803 C1411.605,194.923 1429.013,195.018 1450.527,195.018" id="Shape" stroke="#FFF"/><path d="M1421.31,194.695 C1421.31,190.702 1418.657,187.471 1415.38,187.471" id="Shape" stroke="#FFF"/><path d="M1429.61,194.48 C1429.61,190.486 1427.97,187.255 1425.945,187.255" id="Shape" stroke="#FFF"/><path d="M1438.99,194.48 C1438.99,191.44 1437.736,188.98 1436.187,188.98" id="Shape" stroke="#FFF"/><path d="M1417.428,195.234 C1417.428,197.677 1415.595,199.654 1413.328,199.654" id="Shape" stroke="#FFF"/><path d="M1426.053,195.45 C1426.053,198.13 1424.703,200.3 1423.033,200.3" id="Shape" stroke="#FFF"/><path d="M1435.54,195.234 C1435.54,197.439 1434.48,199.224 1433.168,199.224" id="Shape" stroke="#FFF"/><path d="M1451.713,196.85 L1437.051,216.366" id="Shape" stroke="#FFF"/><path d="M1527.616,242.35 L1467.346,242.24" id="Shape" stroke="#FFF"/><path d="M1446.16,203.788 C1446.16,203.448 1444.166,203.17 1441.7,203.17" id="Shape" stroke="#FFF"/><path d="M1441.7,209.553 C1441.7,209.25 1438.877,209.003 1435.387,209.003" id="Shape" stroke="#FFF"/><path d="M1441.29,211.063 C1441.29,214.136 1441.78,216.623 1442.387,216.623" id="Shape" stroke="#FFF"/><path d="M1445.338,206.053 C1445.338,209.505 1446.228,212.299 1447.328,212.299" id="Shape" stroke="#FFF"/><path d="M1480.404,241.977 C1480.404,238.685 1476.914,236.021 1472.596,236.021" id="Shape" stroke="#FFF"/><path d="M1476.17,242.638 C1476.17,246.003 1473.092,248.725 1469.287,248.725" id="Shape" stroke="#FFF"/></g></g></g></svg>