<svg height="380" viewBox="0 0 526 380" width="526" xmlns="http://www.w3.org/2000/svg"><path d="m525.975 135c-.268 11.088-9.32 20-20.475 20-.168 0-.332-.02-.5-.025v.025h-484v-.025c-.167.004-.33.025-.5.025-11.15 0-20.205-8.912-20.473-20h-.027l.014 47c.27 29.314 24.107 53 53.487 53h190.499v.014c.085-.002.167-.014.25-.014 8.83 0 16.134 6.454 17.5 14.896 1.355-8.36 8.535-14.765 17.25-14.886v-.01h193.5c29.38 0 53.22-23.686 53.488-53l.012-47z" fill="#00aaab"/><g fill="#989898"><path d="m24.5 46h-.5v35h72v-35zm69.5 33h-68v-31h68z"/><path d="m103 91.5v-47.5a5 5 0 0 0 -5-5h-76a5 5 0 0 0 -5 5v50a5 5 0 0 0 5 5h30.143l-1.964 11h-2.679a2.5 2.5 0 0 0 -2.5 2.5v5a2.5 2.5 0 0 0 2.5 2.5h27a2.5 2.5 0 0 0 2.5-2.5v-5a2.5 2.5 0 0 0 -2.5-2.5h-2.68l-1.963-11h28.143a5 5 0 0 0 5-5zm-30.95 21.5h1.95v4h-26v-4zm-18.37-3 1.964-11h10.714l1.964 11zm46.32-63.5v47.5a2 2 0 0 1 -2 2h-76a2 2 0 0 1 -2-2v-50a2 2 0 0 1 2-2h76a2 2 0 0 1 2 2z"/></g><path d="m58 86h5v5h-5z" fill="#00cacb"/><g fill="#989898"><path d="m130.5 46h-.5v35h72v-35zm69.5 33h-68v-31h68z"/><path d="m209 91.5v-47.5a5 5 0 0 0 -5-5h-76a5 5 0 0 0 -5 5v50a5 5 0 0 0 5 5h30.143l-1.964 11h-2.68a2.5 2.5 0 0 0 -2.5 2.5v5a2.5 2.5 0 0 0 2.5 2.5h27a2.5 2.5 0 0 0 2.5-2.5v-5a2.5 2.5 0 0 0 -2.5-2.5h-2.68l-1.963-11h28.144a5 5 0 0 0 5-5zm-30.95 21.5h1.95v4h-26v-4zm-18.37-3 1.964-11h10.714l1.964 11zm46.32-63.5v47.5a2 2 0 0 1 -2 2h-76a2 2 0 0 1 -2-2v-50a2 2 0 0 1 2-2h76a2 2 0 0 1 2 2z"/></g><path d="m164 86h5v5h-5z" fill="#00cacb"/><g fill="#989898"><path d="m236.5 46h-.5v35h72v-35zm69.5 33h-68v-31h68z"/><path d="m315 91.5v-47.5a5 5 0 0 0 -5-5h-76a5 5 0 0 0 -5 5v50a5 5 0 0 0 5 5h30.143l-1.962 11h-2.678a2.5 2.5 0 0 0 -2.5 2.5v5a2.5 2.5 0 0 0 2.5 2.5h26.997a2.5 2.5 0 0 0 2.5-2.5v-5a2.5 2.5 0 0 0 -2.5-2.5h-2.678l-1.965-11h28.143a5 5 0 0 0 5-5zm-30.95 21.5h1.95v4h-26v-4zm-18.37-3 1.963-11h10.715l1.966 11zm46.32-63.5v47.5a2 2 0 0 1 -2 2h-76a2 2 0 0 1 -2-2v-50a2 2 0 0 1 2-2h76a2 2 0 0 1 2 2z"/></g><path d="m270 86h5v5h-5z" fill="#00cacb"/><g fill="#00cacb"><circle cx="26.501" cy="104.5" r="1.5"/><circle cx="26.501" cy="109.5" r="1.5"/><circle cx="26.501" cy="114.5" r="1.5"/><circle cx="26.501" cy="119.5" r="1.5"/><circle cx="26.501" cy="124.5" r="1.5"/><circle cx="26.501" cy="129.5" r="1.5"/><circle cx="26.501" cy="134.5" r="1.5"/><circle cx="26.501" cy="139.5" r="1.5"/><path d="m26.5 147 3.5-4h-7z"/><circle cx="49.501" cy="124.5" r="1.5"/><circle cx="49.501" cy="129.5" r="1.5"/><circle cx="49.501" cy="134.5" r="1.5"/><circle cx="49.501" cy="139.5" r="1.5"/><path d="m49.5 147 3.5-4h-7z"/><circle cx="72.501" cy="124.5" r="1.5"/><circle cx="72.501" cy="129.5" r="1.5"/><circle cx="72.501" cy="134.5" r="1.5"/><circle cx="72.501" cy="139.5" r="1.5"/><path d="m72.5 147 3.5-4h-7z"/><circle cx="95.501" cy="104.5" r="1.5"/><circle cx="95.501" cy="109.5" r="1.5"/><circle cx="95.501" cy="114.5" r="1.5"/><circle cx="95.501" cy="119.5" r="1.5"/><circle cx="95.501" cy="124.5" r="1.5"/><circle cx="95.501" cy="129.5" r="1.5"/><circle cx="95.501" cy="134.5" r="1.5"/><circle cx="95.501" cy="139.5" r="1.5"/><path d="m92 143 3.5 4 3.5-4z"/></g><g fill="#00cacb"><circle cx="131.501" cy="104.5" r="1.5"/><circle cx="131.501" cy="109.5" r="1.5"/><circle cx="131.501" cy="114.5" r="1.5"/><circle cx="131.501" cy="119.5" r="1.5"/><circle cx="131.501" cy="124.5" r="1.5"/><circle cx="131.501" cy="129.5" r="1.5"/><circle cx="131.501" cy="134.5" r="1.5"/><circle cx="131.501" cy="139.5" r="1.5"/><path d="m131.5 147 3.5-4h-7z"/><circle cx="154.501" cy="124.5" r="1.5"/><circle cx="154.501" cy="129.5" r="1.5"/><circle cx="154.501" cy="134.5" r="1.5"/><circle cx="154.501" cy="139.5" r="1.5"/><path d="m154.5 147 3.5-4h-7z"/><circle cx="177.501" cy="124.5" r="1.5"/><circle cx="177.501" cy="129.5" r="1.5"/><circle cx="177.501" cy="134.5" r="1.5"/><circle cx="177.501" cy="139.5" r="1.5"/><path d="m177.5 147 3.5-4h-7z"/><circle cx="200.501" cy="104.5" r="1.5"/><circle cx="200.501" cy="109.5" r="1.5"/><circle cx="200.501" cy="114.5" r="1.5"/><circle cx="200.501" cy="119.5" r="1.5"/><circle cx="200.501" cy="124.5" r="1.5"/><circle cx="200.501" cy="129.5" r="1.5"/><circle cx="200.501" cy="134.5" r="1.5"/><circle cx="200.501" cy="139.5" r="1.5"/><path d="m197 143 3.5 4 3.5-4z"/></g><g fill="#00cacb"><circle cx="238.501" cy="104.5" r="1.5"/><circle cx="238.501" cy="109.5" r="1.5"/><circle cx="238.501" cy="114.5" r="1.5"/><circle cx="238.501" cy="119.5" r="1.5"/><circle cx="238.501" cy="124.5" r="1.5"/><circle cx="238.501" cy="129.5" r="1.5"/><circle cx="238.501" cy="134.5" r="1.5"/><circle cx="238.501" cy="139.5" r="1.5"/><path d="m238.5 147 3.5-4h-7z"/><circle cx="261.501" cy="124.5" r="1.5"/><circle cx="261.501" cy="129.5" r="1.5"/><circle cx="261.501" cy="134.5" r="1.5"/><circle cx="261.501" cy="139.5" r="1.5"/><path d="m261.5 147 3.5-4h-7z"/><circle cx="284.5" cy="124.5" r="1.5"/><circle cx="284.5" cy="129.5" r="1.5"/><circle cx="284.5" cy="134.5" r="1.5"/><circle cx="284.5" cy="139.5" r="1.5"/><path d="m284.5 147 3.5-4h-7z"/><circle cx="307.5" cy="104.5" r="1.5"/><circle cx="307.5" cy="109.5" r="1.5"/><circle cx="307.5" cy="114.5" r="1.5"/><circle cx="307.5" cy="119.5" r="1.5"/><circle cx="307.5" cy="124.5" r="1.5"/><circle cx="307.5" cy="129.5" r="1.5"/><circle cx="307.5" cy="134.5" r="1.5"/><circle cx="307.5" cy="139.5" r="1.5"/><path d="m304 143 3.5 4 3.5-4z"/></g><g fill="#00cacb"><circle cx="412.5" cy="124.5" r="1.5"/><circle cx="412.5" cy="129.5" r="1.5"/><circle cx="412.5" cy="134.5" r="1.5"/><circle cx="412.5" cy="139.5" r="1.5"/><path d="m412.5 147 3.5-4h-7z"/><circle cx="435.5" cy="124.5" r="1.5"/><circle cx="435.5" cy="129.5" r="1.5"/><circle cx="435.5" cy="134.5" r="1.5"/><circle cx="435.5" cy="139.5" r="1.5"/><path d="m432 143 3.5 4 3.5-4z"/></g><g fill="#00cacb"><circle cx="475.5" cy="124.5" r="1.5"/><circle cx="475.5" cy="129.5" r="1.5"/><circle cx="475.5" cy="134.5" r="1.5"/><circle cx="475.5" cy="139.5" r="1.5"/><path d="m475.5 147 3.5-4h-7z"/><circle cx="498.5" cy="124.5" r="1.5"/><circle cx="498.5" cy="129.5" r="1.5"/><circle cx="498.5" cy="134.5" r="1.5"/><circle cx="498.5" cy="139.5" r="1.5"/><path d="m495 143 3.5 4 3.5-4z"/></g><g fill="#989898"><path d="m377 39h-33a5 5 0 0 0 -5 5v71a5 5 0 0 0 5 5h33a5 5 0 0 0 5-5v-71a5 5 0 0 0 -5-5zm2 7.5v68.5a2 2 0 0 1 -2 2h-33a2 2 0 0 1 -2-2v-71a2 2 0 0 1 2-2h33a2 2 0 0 1 2 2z"/><path d="m372 47h-25v8h27v-8zm0 6h-23v-4h23z"/><path d="m372 59h-25v8h27v-8zm0 6h-23v-4h23z"/><path d="m372 71h-25v8h27v-8zm0 6h-23v-4h23z"/></g><g fill="#989898"><path d="m441 38.5h-33a5 5 0 0 0 -5 5v71a5 5 0 0 0 5 5h33a5 5 0 0 0 5-5v-71a5 5 0 0 0 -5-5zm2 7.5v68.5a2 2 0 0 1 -2 2h-33a2 2 0 0 1 -2-2v-71a2 2 0 0 1 2-2h33a2 2 0 0 1 2 2z"/><path d="m436 46.5h-25v8h27v-8zm0 6h-23v-4h23z"/><path d="m436 58.5h-25v8h27v-8zm0 6h-23v-4h23z"/><path d="m436 70.5h-25v8h27v-8zm0 6h-23v-4h23z"/></g><g fill="#989898"><path d="m504 39h-33a5 5 0 0 0 -5 5v71a5 5 0 0 0 5 5h33a5 5 0 0 0 5-5v-71a5 5 0 0 0 -5-5zm2 7.5v68.5a2 2 0 0 1 -2 2h-33a2 2 0 0 1 -2-2v-71a2 2 0 0 1 2-2h33a2 2 0 0 1 2 2z"/><path d="m499 47h-25v8h27v-8zm0 6h-23v-4h23z"/><path d="m499 59h-25v8h27v-8zm0 6h-23v-4h23z"/><path d="m499 71h-25v8h27v-8zm0 6h-23v-4h23z"/></g><g fill="#00cacb"><circle cx="349.5" cy="124.5" r="1.5"/><circle cx="349.5" cy="129.5" r="1.5"/><circle cx="349.5" cy="134.5" r="1.5"/><circle cx="349.5" cy="139.5" r="1.5"/><path d="m349.5 147 3.5-4h-7z"/><circle cx="372.5" cy="129.5" r="1.5"/><circle cx="372.5" cy="134.5" r="1.5"/><circle cx="372.5" cy="139.5" r="1.5"/><path d="m369 143 3.5 4 3.5-4z"/><circle cx="372.5" cy="124.5" r="1.5"/></g><path d="m347 86h5v5h-5z" fill="#00cacb"/><path d="m411 86h5v5h-5z" fill="#00cacb"/><path d="m474 86h5v5h-5z" fill="#00cacb"/><path d="m33 169h-12a2 2 0 0 0 -2 2v8a2 2 0 0 0 2 2h12a2 2 0 0 0 2-2v-8a2 2 0 0 0 -2-2zm-.31 2c-1.203 1.45-3.457 4.023-4.69 4.5-.232.09-1.766.09-2 0-1.23-.477-3.485-3.05-4.69-4.5zm-11.69 8v-6.44c1.08 1.188 3.652 3.92 5 4.44.234.09 1.768.09 2 0 1.35-.52 3.923-3.252 5-4.44v6.44z" fill="#fff"/><path d="m33 188h-12a2 2 0 0 0 -2 2v8a2 2 0 0 0 2 2h12a2 2 0 0 0 2-2v-8a2 2 0 0 0 -2-2zm-.31 2c-1.203 1.45-3.457 4.023-4.69 4.5-.232.09-1.766.09-2 0-1.23-.477-3.485-3.05-4.69-4.5zm-11.69 8v-6.44c1.08 1.19 3.652 3.92 5 4.44.234.09 1.768.09 2 0 1.35-.52 3.923-3.252 5-4.44v6.44z" fill="#fff"/><path d="m56 169h-12a2 2 0 0 0 -2 2v8a2 2 0 0 0 2 2h12a2 2 0 0 0 2-2v-8a2 2 0 0 0 -2-2zm-.31 2c-1.203 1.45-3.457 4.023-4.69 4.5-.232.09-1.766.09-2 0-1.23-.477-3.485-3.05-4.69-4.5zm-11.69 8v-6.44c1.08 1.188 3.652 3.92 5 4.44.234.09 1.768.09 2 0 1.35-.52 3.923-3.252 5-4.44v6.44z" fill="#fff"/><path d="m56 188h-12a2 2 0 0 0 -2 2v8a2 2 0 0 0 2 2h12a2 2 0 0 0 2-2v-8a2 2 0 0 0 -2-2zm-.31 2c-1.203 1.45-3.457 4.023-4.69 4.5-.232.09-1.766.09-2 0-1.23-.477-3.485-3.05-4.69-4.5zm-11.69 8v-6.44c1.08 1.19 3.652 3.92 5 4.44.234.09 1.768.09 2 0 1.35-.52 3.923-3.252 5-4.44v6.44z" fill="#fff"/><path d="m56 207h-12a2 2 0 0 0 -2 2v8a2 2 0 0 0 2 2h12a2 2 0 0 0 2-2v-8a2 2 0 0 0 -2-2zm-.31 2c-1.203 1.45-3.457 4.023-4.69 4.5-.232.09-1.766.09-2 0-1.23-.477-3.485-3.05-4.69-4.5zm-11.69 8v-6.44c1.08 1.19 3.652 3.92 5 4.44.234.09 1.768.09 2 0 1.35-.52 3.923-3.252 5-4.44v6.44z" fill="#fff"/><path d="m79 169h-12a2 2 0 0 0 -2 2v8a2 2 0 0 0 2 2h12a2 2 0 0 0 2-2v-8a2 2 0 0 0 -2-2zm-.31 2c-1.203 1.45-3.457 4.023-4.69 4.5-.232.09-1.766.09-2 0-1.23-.477-3.485-3.05-4.69-4.5zm-11.69 8v-6.44c1.08 1.188 3.652 3.92 5 4.44.234.09 1.768.09 2 0 1.35-.52 3.923-3.252 5-4.44v6.44z" fill="#fff"/><path d="m79 188h-12a2 2 0 0 0 -2 2v8a2 2 0 0 0 2 2h12a2 2 0 0 0 2-2v-8a2 2 0 0 0 -2-2zm-.31 2c-1.203 1.45-3.457 4.023-4.69 4.5-.232.09-1.766.09-2 0-1.23-.477-3.485-3.05-4.69-4.5zm-11.69 8v-6.44c1.08 1.19 3.652 3.92 5 4.44.234.09 1.768.09 2 0 1.35-.52 3.923-3.252 5-4.44v6.44z" fill="#fff"/><path d="m79 207h-12a2 2 0 0 0 -2 2v8a2 2 0 0 0 2 2h12a2 2 0 0 0 2-2v-8a2 2 0 0 0 -2-2zm-.31 2c-1.203 1.45-3.457 4.023-4.69 4.5-.232.09-1.766.09-2 0-1.23-.477-3.485-3.05-4.69-4.5zm-11.69 8v-6.44c1.08 1.19 3.652 3.92 5 4.44.234.09 1.768.09 2 0 1.35-.52 3.923-3.252 5-4.44v6.44z" fill="#fff"/><path d="m102 169h-12a2 2 0 0 0 -2 2v8a2 2 0 0 0 2 2h12a2 2 0 0 0 2-2v-8a2 2 0 0 0 -2-2zm-.31 2c-1.203 1.45-3.457 4.023-4.69 4.5-.232.09-1.766.09-2 0-1.23-.477-3.485-3.05-4.69-4.5zm-11.69 8v-6.44c1.08 1.188 3.652 3.92 5 4.44.234.09 1.768.09 2 0 1.35-.52 3.923-3.252 5-4.44v6.44z" fill="#fff"/><path d="m102 188h-12a2 2 0 0 0 -2 2v8a2 2 0 0 0 2 2h12a2 2 0 0 0 2-2v-8a2 2 0 0 0 -2-2zm-.31 2c-1.203 1.45-3.457 4.023-4.69 4.5-.232.09-1.766.09-2 0-1.23-.477-3.485-3.05-4.69-4.5zm-11.69 8v-6.44c1.08 1.19 3.652 3.92 5 4.44.234.09 1.768.09 2 0 1.35-.52 3.923-3.252 5-4.44v6.44z" fill="#fff"/><path d="m102 207h-12a2 2 0 0 0 -2 2v8a2 2 0 0 0 2 2h12a2 2 0 0 0 2-2v-8a2 2 0 0 0 -2-2zm-.31 2c-1.203 1.45-3.457 4.023-4.69 4.5-.232.09-1.766.09-2 0-1.23-.477-3.485-3.05-4.69-4.5zm-11.69 8v-6.44c1.08 1.19 3.652 3.92 5 4.44.234.09 1.768.09 2 0 1.35-.52 3.923-3.252 5-4.44v6.44z" fill="#fff"/><path d="m138 169h-12a2 2 0 0 0 -2 2v8a2 2 0 0 0 2 2h12a2 2 0 0 0 2-2v-8a2 2 0 0 0 -2-2zm-.31 2c-1.203 1.45-3.457 4.023-4.69 4.5-.232.09-1.766.09-2 0-1.23-.477-3.485-3.05-4.69-4.5zm-11.69 8v-6.44c1.08 1.188 3.652 3.92 5 4.44.234.09 1.768.09 2 0 1.35-.52 3.923-3.252 5-4.44v6.44z" fill="#fff"/><path d="m138 188h-12a2 2 0 0 0 -2 2v8a2 2 0 0 0 2 2h12a2 2 0 0 0 2-2v-8a2 2 0 0 0 -2-2zm-.31 2c-1.203 1.45-3.457 4.023-4.69 4.5-.232.09-1.766.09-2 0-1.23-.477-3.485-3.05-4.69-4.5zm-11.69 8v-6.44c1.08 1.19 3.652 3.92 5 4.44.234.09 1.768.09 2 0 1.35-.52 3.923-3.252 5-4.44v6.44z" fill="#fff"/><path d="m138 207h-12a2 2 0 0 0 -2 2v8a2 2 0 0 0 2 2h12a2 2 0 0 0 2-2v-8a2 2 0 0 0 -2-2zm-.31 2c-1.203 1.45-3.457 4.023-4.69 4.5-.232.09-1.766.09-2 0-1.23-.477-3.485-3.05-4.69-4.5zm-11.69 8v-6.44c1.08 1.19 3.652 3.92 5 4.44.234.09 1.768.09 2 0 1.35-.52 3.923-3.252 5-4.44v6.44z" fill="#fff"/><path d="m161 169h-12a2 2 0 0 0 -2 2v8a2 2 0 0 0 2 2h12a2 2 0 0 0 2-2v-8a2 2 0 0 0 -2-2zm-.31 2c-1.203 1.45-3.457 4.023-4.69 4.5-.232.09-1.766.09-2 0-1.23-.477-3.485-3.05-4.69-4.5zm-11.69 8v-6.44c1.08 1.188 3.652 3.92 5 4.44.234.09 1.768.09 2 0 1.35-.52 3.923-3.252 5-4.44v6.44z" fill="#fff"/><path d="m161 188h-12a2 2 0 0 0 -2 2v8a2 2 0 0 0 2 2h12a2 2 0 0 0 2-2v-8a2 2 0 0 0 -2-2zm-.31 2c-1.203 1.45-3.457 4.023-4.69 4.5-.232.09-1.766.09-2 0-1.23-.477-3.485-3.05-4.69-4.5zm-11.69 8v-6.44c1.08 1.19 3.652 3.92 5 4.44.234.09 1.768.09 2 0 1.35-.52 3.923-3.252 5-4.44v6.44z" fill="#fff"/><path d="m161 207h-12a2 2 0 0 0 -2 2v8a2 2 0 0 0 2 2h12a2 2 0 0 0 2-2v-8a2 2 0 0 0 -2-2zm-.31 2c-1.203 1.45-3.457 4.023-4.69 4.5-.232.09-1.766.09-2 0-1.23-.477-3.485-3.05-4.69-4.5zm-11.69 8v-6.44c1.08 1.19 3.652 3.92 5 4.44.234.09 1.768.09 2 0 1.35-.52 3.923-3.252 5-4.44v6.44z" fill="#fff"/><path d="m184 169h-12a2 2 0 0 0 -2 2v8a2 2 0 0 0 2 2h12a2 2 0 0 0 2-2v-8a2 2 0 0 0 -2-2zm-.31 2c-1.203 1.45-3.457 4.023-4.69 4.5-.232.09-1.766.09-2 0-1.23-.477-3.485-3.05-4.69-4.5zm-11.69 8v-6.44c1.08 1.188 3.652 3.92 5 4.44.234.09 1.768.09 2 0 1.35-.52 3.923-3.252 5-4.44v6.44z" fill="#fff"/><path d="m184 188h-12a2 2 0 0 0 -2 2v8a2 2 0 0 0 2 2h12a2 2 0 0 0 2-2v-8a2 2 0 0 0 -2-2zm-.31 2c-1.203 1.45-3.457 4.023-4.69 4.5-.232.09-1.766.09-2 0-1.23-.477-3.485-3.05-4.69-4.5zm-11.69 8v-6.44c1.08 1.19 3.652 3.92 5 4.44.234.09 1.768.09 2 0 1.35-.52 3.923-3.252 5-4.44v6.44z" fill="#fff"/><path d="m184 207h-12a2 2 0 0 0 -2 2v8a2 2 0 0 0 2 2h12a2 2 0 0 0 2-2v-8a2 2 0 0 0 -2-2zm-.31 2c-1.203 1.45-3.457 4.023-4.69 4.5-.232.09-1.766.09-2 0-1.23-.477-3.485-3.05-4.69-4.5zm-11.69 8v-6.44c1.08 1.19 3.652 3.92 5 4.44.234.09 1.768.09 2 0 1.35-.52 3.923-3.252 5-4.44v6.44z" fill="#fff"/><path d="m207 169h-12a2 2 0 0 0 -2 2v8a2 2 0 0 0 2 2h12a2 2 0 0 0 2-2v-8a2 2 0 0 0 -2-2zm-.31 2c-1.203 1.45-3.457 4.023-4.69 4.5-.232.09-1.766.09-2 0-1.23-.477-3.485-3.05-4.69-4.5zm-11.69 8v-6.44c1.08 1.188 3.652 3.92 5 4.44.234.09 1.768.09 2 0 1.35-.52 3.923-3.252 5-4.44v6.44z" fill="#fff"/><path d="m207 188h-12a2 2 0 0 0 -2 2v8a2 2 0 0 0 2 2h12a2 2 0 0 0 2-2v-8a2 2 0 0 0 -2-2zm-.31 2c-1.203 1.45-3.457 4.023-4.69 4.5-.232.09-1.766.09-2 0-1.23-.477-3.485-3.05-4.69-4.5zm-11.69 8v-6.44c1.08 1.19 3.652 3.92 5 4.44.234.09 1.768.09 2 0 1.35-.52 3.923-3.252 5-4.44v6.44z" fill="#fff"/><path d="m207 207h-12a2 2 0 0 0 -2 2v8a2 2 0 0 0 2 2h12a2 2 0 0 0 2-2v-8a2 2 0 0 0 -2-2zm-.31 2c-1.203 1.45-3.457 4.023-4.69 4.5-.232.09-1.766.09-2 0-1.23-.477-3.485-3.05-4.69-4.5zm-11.69 8v-6.44c1.08 1.19 3.652 3.92 5 4.44.234.09 1.768.09 2 0 1.35-.52 3.923-3.252 5-4.44v6.44z" fill="#fff"/><path d="m245 169h-12a2 2 0 0 0 -2 2v8a2 2 0 0 0 2 2h12a2 2 0 0 0 2-2v-8a2 2 0 0 0 -2-2zm-.31 2c-1.203 1.45-3.457 4.023-4.69 4.5-.232.09-1.766.09-2 0-1.23-.477-3.485-3.05-4.688-4.5zm-11.69 8v-6.44c1.08 1.188 3.652 3.92 5 4.44.234.09 1.768.09 2 0 1.35-.52 3.923-3.252 5-4.44v6.44z" fill="#fff"/><path d="m245 188h-12a2 2 0 0 0 -2 2v8a2 2 0 0 0 2 2h12a2 2 0 0 0 2-2v-8a2 2 0 0 0 -2-2zm-.31 2c-1.203 1.45-3.457 4.023-4.69 4.5-.232.09-1.766.09-2 0-1.23-.477-3.485-3.05-4.688-4.5zm-11.69 8v-6.44c1.08 1.19 3.652 3.92 5 4.44.234.09 1.768.09 2 0 1.35-.52 3.923-3.252 5-4.44v6.44z" fill="#fff"/><path d="m245 207h-12a2 2 0 0 0 -2 2v8a2 2 0 0 0 2 2h12a2 2 0 0 0 2-2v-8a2 2 0 0 0 -2-2zm-.31 2c-1.203 1.45-3.457 4.023-4.69 4.5-.232.09-1.766.09-2 0-1.23-.477-3.485-3.05-4.688-4.5zm-11.69 8v-6.44c1.08 1.19 3.652 3.92 5 4.44.234.09 1.768.09 2 0 1.35-.52 3.923-3.252 5-4.44v6.44z" fill="#fff"/><path d="m268 169h-12a2 2 0 0 0 -2 2v8a2 2 0 0 0 2 2h12a2 2 0 0 0 2-2v-8a2 2 0 0 0 -2-2zm-.31 2c-1.204 1.45-3.458 4.023-4.69 4.5-.232.09-1.766.09-2 0-1.23-.477-3.485-3.05-4.688-4.5h11.377zm-11.69 8v-6.44c1.08 1.188 3.652 3.92 5 4.44.234.09 1.768.09 2 0 1.35-.52 3.922-3.252 5-4.44v6.44z" fill="#fff"/><path d="m268 188h-12a2 2 0 0 0 -2 2v8a2 2 0 0 0 2 2h12a2 2 0 0 0 2-2v-8a2 2 0 0 0 -2-2zm-.31 2c-1.204 1.45-3.458 4.023-4.69 4.5-.232.09-1.766.09-2 0-1.23-.477-3.485-3.05-4.688-4.5h11.377zm-11.69 8v-6.44c1.08 1.19 3.652 3.92 5 4.44.234.09 1.768.09 2 0 1.35-.52 3.922-3.252 5-4.44v6.44z" fill="#fff"/><path d="m268 207h-12a2 2 0 0 0 -2 2v8a2 2 0 0 0 2 2h12a2 2 0 0 0 2-2v-8a2 2 0 0 0 -2-2zm-.31 2c-1.204 1.45-3.458 4.023-4.69 4.5-.232.09-1.766.09-2 0-1.23-.477-3.485-3.05-4.688-4.5h11.377zm-11.69 8v-6.44c1.08 1.19 3.652 3.92 5 4.44.234.09 1.768.09 2 0 1.35-.52 3.922-3.252 5-4.44v6.44z" fill="#fff"/><path d="m291 169h-12a2 2 0 0 0 -2 2v8a2 2 0 0 0 2 2h12a2 2 0 0 0 2-2v-8a2 2 0 0 0 -2-2zm-.31 2c-1.204 1.45-3.458 4.023-4.69 4.5-.232.09-1.766.09-2 0-1.232-.477-3.486-3.05-4.69-4.5zm-11.69 8v-6.44c1.078 1.188 3.652 3.92 5 4.44.234.09 1.768.09 2 0 1.35-.52 3.922-3.252 5-4.44v6.44z" fill="#fff"/><path d="m291 188h-12a2 2 0 0 0 -2 2v8a2 2 0 0 0 2 2h12a2 2 0 0 0 2-2v-8a2 2 0 0 0 -2-2zm-.31 2c-1.204 1.45-3.458 4.023-4.69 4.5-.232.09-1.766.09-2 0-1.232-.477-3.486-3.05-4.69-4.5zm-11.69 8v-6.44c1.078 1.19 3.652 3.92 5 4.44.234.09 1.768.09 2 0 1.35-.52 3.922-3.252 5-4.44v6.44z" fill="#fff"/><path d="m291 207h-12a2 2 0 0 0 -2 2v8a2 2 0 0 0 2 2h12a2 2 0 0 0 2-2v-8a2 2 0 0 0 -2-2zm-.31 2c-1.204 1.45-3.458 4.023-4.69 4.5-.232.09-1.766.09-2 0-1.232-.477-3.486-3.05-4.69-4.5zm-11.69 8v-6.44c1.078 1.19 3.652 3.92 5 4.44.234.09 1.768.09 2 0 1.35-.52 3.922-3.252 5-4.44v6.44z" fill="#fff"/><path d="m314 169h-12a2 2 0 0 0 -2 2v8a2 2 0 0 0 2 2h12a2 2 0 0 0 2-2v-8a2 2 0 0 0 -2-2zm-.31 2c-1.204 1.45-3.458 4.023-4.69 4.5-.232.09-1.766.09-2 0-1.232-.477-3.486-3.05-4.69-4.5zm-11.69 8v-6.44c1.078 1.188 3.652 3.92 5 4.44.234.09 1.768.09 2 0 1.35-.52 3.922-3.252 5-4.44v6.44z" fill="#fff"/><path d="m314 188h-12a2 2 0 0 0 -2 2v8a2 2 0 0 0 2 2h12a2 2 0 0 0 2-2v-8a2 2 0 0 0 -2-2zm-.31 2c-1.204 1.45-3.458 4.023-4.69 4.5-.232.09-1.766.09-2 0-1.232-.477-3.486-3.05-4.69-4.5zm-11.69 8v-6.44c1.078 1.19 3.652 3.92 5 4.44.234.09 1.768.09 2 0 1.35-.52 3.922-3.252 5-4.44v6.44z" fill="#fff"/><path d="m314 207h-12a2 2 0 0 0 -2 2v8a2 2 0 0 0 2 2h12a2 2 0 0 0 2-2v-8a2 2 0 0 0 -2-2zm-.31 2c-1.204 1.45-3.458 4.023-4.69 4.5-.232.09-1.766.09-2 0-1.232-.477-3.486-3.05-4.69-4.5zm-11.69 8v-6.44c1.078 1.19 3.652 3.92 5 4.44.234.09 1.768.09 2 0 1.35-.52 3.922-3.252 5-4.44v6.44z" fill="#fff"/><path d="m356 169h-12a2 2 0 0 0 -2 2v8a2 2 0 0 0 2 2h12a2 2 0 0 0 2-2v-8a2 2 0 0 0 -2-2zm-.31 2c-1.204 1.45-3.458 4.023-4.69 4.5-.232.09-1.766.09-2 0-1.232-.477-3.486-3.05-4.69-4.5zm-11.69 8v-6.44c1.078 1.188 3.652 3.92 5 4.44.234.09 1.768.09 2 0 1.35-.52 3.922-3.252 5-4.44v6.44z" fill="#fff"/><path d="m356 188h-12a2 2 0 0 0 -2 2v8a2 2 0 0 0 2 2h12a2 2 0 0 0 2-2v-8a2 2 0 0 0 -2-2zm-.31 2c-1.204 1.45-3.458 4.023-4.69 4.5-.232.09-1.766.09-2 0-1.232-.477-3.486-3.05-4.69-4.5zm-11.69 8v-6.44c1.078 1.19 3.652 3.92 5 4.44.234.09 1.768.09 2 0 1.35-.52 3.922-3.252 5-4.44v6.44z" fill="#fff"/><path d="m356 207h-12a2 2 0 0 0 -2 2v8a2 2 0 0 0 2 2h12a2 2 0 0 0 2-2v-8a2 2 0 0 0 -2-2zm-.31 2c-1.204 1.45-3.458 4.023-4.69 4.5-.232.09-1.766.09-2 0-1.232-.477-3.486-3.05-4.69-4.5zm-11.69 8v-6.44c1.078 1.19 3.652 3.92 5 4.44.234.09 1.768.09 2 0 1.35-.52 3.922-3.252 5-4.44v6.44z" fill="#fff"/><path d="m379 169h-12a2 2 0 0 0 -2 2v8a2 2 0 0 0 2 2h12a2 2 0 0 0 2-2v-8a2 2 0 0 0 -2-2zm-.31 2c-1.204 1.45-3.458 4.023-4.69 4.5-.232.09-1.766.09-2 0-1.232-.477-3.486-3.05-4.69-4.5zm-11.69 8v-6.44c1.078 1.188 3.652 3.92 5 4.44.234.09 1.768.09 2 0 1.35-.52 3.922-3.252 5-4.44v6.44z" fill="#fff"/><path d="m379 188h-12a2 2 0 0 0 -2 2v8a2 2 0 0 0 2 2h12a2 2 0 0 0 2-2v-8a2 2 0 0 0 -2-2zm-.31 2c-1.204 1.45-3.458 4.023-4.69 4.5-.232.09-1.766.09-2 0-1.232-.477-3.486-3.05-4.69-4.5zm-11.69 8v-6.44c1.078 1.19 3.652 3.92 5 4.44.234.09 1.768.09 2 0 1.35-.52 3.922-3.252 5-4.44v6.44z" fill="#fff"/><path d="m379 207h-12a2 2 0 0 0 -2 2v8a2 2 0 0 0 2 2h12a2 2 0 0 0 2-2v-8a2 2 0 0 0 -2-2zm-.31 2c-1.204 1.45-3.458 4.023-4.69 4.5-.232.09-1.766.09-2 0-1.232-.477-3.486-3.05-4.69-4.5zm-11.69 8v-6.44c1.078 1.19 3.652 3.92 5 4.44.234.09 1.768.09 2 0 1.35-.52 3.922-3.252 5-4.44v6.44z" fill="#fff"/><path d="m419 169h-12a2 2 0 0 0 -2 2v8a2 2 0 0 0 2 2h12a2 2 0 0 0 2-2v-8a2 2 0 0 0 -2-2zm-.31 2c-1.204 1.45-3.458 4.023-4.69 4.5-.232.09-1.766.09-2 0-1.232-.477-3.486-3.05-4.69-4.5zm-11.69 8v-6.44c1.078 1.188 3.652 3.92 5 4.44.234.09 1.768.09 2 0 1.35-.52 3.922-3.252 5-4.44v6.44z" fill="#fff"/><path d="m419 188h-12a2 2 0 0 0 -2 2v8a2 2 0 0 0 2 2h12a2 2 0 0 0 2-2v-8a2 2 0 0 0 -2-2zm-.31 2c-1.204 1.45-3.458 4.023-4.69 4.5-.232.09-1.766.09-2 0-1.232-.477-3.486-3.05-4.69-4.5zm-11.69 8v-6.44c1.078 1.19 3.652 3.92 5 4.44.234.09 1.768.09 2 0 1.35-.52 3.922-3.252 5-4.44v6.44z" fill="#fff"/><path d="m419 207h-12a2 2 0 0 0 -2 2v8a2 2 0 0 0 2 2h12a2 2 0 0 0 2-2v-8a2 2 0 0 0 -2-2zm-.31 2c-1.204 1.45-3.458 4.023-4.69 4.5-.232.09-1.766.09-2 0-1.232-.477-3.486-3.05-4.69-4.5zm-11.69 8v-6.44c1.078 1.19 3.652 3.92 5 4.44.234.09 1.768.09 2 0 1.35-.52 3.922-3.252 5-4.44v6.44z" fill="#fff"/><path d="m442 169h-12a2 2 0 0 0 -2 2v8a2 2 0 0 0 2 2h12a2 2 0 0 0 2-2v-8a2 2 0 0 0 -2-2zm-.31 2c-1.204 1.45-3.458 4.023-4.69 4.5-.232.09-1.766.09-2 0-1.232-.477-3.486-3.05-4.69-4.5zm-11.69 8v-6.44c1.078 1.188 3.652 3.92 5 4.44.234.09 1.768.09 2 0 1.35-.52 3.922-3.252 5-4.44v6.44z" fill="#fff"/><path d="m442 188h-12a2 2 0 0 0 -2 2v8a2 2 0 0 0 2 2h12a2 2 0 0 0 2-2v-8a2 2 0 0 0 -2-2zm-.31 2c-1.204 1.45-3.458 4.023-4.69 4.5-.232.09-1.766.09-2 0-1.232-.477-3.486-3.05-4.69-4.5zm-11.69 8v-6.44c1.078 1.19 3.652 3.92 5 4.44.234.09 1.768.09 2 0 1.35-.52 3.922-3.252 5-4.44v6.44z" fill="#fff"/><path d="m442 207h-12a2 2 0 0 0 -2 2v8a2 2 0 0 0 2 2h12a2 2 0 0 0 2-2v-8a2 2 0 0 0 -2-2zm-.31 2c-1.204 1.45-3.458 4.023-4.69 4.5-.232.09-1.766.09-2 0-1.232-.477-3.486-3.05-4.69-4.5zm-11.69 8v-6.44c1.078 1.19 3.652 3.92 5 4.44.234.09 1.768.09 2 0 1.35-.52 3.922-3.252 5-4.44v6.44z" fill="#fff"/><path d="m482 169h-12a2 2 0 0 0 -2 2v8a2 2 0 0 0 2 2h12a2 2 0 0 0 2-2v-8a2 2 0 0 0 -2-2zm-.31 2c-1.204 1.45-3.458 4.023-4.69 4.5-.232.09-1.766.09-2 0-1.232-.477-3.486-3.05-4.69-4.5zm-11.69 8v-6.44c1.078 1.188 3.652 3.92 5 4.44.234.09 1.768.09 2 0 1.35-.52 3.922-3.252 5-4.44v6.44z" fill="#fff"/><path d="m482 188h-12a2 2 0 0 0 -2 2v8a2 2 0 0 0 2 2h12a2 2 0 0 0 2-2v-8a2 2 0 0 0 -2-2zm-.31 2c-1.204 1.45-3.458 4.023-4.69 4.5-.232.09-1.766.09-2 0-1.232-.477-3.486-3.05-4.69-4.5zm-11.69 8v-6.44c1.078 1.19 3.652 3.92 5 4.44.234.09 1.768.09 2 0 1.35-.52 3.922-3.252 5-4.44v6.44z" fill="#fff"/><path d="m482 207h-12a2 2 0 0 0 -2 2v8a2 2 0 0 0 2 2h12a2 2 0 0 0 2-2v-8a2 2 0 0 0 -2-2zm-.31 2c-1.204 1.45-3.458 4.023-4.69 4.5-.232.09-1.766.09-2 0-1.232-.477-3.486-3.05-4.69-4.5zm-11.69 8v-6.44c1.078 1.19 3.652 3.92 5 4.44.234.09 1.768.09 2 0 1.35-.52 3.922-3.252 5-4.44v6.44z" fill="#fff"/><path d="m505 169h-12a2 2 0 0 0 -2 2v8a2 2 0 0 0 2 2h12a2 2 0 0 0 2-2v-8a2 2 0 0 0 -2-2zm-.31 2c-1.204 1.45-3.458 4.023-4.69 4.5-.232.09-1.766.09-2 0-1.232-.477-3.486-3.05-4.69-4.5zm-11.69 8v-6.44c1.078 1.188 3.652 3.92 5 4.44.234.09 1.768.09 2 0 1.35-.52 3.922-3.252 5-4.44v6.44z" fill="#fff"/><path d="m505 188h-12a2 2 0 0 0 -2 2v8a2 2 0 0 0 2 2h12a2 2 0 0 0 2-2v-8a2 2 0 0 0 -2-2zm-.31 2c-1.204 1.45-3.458 4.023-4.69 4.5-.232.09-1.766.09-2 0-1.232-.477-3.486-3.05-4.69-4.5zm-11.69 8v-6.44c1.078 1.19 3.652 3.92 5 4.44.234.09 1.768.09 2 0 1.35-.52 3.922-3.252 5-4.44v6.44z" fill="#fff"/><path d="m39.5 317v-6.5a2.5 2.5 0 0 0 -5 0v6.5h-4l6.5 7 6.5-7z" fill="#fff"/><path d="m50.5 311h-8.5v2h7l4.446 12h-7.946c-.83 0-1.7 1.2-2.5 2l-2 2h-8l-2-2c-.798-.8-1.667-2-2.5-2h-7.943l4.445-12h7v-2h-8.5l-5.5 14v12.5a3.5 3.5 0 0 0 3.5 3.5h31a3.5 3.5 0 0 0 3.5-3.5v-12.5l-5.5-14z" fill="#00aaab"/><path d="m89.5 317v-6.5a2.5 2.5 0 0 0 -5 0v6.5h-4l6.5 7 6.5-7z" fill="#fff"/><path d="m100.5 311h-8.5v2h7l4.446 12h-7.946c-.83 0-1.7 1.2-2.5 2l-2 2h-8l-2-2c-.798-.8-1.667-2-2.5-2h-7.943l4.445-12h7v-2h-8.5l-5.5 14v12.5a3.5 3.5 0 0 0 3.5 3.5h31a3.5 3.5 0 0 0 3.5-3.5v-12.5l-5.5-14z" fill="#00aaab"/><path d="m139.5 317v-6.5a2.5 2.5 0 0 0 -5 0v6.5h-4l6.5 7 6.5-7z" fill="#fff"/><path d="m150.5 311h-8.5v2h7l4.446 12h-7.946c-.83 0-1.7 1.2-2.5 2l-2 2h-8l-2-2c-.798-.8-1.667-2-2.5-2h-7.943l4.445-12h7v-2h-8.5l-5.5 14v12.5a3.5 3.5 0 0 0 3.5 3.5h31a3.5 3.5 0 0 0 3.5-3.5v-12.5l-5.5-14z" fill="#00aaab"/><path d="m189.5 317v-6.5a2.5 2.5 0 0 0 -5 0v6.5h-4l6.5 7 6.5-7z" fill="#fff"/><path d="m200.5 311h-8.5v2h7l4.446 12h-7.946c-.83 0-1.7 1.2-2.5 2l-2 2h-8l-2-2c-.798-.8-1.667-2-2.5-2h-7.943l4.445-12h7v-2h-8.5l-5.5 14v12.5a3.5 3.5 0 0 0 3.5 3.5h31a3.5 3.5 0 0 0 3.5-3.5v-12.5l-5.5-14z" fill="#00aaab"/><path d="m239.5 317v-6.5a2.5 2.5 0 0 0 -5 0v6.5h-4l6.5 7 6.5-7z" fill="#fff"/><path d="m250.5 311h-8.5v2h7l4.446 12h-7.946c-.83 0-1.7 1.2-2.5 2l-2 2h-8c.002 0-1-1-2-2-.797-.8-1.667-2-2.5-2h-7.943l4.445-12h7v-2h-8.5l-5.5 14v12.5a3.5 3.5 0 0 0 3.5 3.5h31a3.5 3.5 0 0 0 3.5-3.5v-12.5l-5.5-14z" fill="#00aaab"/><path d="m289.5 317v-6.5a2.5 2.5 0 0 0 -5 0v6.5h-4l6.5 7 6.5-7z" fill="#fff"/><path d="m300.5 311h-8.5v2h7l4.445 12h-7.945c-.832 0-1.7 1.2-2.5 2l-2 2h-8c.002 0-1-1-2-2-.8-.8-1.668-2-2.5-2h-7.943l4.443-12h7v-2h-8.5l-5.5 14v12.5a3.5 3.5 0 0 0 3.5 3.5h31a3.5 3.5 0 0 0 3.5-3.5v-12.5z" fill="#00aaab"/><path d="m339.5 317v-6.5a2.5 2.5 0 0 0 -5 0v6.5h-4l6.5 7 6.5-7z" fill="#fff"/><path d="m350.5 311h-8.5v2h7l4.445 12h-7.945c-.832 0-1.7 1.2-2.5 2l-2 2h-8c.002 0-1-1-2-2-.8-.8-1.668-2-2.5-2h-7.943l4.443-12h7v-2h-8.5l-5.5 14v12.5a3.5 3.5 0 0 0 3.5 3.5h31a3.5 3.5 0 0 0 3.5-3.5v-12.5z" fill="#00aaab"/><path d="m389.5 317v-6.5a2.5 2.5 0 0 0 -5 0v6.5h-4l6.5 7 6.5-7z" fill="#fff"/><path d="m400.5 311h-8.5v2h7l4.445 12h-7.945c-.832 0-1.7 1.2-2.5 2l-2 2h-8c.002 0-1-1-2-2-.8-.8-1.668-2-2.5-2h-7.943l4.443-12h7v-2h-8.5l-5.5 14v12.5a3.5 3.5 0 0 0 3.5 3.5h31a3.5 3.5 0 0 0 3.5-3.5v-12.5z" fill="#00aaab"/><path d="m439.5 317v-6.5a2.5 2.5 0 0 0 -5 0v6.5h-4l6.5 7 6.5-7z" fill="#fff"/><path d="m450.5 311h-8.5v2h7l4.445 12h-7.945c-.832 0-1.7 1.2-2.5 2l-2 2h-8c.002 0-1-1-2-2-.8-.8-1.668-2-2.5-2h-7.943l4.443-12h7v-2h-8.5l-5.5 14v12.5a3.5 3.5 0 0 0 3.5 3.5h31a3.5 3.5 0 0 0 3.5-3.5v-12.5z" fill="#00aaab"/><path d="m489.5 317v-6.5a2.5 2.5 0 0 0 -5 0v6.5h-4l6.5 7 6.5-7z" fill="#fff"/><path d="m500.5 311h-8.5v2h7l4.445 12h-7.945c-.832 0-1.7 1.2-2.5 2l-2 2h-8c.002 0-1-1-2-2-.8-.8-1.668-2-2.5-2h-7.943l4.443-12h7v-2h-8.5l-5.5 14v12.5a3.5 3.5 0 0 0 3.5 3.5h31a3.5 3.5 0 0 0 3.5-3.5v-12.5z" fill="#00aaab"/><g fill="#fff"><path d="m59.105 63.058c0 1.56-.297 2.87-.892 3.938s-1.46 1.816-2.597 2.25l3.076 3.313h-2.83l-2.426-2.884h-.343c-1.94 0-3.43-.576-4.47-1.727-1.04-1.153-1.56-2.79-1.56-4.91s.524-3.75 1.57-4.887 2.54-1.705 4.478-1.705c1.91 0 3.388.577 4.43 1.73s1.565 2.782 1.565 4.88zm-9.808 0c0 1.582.32 2.782.958 3.6.64.817 1.585 1.226 2.84 1.226 1.247 0 2.19-.404 2.825-1.213s.954-2.012.954-3.61c0-1.577-.315-2.772-.945-3.587s-1.57-1.222-2.818-1.222c-1.26 0-2.21.408-2.852 1.223s-.963 2.008-.963 3.585z"/><path d="m69.837 69.5-1.283-3.568h-4.914l-1.255 3.568h-2.215l4.807-12.902h2.285l4.808 12.902zm-1.837-5.38-1.204-3.497c-.088-.234-.21-.604-.365-1.107s-.26-.873-.32-1.107c-.158.72-.39 1.508-.694 2.363l-1.16 3.35h3.743z"/></g><g fill="#fff"><path d="m160.647 62.452c0 2.12-.59 3.743-1.767 4.864-1.178 1.123-2.874 1.684-5.09 1.684h-3.594v-12.85h3.973c2.044 0 3.635.55 4.77 1.652s1.707 2.652 1.707 4.65zm-2.214.07c0-3.076-1.438-4.614-4.315-4.614h-1.82v9.325h1.495c3.093 0 4.64-1.57 4.64-4.71z"/><path d="m167.433 69.176c-1.512 0-2.694-.44-3.546-1.322s-1.28-2.097-1.28-3.644c0-1.588.397-2.836 1.188-3.744s1.878-1.362 3.26-1.362c1.284 0 2.298.39 3.042 1.17s1.116 1.85 1.116 3.216v1.116h-6.478c.03.943.284 1.67.765 2.176s1.157.76 2.03.76c.574 0 1.11-.054 1.604-.162s1.027-.29 1.595-.54v1.678c-.505.24-1.015.41-1.53.51s-1.105.148-1.767.148zm-.378-8.508c-.656 0-1.182.208-1.578.624s-.63 1.022-.708 1.82h4.41c-.01-.804-.204-1.41-.58-1.825-.373-.412-.89-.62-1.545-.62z"/><path d="m175.773 69-3.69-9.72h2.18l1.977 5.65c.34.95.545 1.717.615 2.303h.07c.053-.422.258-1.19.615-2.303l1.978-5.65h2.197l-3.71 9.72z"/></g><g fill="#fff"><path d="m134.65 14h-1.837v-12.156h1.836v12.156z"/><path d="m144.938 9.664c0 1.41-.362 2.513-1.086 3.305-.724.79-1.732 1.187-3.023 1.187-.81 0-1.522-.183-2.142-.547a3.605 3.605 0 0 1 -1.43-1.57c-.333-.683-.5-1.474-.5-2.375 0-1.4.36-2.495 1.078-3.28s1.73-1.18 3.04-1.18c1.25 0 2.238.4 2.968 1.206.73.805 1.094 1.89 1.094 3.254zm-6.29 0c0 1.995.738 2.992 2.212 2.992 1.458 0 2.188-.997 2.188-2.992 0-1.974-.734-2.96-2.203-2.96-.77 0-1.33.254-1.676.765-.348.51-.52 1.24-.52 2.194z"/><path d="m150.532 14.156c-1.308 0-2.3-.382-2.98-1.145s-1.02-1.857-1.02-3.284c0-1.453.355-2.57 1.066-3.352s1.738-1.172 3.082-1.172c.91 0 1.73.17 2.46.508l-.554 1.477c-.776-.302-1.417-.453-1.922-.453-1.495 0-2.242.992-2.242 2.977 0 .97.186 1.697.56 2.185.37.487.917.73 1.636.73.817 0 1.59-.203 2.32-.61v1.603a3.64 3.64 0 0 1 -1.05.414 6.392 6.392 0 0 1 -1.356.124z"/><path d="m160.376 14-.367-1.203h-.063c-.417.526-.836.884-1.258 1.074s-.965.286-1.626.286c-.85 0-1.512-.23-1.988-.688s-.715-1.106-.715-1.945c0-.89.332-1.562.993-2.016.66-.453 1.67-.7 3.023-.742l1.492-.047v-.46c0-.552-.13-.965-.387-1.238s-.657-.41-1.198-.41c-.443 0-.867.065-1.273.195s-.798.284-1.173.46l-.594-1.31c.47-.246.98-.432 1.54-.56a7.054 7.054 0 0 1 1.577-.19c1.1 0 1.928.238 2.488.718s.84 1.23.84 2.258v5.818h-1.312zm-2.734-1.25c.667 0 1.202-.187 1.605-.56.403-.37.605-.894.605-1.565v-.75l-1.11.047c-.864.03-1.493.176-1.886.434-.394.258-.59.652-.59 1.184 0 .386.114.684.344.895.23.21.573.315 1.032.315z"/><path d="m166.087 14h-1.836v-12.156h1.837v12.156z"/><path d="m176.313 14h-1.844v-5.312c0-.667-.135-1.164-.403-1.492-.27-.328-.694-.492-1.277-.492-.77 0-1.337.23-1.7.69-.36.462-.542 1.234-.542 2.317v4.289h-1.836v-12.156h1.836v3.086c0 .495-.03 1.023-.094 1.586h.117c.25-.417.6-.74 1.044-.97s.965-.343 1.56-.343c2.093 0 3.14 1.055 3.14 3.164v5.633z"/><path d="m186.532 9.664c0 1.41-.362 2.513-1.086 3.305-.724.79-1.732 1.187-3.023 1.187-.808 0-1.52-.183-2.14-.547a3.605 3.605 0 0 1 -1.43-1.57c-.334-.683-.5-1.474-.5-2.375 0-1.4.358-2.495 1.077-3.28s1.73-1.18 3.04-1.18c1.25 0 2.238.4 2.968 1.206.73.805 1.094 1.89 1.094 3.254zm-6.29 0c0 1.995.738 2.992 2.212 2.992 1.458 0 2.188-.997 2.188-2.992 0-1.974-.734-2.96-2.203-2.96-.772 0-1.33.254-1.677.765-.347.51-.52 1.24-.52 2.194z"/><path d="m194.446 11.54c0 .843-.308 1.49-.922 1.94-.615.45-1.495.676-2.64.676-1.152 0-2.077-.175-2.774-.523v-1.586c1.016.47 1.96.703 2.836.703 1.13 0 1.695-.34 1.695-1.023 0-.22-.06-.4-.187-.547s-.33-.297-.617-.453a10.76 10.76 0 0 0 -1.195-.53c-.994-.387-1.667-.772-2.02-1.157s-.526-.886-.526-1.5c0-.74.298-1.313.895-1.723.595-.41 1.406-.613 2.433-.613 1.016 0 1.977.206 2.883.617l-.594 1.384c-.933-.386-1.716-.578-2.352-.578-.97 0-1.453.276-1.453.828 0 .27.126.5.38.688.25.188.802.445 1.65.773.714.276 1.232.528 1.556.758.323.23.562.493.72.793s.233.656.233 1.073z"/><path d="m199.65 12.672c.447 0 .895-.07 1.343-.21v1.382c-.203.09-.465.163-.785.223s-.652.09-.996.09c-1.74 0-2.61-.917-2.61-2.75v-4.657h-1.18v-.812l1.267-.672.624-1.828h1.133v1.922h2.46v1.39h-2.46v4.625c0 .442.11.77.332.98.22.21.51.317.87.317z"/></g><g fill="#fff"><path d="m410.618 11.54c0 .843-.308 1.49-.922 1.94s-1.495.676-2.64.676c-1.152 0-2.076-.175-2.774-.523v-1.586c1.016.47 1.96.703 2.836.703 1.13 0 1.695-.34 1.695-1.023 0-.22-.062-.4-.188-.547s-.33-.297-.617-.453-.685-.333-1.195-.53c-.995-.387-1.668-.772-2.02-1.157s-.527-.886-.527-1.5c0-.74.298-1.313.895-1.723s1.408-.613 2.435-.613c1.016 0 1.977.206 2.883.617l-.594 1.384c-.933-.386-1.716-.578-2.352-.578-.97 0-1.453.276-1.453.828 0 .27.125.5.378.688s.804.445 1.652.773c.714.276 1.23.528 1.555.758s.562.493.72.793.233.656.233 1.073z"/><path d="m415.82 12.672c.45 0 .897-.07 1.345-.21v1.382c-.203.09-.465.163-.785.223s-.652.09-.996.09c-1.74 0-2.61-.917-2.61-2.75v-4.657h-1.18v-.812l1.267-.672.626-1.828h1.133v1.922h2.46v1.39h-2.46v4.625c0 .442.11.77.33.98s.512.317.87.317z"/><path d="m424.298 14-.367-1.203h-.06c-.418.526-.837.884-1.26 1.074s-.963.286-1.624.286c-.85 0-1.512-.23-1.988-.688s-.715-1.106-.715-1.945c0-.89.33-1.562.992-2.016s1.67-.7 3.023-.742l1.492-.047v-.46c0-.552-.13-.965-.387-1.238s-.657-.41-1.2-.41c-.44 0-.866.065-1.272.195s-.796.284-1.17.46l-.595-1.31c.47-.246.98-.432 1.54-.56s1.082-.19 1.577-.19c1.1 0 1.93.238 2.488.718s.84 1.23.84 2.258v5.818h-1.312zm-2.735-1.25c.667 0 1.202-.187 1.605-.56s.605-.894.605-1.565v-.75l-1.11.047c-.863.03-1.492.176-1.886.434s-.59.652-.59 1.184c0 .386.114.684.344.895s.575.315 1.033.315z"/><path d="m435.47 5.36v1.007l-1.477.273a2.64 2.64 0 0 1 .47 1.516c-.002.89-.31 1.59-.924 2.102s-1.46.766-2.54.766a4.18 4.18 0 0 1 -.75-.062c-.395.245-.593.53-.593.86 0 .197.093.346.277.444s.524.148 1.02.148h1.508c.953 0 1.677.203 2.172.61s.742.99.742 1.757c0 .98-.403 1.735-1.21 2.267s-1.975.797-3.5.797c-1.178 0-2.076-.208-2.696-.625s-.93-1.012-.93-1.782c0-.53.168-.978.504-1.34s.806-.613 1.41-.754c-.245-.104-.446-.272-.605-.504s-.24-.476-.24-.73c0-.323.092-.597.274-.82s.453-.445.812-.664c-.448-.192-.812-.507-1.09-.94s-.418-.945-.418-1.528c0-.938.296-1.664.887-2.18s1.434-.773 2.527-.773c.245 0 .5.017.77.05s.47.07.605.106h2.993zm-6.79 9.984c0 .396.18.7.536.914s.858.32 1.504.32c1 0 1.745-.144 2.234-.43s.734-.667.734-1.14c0-.376-.134-.643-.402-.802s-.767-.238-1.496-.238h-1.39c-.527 0-.945.124-1.255.37s-.464.584-.464 1.006zm.79-7.188c0 .542.14.958.418 1.25s.68.438 1.2.438c1.06 0 1.593-.567 1.593-1.703 0-.56-.13-.995-.394-1.3s-.663-.457-1.2-.457c-.53 0-.933.15-1.206.453s-.41.742-.41 1.32z"/><path d="m440.845 14.156c-1.344 0-2.395-.392-3.152-1.176s-1.137-1.863-1.137-3.238c0-1.41.352-2.52 1.055-3.328s1.67-1.21 2.9-1.21c1.14 0 2.04.346 2.702 1.038s.992 1.646.992 2.86v.99h-5.758c.026.84.253 1.484.68 1.935s1.028.676 1.805.676c.512 0 .986-.048 1.427-.145s.913-.257 1.418-.48v1.492c-.448.214-.9.364-1.36.453s-.98.133-1.57.133zm-.336-7.562c-.584 0-1.052.185-1.403.555s-.562.908-.63 1.616h3.923c-.01-.714-.183-1.254-.516-1.62s-.792-.552-1.375-.552z"/></g><g fill="#fff"><path d="m182.91 282-4.124-13.44h-.105c.15 2.733.224 4.558.224 5.472v7.968h-3.246v-17.133h4.945l4.055 13.102h.07l4.3-13.103h4.946v17.134h-3.387v-8.11c0-.382.006-.823.018-1.323s.064-1.828.158-3.984h-.105l-4.421 13.417h-3.327z"/><path d="m206.325 282-.69-1.78h-.095c-.602.757-1.22 1.282-1.857 1.575s-1.467.44-2.49.44c-1.258 0-2.248-.36-2.97-1.08s-1.085-1.74-1.085-3.07c0-1.39.486-2.415 1.46-3.075s2.438-1.025 4.4-1.096l2.272-.07v-.574c0-1.328-.68-1.992-2.04-1.992-1.046 0-2.276.316-3.69.95l-1.184-2.415c1.508-.79 3.18-1.184 5.016-1.184 1.758 0 3.105.382 4.043 1.147s1.406 1.93 1.406 3.492v8.732h-2.495zm-1.054-6.07-1.382.047c-1.04.03-1.812.22-2.32.562s-.762.866-.762 1.57c0 1.007.578 1.51 1.734 1.51.828 0 1.49-.237 1.986-.714s.744-1.11.744-1.898v-1.078z"/><path d="m212.35 265.512c0-1.164.647-1.746 1.944-1.746s1.945.582 1.945 1.746c0 .555-.163.986-.487 1.295s-.81.463-1.46.463c-1.296 0-1.944-.586-1.944-1.758zm3.724 16.488h-3.574v-13.102h3.575v13.102z"/><path d="m223.4 282h-3.575v-18.234h3.574v18.234z"/><path d="m232.67 279.387c.624 0 1.374-.137 2.25-.41v2.66c-.892.398-1.985.598-3.282.598-1.43 0-2.47-.36-3.123-1.084s-.98-1.806-.98-3.25v-6.317h-1.71v-1.512l1.97-1.194 1.03-2.766h2.285v2.79h3.668v2.683h-3.668v6.316c0 .507.143.882.428 1.124s.662.363 1.13.363z"/><path d="m244.88 268.652c.484 0 .887.035 1.207.105l-.27 3.352a4.103 4.103 0 0 0 -1.055-.118c-1.14 0-2.03.293-2.666.88s-.955 1.405-.955 2.46v6.669h-3.573v-13.102h2.707l.527 2.203h.177c.406-.733.955-1.325 1.646-1.774s1.444-.674 2.257-.674z"/><path d="m256.786 282-.69-1.78h-.096c-.6.757-1.22 1.282-1.856 1.575s-1.467.44-2.49.44c-1.258 0-2.248-.36-2.97-1.08s-1.085-1.74-1.085-3.07c0-1.39.485-2.415 1.458-3.075s2.44-1.025 4.4-1.096l2.273-.07v-.574c0-1.328-.68-1.992-2.038-1.992-1.047 0-2.277.316-3.69.95l-1.185-2.415c1.508-.79 3.18-1.184 5.016-1.184 1.758 0 3.105.382 4.043 1.147s1.406 1.93 1.406 3.492v8.732zm-1.055-6.07-1.382.047c-1.04.03-1.812.22-2.32.562s-.762.866-.762 1.57c0 1.007.578 1.51 1.734 1.51.828 0 1.49-.237 1.986-.714s.744-1.11.744-1.898v-1.078z"/><path d="m270.157 282.234c-1.54 0-2.746-.56-3.62-1.676h-.19c.126 1.094.19 1.727.19 1.898v5.31h-3.575v-18.868h2.906l.504 1.7h.164c.836-1.298 2.074-1.946 3.715-1.946 1.548 0 2.76.598 3.634 1.793s1.312 2.855 1.312 4.98c0 1.398-.205 2.613-.615 3.645s-.993 1.816-1.75 2.355-1.65.81-2.673.81zm-1.054-10.722c-.883 0-1.527.27-1.934.814s-.618 1.44-.634 2.69v.386c0 1.406.21 2.414.627 3.023s1.08.914 1.986.914c1.6 0 2.4-1.32 2.4-3.962 0-1.29-.196-2.256-.59-2.9s-1.014-.966-1.857-.966z"/><path d="m294.778 277.242c0 1.547-.557 2.766-1.67 3.656s-2.662 1.336-4.646 1.336c-1.828 0-3.445-.344-4.852-1.03v-3.376c1.156.516 2.135.88 2.936 1.09s1.533.316 2.197.316c.797 0 1.408-.152 1.834-.457s.64-.758.64-1.36c0-.335-.095-.634-.282-.895s-.463-.514-.826-.756-1.105-.63-2.222-1.16c-1.047-.492-1.832-.965-2.355-1.418s-.94-.98-1.254-1.582-.47-1.305-.47-2.11c0-1.515.514-2.706 1.54-3.573s2.448-1.3 4.26-1.3c.892 0 1.74.104 2.55.315s1.654.508 2.537.89l-1.172 2.825c-.914-.375-1.67-.637-2.268-.785s-1.186-.223-1.764-.223c-.688 0-1.215.16-1.582.48s-.55.738-.55 1.254c0 .32.074.6.223.837s.385.47.71.69 1.09.624 2.302 1.202c1.602.765 2.7 1.532 3.293 2.302s.89 1.713.89 2.83z"/><path d="m305.138 282-4.125-13.44h-.105c.148 2.733.223 4.558.223 5.472v7.968h-3.245v-17.133h4.945l4.055 13.102h.07l4.3-13.103h4.946v17.134h-3.386v-8.11c0-.382.006-.823.018-1.323s.064-1.828.158-3.984h-.105l-4.422 13.417z"/><path d="m327.122 282h-3.633v-14.11h-4.653v-3.022h12.938v3.023h-4.652z"/><path d="m346.247 270.21c0 1.845-.576 3.255-1.73 4.23s-2.79 1.466-4.915 1.466h-1.56v6.094h-3.632v-17.133h5.473c2.078 0 3.658.447 4.74 1.342s1.624 2.228 1.624 4zm-8.203 2.72h1.195c1.116 0 1.952-.22 2.507-.662s.832-1.084.832-1.928c0-.852-.233-1.48-.698-1.887s-1.193-.61-2.186-.61h-1.652v5.087z"/></g><g fill="#fff"><path d="m205.595 376h-1.844v-5.328c0-.66-.124-1.155-.374-1.48s-.64-.488-1.172-.488c-.708 0-1.228.23-1.56.69-.33.462-.495 1.23-.495 2.302v4.304h-1.837v-8.64h1.438l.26 1.132h.093c.24-.41.587-.73 1.043-.953a3.363 3.363 0 0 1 1.504-.337c1.328 0 2.208.453 2.64 1.36h.126c.255-.428.614-.762 1.078-1 .463-.24.995-.36 1.594-.36 1.03 0 1.782.26 2.254.78.47.522.707 1.316.707 2.384v5.634h-1.837v-5.328c0-.66-.126-1.155-.38-1.48-.252-.325-.644-.488-1.175-.488-.714 0-1.236.223-1.566.668s-.496 1.13-.496 2.05v4.578z"/><path d="m219.704 376-.258-1.133h-.094c-.255.4-.62.716-1.09.945-.472.23-1.01.344-1.613.344-1.048 0-1.83-.26-2.345-.78s-.773-1.31-.773-2.368v-5.648h1.852v5.328c0 .66.135 1.157.406 1.488.27.33.695.496 1.273.496.77 0 1.337-.23 1.7-.69.36-.462.542-1.234.542-2.317v-4.305h1.844v8.64h-1.446z"/><path d="m225.603 376h-1.836v-12.156h1.836z"/><path d="m231.446 374.672c.448 0 .896-.07 1.344-.21v1.382c-.203.09-.465.163-.785.223s-.652.09-.996.09c-1.74 0-2.61-.917-2.61-2.75v-4.656h-1.18v-.81l1.266-.673.625-1.828h1.134v1.92h2.46v1.392h-2.46v4.625c0 .442.11.77.332.98.22.21.51.315.87.315z"/><path d="m234.407 365.07c0-.328.09-.58.27-.758s.436-.266.77-.266c.323 0 .574.09.754.266s.27.43.27.758c0 .312-.09.56-.27.738s-.43.27-.753.27c-.333 0-.59-.09-.77-.27s-.27-.425-.27-.738zm1.946 10.93h-1.836v-8.64h1.836z"/><path d="m243.36 376.156c-1.094 0-1.943-.394-2.547-1.18h-.11c.074.73.11 1.172.11 1.328v3.54h-1.836v-12.485h1.484c.043.16.128.546.26 1.155h.093c.573-.875 1.432-1.312 2.578-1.312 1.08 0 1.92.39 2.52 1.172s.903 1.878.903 3.29-.306 2.512-.918 3.304c-.612.79-1.457 1.186-2.535 1.186zm-.445-7.453c-.73 0-1.262.214-1.598.64s-.504 1.11-.504 2.048v.274c0 1.052.167 1.813.5 2.285.333.47.877.706 1.633.706.635 0 1.125-.26 1.47-.78s.515-1.264.515-2.228c0-.97-.17-1.702-.51-2.2-.342-.496-.844-.745-1.505-.745z"/><path d="m250.782 376h-1.836v-12.156h1.836z"/><path d="m257.18 376.156c-1.343 0-2.394-.392-3.15-1.176s-1.138-1.863-1.138-3.238c0-1.41.352-2.52 1.055-3.328s1.67-1.21 2.898-1.21c1.14 0 2.042.346 2.703 1.038.66.692.992 1.646.992 2.86v.99h-5.758c.026.84.252 1.484.68 1.935.427.45 1.028.676 1.805.676.51 0 .985-.048 1.426-.145.44-.097.913-.257 1.418-.48v1.492a5.64 5.64 0 0 1 -1.358.453 8.32 8.32 0 0 1 -1.57.133zm-.335-7.562c-.583 0-1.05.185-1.402.555s-.562.908-.63 1.616h3.923c-.01-.714-.183-1.254-.516-1.62-.334-.37-.792-.552-1.375-.552z"/><path d="m266.673 365.07c0-.328.09-.58.27-.758s.437-.266.77-.266c.323 0 .574.09.754.266s.27.43.27.758c0 .312-.09.56-.27.738s-.43.27-.754.27c-.333 0-.59-.09-.77-.27s-.27-.425-.27-.738zm1.945 10.93h-1.836v-8.64h1.836z"/><path d="m278.845 376h-1.845v-5.312c0-.667-.133-1.164-.4-1.492s-.695-.492-1.278-.492c-.776 0-1.344.23-1.703.688s-.54 1.227-.54 2.305v4.303h-1.836v-8.64h1.438l.258 1.132h.094c.26-.41.63-.73 1.11-.953s1.01-.337 1.593-.337c2.073 0 3.11 1.055 3.11 3.164v5.634z"/><path d="m285.813 367.203c1.078 0 1.918.39 2.52 1.172s.902 1.878.902 3.29c0 1.416-.305 2.52-.914 3.308s-1.455 1.184-2.538 1.184c-1.094 0-1.942-.394-2.547-1.18h-.125l-.336 1.023h-1.375v-12.156h1.835v2.89c0 .215-.01.532-.03.954s-.037.69-.048.805h.078c.583-.86 1.443-1.29 2.578-1.29zm-.476 1.5c-.74 0-1.272.218-1.598.652s-.494 1.163-.505 2.184v.124c0 1.052.167 1.813.5 2.285s.878.706 1.633.706c.65 0 1.145-.258 1.48-.773s.504-1.26.504-2.234c0-1.965-.67-2.947-2.015-2.947z"/><path d="m299.032 371.664c0 1.41-.362 2.513-1.086 3.305s-1.73 1.187-3.023 1.187c-.808 0-1.52-.183-2.14-.547s-1.098-.888-1.43-1.57-.5-1.474-.5-2.375c0-1.4.358-2.495 1.077-3.28s1.73-1.18 3.04-1.18c1.25 0 2.238.4 2.968 1.206s1.094 1.89 1.094 3.254zm-6.29 0c0 1.995.738 2.992 2.212 2.992 1.458 0 2.188-.997 2.188-2.992 0-1.974-.734-2.96-2.203-2.96-.772 0-1.33.254-1.677.765s-.52 1.24-.52 2.194z"/><path d="m303.063 371.586-2.898-4.227h2.094l1.968 3.022 1.984-3.023h2.078l-2.906 4.226 3.057 4.416h-2.08l-2.132-3.234-2.125 3.234h-2.078z"/><path d="m313.728 376.156c-1.344 0-2.395-.392-3.152-1.176s-1.137-1.863-1.137-3.238c0-1.41.35-2.52 1.054-3.328s1.67-1.21 2.898-1.21c1.14 0 2.042.346 2.703 1.038s.992 1.646.992 2.86v.99h-5.758c.025.84.252 1.484.68 1.935s1.027.676 1.804.676c.51 0 .985-.048 1.426-.145s.913-.257 1.418-.48v1.492c-.448.214-.9.364-1.36.453s-.982.133-1.57.133zm-.336-7.562c-.583 0-1.05.185-1.402.555s-.562.908-.63 1.616h3.923c-.01-.714-.183-1.254-.516-1.62s-.792-.552-1.375-.552z"/><path d="m324.978 373.54c0 .843-.308 1.49-.922 1.94s-1.495.676-2.64.676c-1.152 0-2.076-.175-2.774-.523v-1.586c1.016.47 1.96.703 2.836.703 1.13 0 1.695-.34 1.695-1.023 0-.22-.062-.4-.188-.547s-.33-.297-.617-.453-.685-.333-1.195-.53c-.995-.387-1.668-.772-2.02-1.157s-.527-.886-.527-1.5c0-.74.298-1.313.895-1.723s1.408-.613 2.435-.613c1.016 0 1.977.206 2.883.617l-.594 1.384c-.933-.386-1.716-.578-2.352-.578-.97 0-1.453.276-1.453.828 0 .27.125.5.378.688s.804.445 1.652.773c.714.276 1.23.528 1.555.758s.562.493.72.793.233.656.233 1.073z"/></g><g fill="#989898"><path d="m119 8h3v1h-3z"/><path d="m113 8h3v1h-3z"/><path d="m107 8h3v1h-3z"/><path d="m101 8h3v1h-3z"/><path d="m95 8h3v1h-3z"/><path d="m89 8h3v1h-3z"/><path d="m83 8h3v1h-3z"/><path d="m77 8h3v1h-3z"/><path d="m71 8h3v1h-3z"/><path d="m65 8h3v1h-3z"/><path d="m59 8h3v1h-3z"/><path d="m53 8h3v1h-3z"/><path d="m47 8h3v1h-3z"/><path d="m41 8h3v1h-3z"/><path d="m35 8h3v1h-3z"/><path d="m29 8h3v1h-3z"/><path d="m23 8h3v1h-3z"/><path d="m18 14h1v3h-1z"/><path d="m18 20h1v3h-1z"/><path d="m18 26h1v3h-1z"/><path d="m18 32h1v3h-1z"/><path d="m21.1 10.1-1.8 2.4-.8-.6 1.8-2.4z"/><path d="m211 8h3v1h-3z"/><path d="m217 8h3v1h-3z"/><path d="m223 8h3v1h-3z"/><path d="m229 8h3v1h-3z"/><path d="m235 8h3v1h-3z"/><path d="m241 8h3v1h-3z"/><path d="m247 8h3v1h-3z"/><path d="m253 8h3v1h-3z"/><path d="m259 8h3v1h-3z"/><path d="m265 8h3v1h-3z"/><path d="m271 8h3v1h-3z"/><path d="m277 8h3v1h-3z"/><path d="m283 8h3v1h-3z"/><path d="m289 8h3v1h-3z"/><path d="m295 8h3v1h-3z"/><path d="m301 8h3v1h-3z"/><path d="m307 8h3v1h-3z"/><path d="m314 14h1v3h-1z"/><path d="m314 20h1v3h-1z"/><path d="m314 26h1v3h-1z"/><path d="m314 32h1v3h-1z"/><path d="m312.7 9.5 1.8 2.4-.8.6-1.8-2.4z"/><path d="m447 8h3v1h-3z"/><path d="m453 8h3v1h-3z"/><path d="m459 8h3v1h-3z"/><path d="m465 8h3v1h-3z"/><path d="m471 8h3v1h-3z"/><path d="m477 8h3v1h-3z"/><path d="m483 8h3v1h-3z"/><path d="m489 8h3v1h-3z"/><path d="m495 8h3v1h-3z"/><path d="m501 8h3v1h-3z"/><path d="m508 14h1v3h-1z"/><path d="m508 20h1v3h-1z"/><path d="m508 26h1v3h-1z"/><path d="m508 32h1v3h-1z"/><path d="m506.688 9.52 1.8 2.4-.798.6-1.8-2.4z"/><path d="m399 8h3v1h-3z"/><path d="m393 8h3v1h-3z"/><path d="m387 8h3v1h-3z"/><path d="m381 8h3v1h-3z"/><path d="m375 8h3v1h-3z"/><path d="m369 8h3v1h-3z"/><path d="m363 8h3v1h-3z"/><path d="m357 8h3v1h-3z"/><path d="m351 8h3v1h-3z"/><path d="m345 8h3v1h-3z"/><path d="m340 14h1v3h-1z"/><path d="m340 20h1v3h-1z"/><path d="m340 26h1v3h-1z"/><path d="m340 32h1v3h-1z"/><path d="m343.1 10.12-1.798 2.4-.8-.6 1.8-2.4z"/><path d="m119 372h3v1h-3z"/><path d="m113 372h3v1h-3z"/><path d="m107 372h3v1h-3z"/><path d="m101 372h3v1h-3z"/><path d="m95 372h3v1h-3z"/><path d="m89 372h3v1h-3z"/><path d="m83 372h3v1h-3z"/><path d="m77 372h3v1h-3z"/><path d="m71 372h3v1h-3z"/><path d="m65 372h3v1h-3z"/><path d="m59 372h3v1h-3z"/><path d="m53 372h3v1h-3z"/><path d="m47 372h3v1h-3z"/><path d="m41 372h3v1h-3z"/><path d="m35 372h3v1h-3z"/><path d="m29 372h3v1h-3z"/><path d="m23 372h3v1h-3z"/><path d="m18 364h1v3h-1z"/><path d="m18 358h1v3h-1z"/><path d="m18 352h1v3h-1z"/><path d="m18 346h1v3h-1z"/><path d="m20.3 371.5-1.8-2.4.8-.6 1.8 2.4z"/><path d="m402 372h3v1h-3z"/><path d="m408 372h3v1h-3z"/><path d="m414 372h3v1h-3z"/><path d="m420 372h3v1h-3z"/><path d="m426 372h3v1h-3z"/><path d="m432 372h3v1h-3z"/><path d="m438 372h3v1h-3z"/><path d="m444 372h3v1h-3z"/><path d="m450 372h3v1h-3z"/><path d="m456 372h3v1h-3z"/><path d="m462 372h3v1h-3z"/><path d="m468 372h3v1h-3z"/><path d="m474 372h3v1h-3z"/><path d="m480 372h3v1h-3z"/><path d="m486 372h3v1h-3z"/><path d="m492 372h3v1h-3z"/><path d="m498 372h3v1h-3z"/><path d="m505 364h1v3h-1z"/><path d="m505 358h1v3h-1z"/><path d="m505 352h1v3h-1z"/><path d="m505 346h1v3h-1z"/><path d="m502.9 370.9 1.8-2.4.8.6-1.8 2.4z"/><path d="m185 372h3v1h-3z"/><path d="m179 372h3v1h-3z"/><path d="m173 372h3v1h-3z"/><path d="m167 372h3v1h-3z"/><path d="m161 372h3v1h-3z"/><path d="m155 372h3v1h-3z"/><path d="m149 372h3v1h-3z"/><path d="m143 372h3v1h-3z"/><path d="m137 372h3v1h-3z"/><path d="m131 372h3v1h-3z"/><path d="m125 372h3v1h-3z"/><path d="m336 372h3v1h-3z"/><path d="m342 372h3v1h-3z"/><path d="m348 372h3v1h-3z"/><path d="m354 372h3v1h-3z"/><path d="m360 372h3v1h-3z"/><path d="m366 372h3v1h-3z"/><path d="m372 372h3v1h-3z"/><path d="m378 372h3v1h-3z"/><path d="m384 372h3v1h-3z"/><path d="m390 372h3v1h-3z"/><path d="m396 372h3v1h-3z"/><path d="m402 372h3v1h-3z"/><path d="m408 372h3v1h-3z"/><path d="m414 372h3v1h-3z"/></g></svg>