<?xml version="1.0" encoding="utf-8"?>
<!-- Generator: Adobe Illustrator 15.0.0, SVG Export Plug-In . SVG Version: 6.00 Build 0)  -->
<!DOCTYPE svg PUBLIC "-//W3C//DTD SVG 1.1//EN" "http://www.w3.org/Graphics/SVG/1.1/DTD/svg11.dtd">
<svg version="1.1" id="Layer_1" xmlns="http://www.w3.org/2000/svg" xmlns:xlink="http://www.w3.org/1999/xlink" x="0px" y="0px"
	 width="595.28px" height="841.89px" viewBox="0 0 595.28 841.89" enable-background="new 0 0 595.28 841.89" xml:space="preserve">
<g>
	<linearGradient id="SVGID_1_" gradientUnits="userSpaceOnUse" x1="353.8389" y1="381.1929" x2="369.2342" y2="383.9075">
		<stop  offset="0" style="stop-color:#242B6F"/>
		<stop  offset="0.9758" style="stop-color:#37ACE1"/>
	</linearGradient>
	<polygon fill="url(#SVGID_1_)" points="355.314,372.824 369.594,381.868 352.467,389.58 	"/>
	<linearGradient id="SVGID_2_" gradientUnits="userSpaceOnUse" x1="323.3545" y1="385.7939" x2="352.3563" y2="390.9077">
		<stop  offset="0" style="stop-color:#242B6F"/>
		<stop  offset="0.9758" style="stop-color:#37ACE1"/>
	</linearGradient>
	<polygon fill="url(#SVGID_2_)" points="355.314,372.824 322.326,391.626 349.174,408.953 	"/>
	<linearGradient id="SVGID_3_" gradientUnits="userSpaceOnUse" x1="291.1768" y1="398.9775" x2="349.1313" y2="409.1965">
		<stop  offset="0" style="stop-color:#242B6F"/>
		<stop  offset="0.9758" style="stop-color:#37ACE1"/>
	</linearGradient>
	<polygon fill="url(#SVGID_3_)" points="349.174,408.953 296.242,425.328 295.53,374.288 	"/>
	<linearGradient id="SVGID_4_" gradientUnits="userSpaceOnUse" x1="298.4502" y1="412.8032" x2="348.1955" y2="421.5746">
		<stop  offset="0" style="stop-color:#242B6F"/>
		<stop  offset="0.9758" style="stop-color:#37ACE1"/>
	</linearGradient>
	<polygon fill="url(#SVGID_4_)" points="296.242,425.328 349.175,408.833 347.533,425.328 	"/>
	<linearGradient id="SVGID_5_" gradientUnits="userSpaceOnUse" x1="294.2656" y1="436.5342" x2="344.0109" y2="445.3056">
		<stop  offset="0" style="stop-color:#37ACE1"/>
		<stop  offset="1" style="stop-color:#242B6F"/>
	</linearGradient>
	<polygon fill="url(#SVGID_5_)" points="347.533,425.328 296.242,425.328 293.788,457.047 	"/>
	<linearGradient id="SVGID_6_" gradientUnits="userSpaceOnUse" x1="275.8813" y1="475.5918" x2="275.8813" y2="425.3281">
		<stop  offset="0" style="stop-color:#37ACE1"/>
		<stop  offset="1" style="stop-color:#242B6F"/>
	</linearGradient>
	<polygon fill="url(#SVGID_6_)" points="296.242,425.328 255.521,475.592 293.03,466.834 	"/>
	<linearGradient id="SVGID_7_" gradientUnits="userSpaceOnUse" x1="296.2417" y1="399.8076" x2="253.9741" y2="399.8076">
		<stop  offset="0" style="stop-color:#37ACE1"/>
		<stop  offset="1" style="stop-color:#242B6F"/>
	</linearGradient>
	<polygon fill="url(#SVGID_7_)" points="296.242,425.328 295.53,374.288 253.974,405.561 	"/>
	<linearGradient id="SVGID_8_" gradientUnits="userSpaceOnUse" x1="295.5303" y1="389.9243" x2="230.5068" y2="389.9243">
		<stop  offset="0" style="stop-color:#37ACE1"/>
		<stop  offset="1" style="stop-color:#2E5EA6"/>
	</linearGradient>
	<polyline fill="url(#SVGID_8_)" points="295.53,374.288 295.297,374.464 253.974,405.561 236.124,392.756 230.507,388.662 	"/>
	<linearGradient id="SVGID_9_" gradientUnits="userSpaceOnUse" x1="253.9824" y1="390.5767" x2="225.7075" y2="390.5767">
		<stop  offset="0" style="stop-color:#37ACE1"/>
		<stop  offset="1" style="stop-color:#4796E1"/>
	</linearGradient>
	<polygon fill="url(#SVGID_9_)" points="253.982,383.474 225.708,397.68 229.208,388.939 	"/>
	<linearGradient id="SVGID_10_" gradientUnits="userSpaceOnUse" x1="326.6768" y1="379.3921" x2="299.5254" y2="379.3921">
		<stop  offset="0" style="stop-color:#37ACE1"/>
		<stop  offset="1" style="stop-color:#2C62AA"/>
	</linearGradient>
	<polygon fill="url(#SVGID_10_)" points="326.677,389.146 300.382,367.158 299.525,376.869 322.326,391.626 	"/>
	
		<linearGradient id="SVGID_11_" gradientUnits="userSpaceOnUse" x1="176.7461" y1="372.0137" x2="192.481" y2="372.0137" gradientTransform="matrix(-1 0 0 1 477.1279 0)">
		<stop  offset="0" style="stop-color:#37ACE1"/>
		<stop  offset="1" style="stop-color:#2C62AA"/>
	</linearGradient>
	<polygon fill="url(#SVGID_11_)" points="295.53,374.288 299.525,376.869 300.382,367.158 284.647,376.704 	"/>
	<linearGradient id="SVGID_12_" gradientUnits="userSpaceOnUse" x1="233.8604" y1="376.1279" x2="300.3818" y2="376.1279">
		<stop  offset="0" style="stop-color:#173480"/>
		<stop  offset="1" style="stop-color:#37ACE1"/>
	</linearGradient>
	<polygon fill="url(#SVGID_12_)" points="300.382,367.158 284.647,376.758 246.643,385.097 233.86,372.497 	"/>
	<linearGradient id="SVGID_13_" gradientUnits="userSpaceOnUse" x1="230.3486" y1="374.8311" x2="237.9233" y2="374.8311">
		<stop  offset="0" style="stop-color:#1F2E69"/>
		<stop  offset="1" style="stop-color:#2488DE"/>
	</linearGradient>
	<polygon fill="url(#SVGID_13_)" points="230.349,377.165 237.923,376.502 233.86,372.497 	"/>
</g>
</svg>
