<svg viewBox="0 0 260 360" xmlns="http://www.w3.org/2000/svg"><path d="m105.4 157.2c-35.91-8.55-58.21-41.2-59.14-42.56l4.15-2.79c.22.32 22.17 32.4 56.15 40.49z" fill="#d6aa75"/><circle cx="52.72" cy="53.18" fill="#ffdd15" r="37.17"/><circle cx="52.72" cy="53.18" fill="#ffdd15" opacity=".2" r="50.53"/><path d="m51.1 116c-.26 2.46-.77 6.74-3.41 7.85-5.09 2.14-2.46-6.74-1.81-9.33a66.63 66.63 0 0 1 -5 8.85 20 20 0 0 1 -3.56 4.16c-1 .83-3.71 2.54-4.88 1s.81-4.61 1.61-5.9a18.19 18.19 0 0 1 10.28-7.63c-3.12.84-6.26 1.6-9.44 2.17a44.61 44.61 0 0 1 -6.1.77c-1.58.08-3.93.28-5.23-.87-3.67-3.26 6.67-5.45 8.29-5.8 6.34-1.36 11.33-.87 17.7 0l.45.06c.45-3.17 1.6-13.28 6.11-13.29 5.87.19-1.21 13.16-4.3 14.85z" fill="#e63d31"/><path d="m192.76 206.82-1-.79c-9.32-6.92-20.9-9.36-34.41-7.25l.85 5.43c12-1.88 22.17.21 30.26 6.2 15 11.09 18.09 32.1 18.12 32.31l5.42-.72c-.14-1-3.31-22.55-19.24-35.18z" fill="#d6aa75"/><path d="m147.44 249.22v14.53q-3.23.38-6.53.49c-1 0-2 .06-3 .06-1.18 0-2.35 0-3.51-.08s-2-.1-3.06-.18c-1.23-.09-2.46-.22-3.68-.36-1-.13-2-.28-3.06-.44-1.18-.19-2.35-.4-3.51-.64s-2.05-.43-3.06-.68q-1.8-.44-3.57-1l-.18-.05v-11.65z" fill="#592f26"/><path d="m147.44 212.12-.61 39.9-29.07-3.06 1.79-38.06z" fill="#fff2e3"/><path d="m126.17 217.52-3.52 31.64-3.61-.42 3.4-31.95z" fill="#754c28" opacity=".2"/><g fill="#68634d"><path d="m126.08 216.21-.19 11.09 5.85-8.19 4.27 8.67 2.29-9.54.59.16-2.69 11.17-4.26-8.66-1.43 29.4-.6-.03 1.43-29.53-6.09 8.53.22-13.09z" opacity=".51"/><path d="m128.1 230.12a1.91 1.91 0 0 0 -1.88 1.93 1.51 1.51 0 0 0 0 .3 1.93 1.93 0 0 0 1.4 1.71l.34.05a1.9 1.9 0 0 0 1.87-1.93 1.92 1.92 0 0 0 -1.73-2.06zm-.1 3.32a1.27 1.27 0 0 1 -1.17-1.37 1.26 1.26 0 0 1 1.25-1.28 1.33 1.33 0 0 1 -.08 2.65z" opacity=".51"/><path d="m127.91 236.26a1.91 1.91 0 0 0 -1.88 1.92 1.93 1.93 0 0 0 1.76 2.06 1.9 1.9 0 0 0 1.88-1.92 1.94 1.94 0 0 0 -1.76-2.06zm-.1 3.32a1.29 1.29 0 0 1 -1.17-1.37 1.27 1.27 0 0 1 1.25-1.29 1.29 1.29 0 0 1 1.17 1.38 1.26 1.26 0 0 1 -1.25 1.28z" opacity=".51"/><path d="m127.7 243.06a1.91 1.91 0 0 0 -1.88 1.93 1.93 1.93 0 0 0 1.76 2 1.9 1.9 0 0 0 1.88-1.92 1.93 1.93 0 0 0 -1.76-2.01zm-.1 3.32a1.29 1.29 0 0 1 -1.17-1.37 1.27 1.27 0 0 1 1.25-1.29 1.3 1.3 0 0 1 1.17 1.38 1.26 1.26 0 0 1 -1.25 1.28z" opacity=".51"/><path d="m147 229.07-5.64.18-.1 3h6v.67h-6l-.16 5.32a5.23 5.23 0 0 0 .9 2.32c1.05 1.47 2.77 2.1 5.11 1.87v.66a9.13 9.13 0 0 1 -1.27 0 5.56 5.56 0 0 1 -3.68-1.38 5.7 5.7 0 0 1 -1.72-3.49l.3-9.63 6.21-.2z" opacity=".51"/></g><path d="m142.69 251.46-3.28.1 3.05-32.6 3.69-.53z" fill="#754c28" opacity=".2"/><path d="m143.75 249.68-25.8-2.79-.76 6.3 26.57 1.99z" fill="#723d2e"/><path d="m158.5 253.73c0 1-.1 2-.16 2.85l-4.49-.38-11.61-1 .42-6.65.35-5.5 1.99-31.05 13.56-.72s.66 27.25-.06 42.45z" fill="#d6aa75"/><g fill="#7c4c1f"><path d="m145.32 243.06h-.16-.16l-.3-.06-.08 1.45.61.49.1-1.84zm0 0h-.16-.16l-.3-.06-.08 1.45.61.49.1-1.84zm0 0h-.16-.16l-.3-.06-.08 1.45.61.49.1-1.84zm11.09-1.06-9.42-.56-2.21-.13-.05 1v.67l-.08 1.45-.25 4.81v.65l-.1 1.88v.56l3.23.09h.43l8.7.23h.34zm-1 10-4.91-.13h-.31l-2.79-.08h-.61l-2-.06.07-1.36.06-1.11.15-3v-.32-1l.1-1.84v-.66-.45l1.6.1 8.82.52.17 3.65v.31l.25 5.47h-.79zm-10.13-8.92h-.16-.12l-.3-.06-.08 1.45.61.49.1-1.84zm0 0h-.16-.12l-.3-.06-.08 1.45.61.49.1-1.84zm0 0h-.16-.12l-.3-.06-.08 1.45.61.49.1-1.84z"/><path d="m150.43 242.72a1.12 1.12 0 0 0 -.79.3 1.28 1.28 0 0 0 -.4.91 1.21 1.21 0 0 0 1.11 1.29 1.09 1.09 0 0 0 .76-.3 1.32 1.32 0 0 0 .4-.91 1.21 1.21 0 0 0 -1.08-1.29zm.5 2a.77.77 0 0 1 -.56.22.88.88 0 0 1 -.81-1 .93.93 0 0 1 .29-.68.78.78 0 0 1 .57-.22.89.89 0 0 1 .81 1 1 1 0 0 1 -.3.64z"/><path d="m150.09 229.74-5.99-9.72.27-.17 5.73 9.3 8.43-12.69.27.17z"/><path d="m156.25 246.55c-.32-.06-6.93-.24-11.29-.34v-.31c11.32.26 11.39.33 11.45.4l-.12.1z"/><path d="m150.22 246.12h.32v6.04h-.32z"/></g><path d="m111.43 207.39s-5.75 30.58-7.28 44.85l15.56 1.22 4.91-42.54z" fill="#d6aa75"/><path d="m118.21 239.45-10-1.51-2.34 10.39 8.34 1.54 3.3.6.89.17.17-1.42v-.18l.25-2 .9-7.3zm.36 4.69v.32l-.31 2.46-.26 2.08v.24l-.08.67h-.27l-3.34-.62-1.67-.3-.31-.06-5.62-1 1.19-5.31.07-.3.8-3.55 9.47 1.43.87.13z" fill="#7c4c1f"/><path d="m114 239.92a1.05 1.05 0 0 0 -.82.2 1.29 1.29 0 0 0 .46 2.28h.18a1.07 1.07 0 0 0 .64-.21 1.29 1.29 0 0 0 -.46-2.28zm.65 1.39a1 1 0 0 1 -.37.63.74.74 0 0 1 -.59.14 1 1 0 0 1 -.33-1.7.79.79 0 0 1 .46-.15h.13a.93.93 0 0 1 .66 1.08z" fill="#7c4c1f"/><path d="m116.54 227.25-6.28-14.67.29-.13 6.09 14.22 7.23-7.93.24.21z" fill="#7c4c1f"/><path d="m118.72 244.49c-4.3-.81-10.82-2-11.14-2v-.14l-.12-.14c.08-.06.15-.12 11.32 2z" fill="#7c4c1f"/><path d="m109.89 246.07h6.02v.32h-6.02z" fill="#7c4c1f" transform="matrix(.18 -.98 .98 .18 -149.32 314.21)"/><path d="m125.2 254.35 9.3 1.04.66-7.1-9.29-1.04z" fill="#929497"/><path d="m132.11 253.33 2.41 1.79v.27l-9.29-1 .57-6.11c2.02 1.72 4.2 3.42 6.31 5.05z" fill="#231f20" opacity=".2"/><path d="m195.53 174.08c-.37-1.46-2.47-37.18-2.47-37.18l-83.24-25.06s-24.82 21.43-25.11 23.48-3.13 37.82-3 39.06 21.14 20.91 21.14 20.91l54.89 10.14 24.39-14.07z" fill="#fff"/><ellipse cx="124.11" cy="137.98" fill="#e63d31" rx="7.05" ry="4.74" transform="matrix(.32 -.95 .95 .32 -46.7 210.56)"/><path d="m158.5 253.73c0 1-.1 2-.16 2.85l-4.49-.38a99.05 99.05 0 0 1 -11.19-7.62c-19.89-15.63-28-34.22-28.44-35.19l4.08-1.75a85.31 85.31 0 0 0 10.11 16.17 100.6 100.6 0 0 0 14.59 15.27 93.64 93.64 0 0 0 15.5 10.65z" fill="#723d2e"/><path d="m205.62 154.86a21.75 21.75 0 0 1 3.79 4.83 103.18 103.18 0 0 1 6.44 12.74 32.85 32.85 0 0 0 -2.8-11.35 71.94 71.94 0 0 0 -10.76-17.08c.17-.18.34-.35.5-.53l1.22-1.33.07-.08c-1.4-.2-2.8-.41-4.19-.64s-2.95-.5-4.43-.76l-2.2-.41c-1.24-.23-2.47-.48-3.7-.73-11.23-2.29-22.35-5.27-33.31-8.67a51.24 51.24 0 0 1 0 5.68v.39c0 .77-.11 1.54-.19 2.3-.14 1.39-.35 2.76-.61 4.09a35.45 35.45 0 0 1 -1.39 5c-4.46 12.48-16.45 19.59-26.77 15.89s-15.07-16.8-10.59-29.28a30.21 30.21 0 0 1 1.22-3 43.46 43.46 0 0 1 3.52-6.09l.79-1.11q.89-1.23 1.86-2.4c.66-.82 1.36-1.61 2.07-2.37a85 85 0 0 1 -12.84-7.13q-2.08-1.41-4-3a31.54 31.54 0 0 1 -5.72.82 27.39 27.39 0 0 1 -7.65-.67l-2.23 5.21-.38.89q-.56 0-1.08.09h-.29l-.6.07-.45.06-.87.14-.41.07-.42.08-1.1.23-.56.14h-.08l-.26.06-.4.11-.78.22-.91.28-.74.26-.33.11-.38.14-.53.21-.26.1-.5.21-.29.13-.29.12-.41.19-.31.15-.51.24c-.51.25-1 .5-1.42.75a25.36 25.36 0 0 0 -4 2.64 6.75 6.75 0 0 1 2.69-.16 37.46 37.46 0 0 1 5.35 1 38 38 0 0 0 -11.61 6.27 33.59 33.59 0 0 0 -10.17 13 9.19 9.19 0 0 1 3-2 8.59 8.59 0 0 1 3.57-.62c-13.21 16.93-.86 26.58-.86 26.58-.38-1.13.79-6.42.79-6.42.51 15.41 10.49 29.07 10.81 29.49-.44-2 .11-11.27.11-11.27.4 10.46 10 20.54 10.32 20.85-1.07-1.67-1-11-1-11a39.84 39.84 0 0 0 10.58 17c.22.21.43.39.64.57a49.73 49.73 0 0 0 4 3.2 51.25 51.25 0 0 0 5.13 3.19c.6.33 1.2.64 1.8.94l.59.28.43.2c1.36.63 2.73 1.21 4.12 1.72 1.27.47 2.55.89 3.84 1.27.78.23 1.55.44 2.33.64l.73.18 1.45.33c.56.12 1.12.24 1.67.34l.61.12q2.7.48 5.39.77l.55.06c2 .2 4 .32 5.9.38h.63 3.85 1.85.27l1.52-.07 1.32-.08c3.53-.24 6.82-.64 9.73-1.1l.43-.07 1.21-.2a94.86 94.86 0 0 0 11.29-2.6 38.34 38.34 0 0 1 -11.23 7.3 32.34 32.34 0 0 1 -5.34 1.81c1.86 0 3.65-.07 5.36-.2a52.51 52.51 0 0 0 22.44-6.46 40.83 40.83 0 0 0 5.85-4 31.4 31.4 0 0 0 8.17-9.76c-.62 2.74-2.67 7-4.46 10.36-1.32 2.5-2.51 4.53-2.87 5.15l-.11.19.26-.16a28.29 28.29 0 0 0 5.84-5c9.62-10.65 13.24-28.14 13.78-31 1.64 4.53-.73 13.89-.73 13.89 10.28-11.44 4-30.58.55-38.92-1.1-2.46-1.91-4-1.91-4zm-19.47-2.34c3.39 3.09 3.75 10.47 3.75 10.47l-.35 3.12c-2.84-19-14.65-10.88-15-10.63 3-2.7 5.4-3.95 7.34-4.25a5 5 0 0 1 4.26 1.29zm-35.06 38.48c21.18-7.79 29.85-31.7 29.93-31.94a.73.73 0 0 1 1.37.48c-.09.25-9 24.78-30.78 32.82a41.12 41.12 0 0 1 -8 2.06c-12.1 1.88-25.6-1.44-40.24-9.93a.72.72 0 0 1 .73-1.25c17.59 10.18 33.38 12.76 46.99 7.76zm-58.82-45.18c-.17-5.58 8.59 0 16.43 5.25s-13 7.22-13 7.22-3.27-6.91-3.43-12.47zm18.16-10.89c-1.35 3.66-4.44 5.88-6.89 5s-3.35-4.6-2-8.26a9.46 9.46 0 0 1 2.53-3.79 4.38 4.38 0 0 1 4.36-1.18 4.18 4.18 0 0 1 2.46 3.23 9.1 9.1 0 0 1 -.46 5zm96.76 48.52c0-.27.05-.43.05-.43a3.54 3.54 0 0 1 .23.48z" fill="#e63d31"/><path d="m210.22 142.07s-89 3.61-114.29-41.77l109.2 33.23s4.31 5.23 5.09 8.54z" fill="#231f20" opacity=".2"/><path d="m210 133.16c-.28.71-.56 1.42-.87 2.11-.39.92-.8 1.83-1.25 2.71a55.92 55.92 0 0 1 -3.47 6.1l-104.78-40.23a55.18 55.18 0 0 1 1.5-6.85c.26-1 .56-1.91.88-2.86.24-.71.5-1.43.77-2.14a57.42 57.42 0 0 1 108.31 38c-.33 1.09-.69 2.12-1.09 3.16z" fill="#d6aa75"/><path d="m119.66 94.23-.52-.18a55.25 55.25 0 0 1 11.86-18.57c8-8.33 22.51-18 46-16.79v.56c-23.22-1.22-37.56 8.36-45.5 16.6a54.52 54.52 0 0 0 -11.84 18.38z" fill="#723d2e"/><circle cx="176.97" cy="58.97" fill="#d6aa75" r="5.91"/><path d="m194.62 94a12.81 12.81 0 0 0 4.84-5c2.25-5-2.7-8.66-7.21-6.21a14.15 14.15 0 0 0 -4.39 4.21c1.17-1.79-.29-4.45-2.37-5a5.62 5.62 0 0 0 -5.55 2.44 15.05 15.05 0 0 0 -2.24 6c-.1-1.47-.36-3.17-1.65-3.87a2.87 2.87 0 0 0 -3 .35 6.43 6.43 0 0 0 -1.9 2.49c-2.61 5.16-3.46 13.57.64 18.3-1.85 1.93-3.59 3.8-5.17 5.49a.62.62 0 0 0 0 .88.63.63 0 0 0 .42.17.65.65 0 0 0 .46-.2c1.57-1.68 3.3-3.54 5.13-5.46l.3.26c4.73 3.85 13.83 4 19.27 2a8.32 8.32 0 0 0 3.51-2.09 4 4 0 0 0 1-3.81 2.72 2.72 0 0 0 -3-1.83 9.79 9.79 0 0 0 5.08-3.44c.87-1.14 1.49-2.7.88-4-.74-1.68-3.12-1.86-5.05-1.68z" fill="#231f20" opacity=".2"/><path d="m172.23 107.46-.39-.19c-6-3.16-7.41-12.25-6-18.25a6.57 6.57 0 0 1 1.25-2.87 2.92 2.92 0 0 1 2.81-1.06c1.42.37 2.08 2 2.54 3.36a15 15 0 0 1 .73-6.33 5.63 5.63 0 0 1 4.81-3.7c2.14 0 4.18 2.22 3.48 4.24a14.25 14.25 0 0 1 3.24-5.19c3.79-3.46 9.47-1.1 8.49 4.3a12.72 12.72 0 0 1 -3.5 6c1.84-.59 4.2-1 5.41.52.91 1.12.68 2.77.11 4.09a9.78 9.78 0 0 1 -4.36 4.71 2.66 2.66 0 0 1 3.59.91 4 4 0 0 1 -.07 3.94 8.42 8.42 0 0 1 -2.9 2.88c-4.87 3.18-13.72 5.25-19.24 2.64z" fill="#37b34a"/><path d="m167.66 114.13a.56.56 0 0 1 -.3-.08.61.61 0 0 1 -.24-.84c4.15-7.45 9.83-17.66 15.75-25.15a.61.61 0 0 1 .87-.1.62.62 0 0 1 .11.87c-5.86 7.41-11.52 17.57-15.65 25a.6.6 0 0 1 -.54.3z" fill="#2d4c42"/><path d="m175.32 101.38a.63.63 0 0 1 -.62-.51.62.62 0 0 1 .51-.72l8.61-1.56a.63.63 0 0 1 .73.5.62.62 0 0 1 -.51.72l-8.61 1.56z" fill="#2d4c42"/><path d="m178.16 96.22a.62.62 0 0 1 -.58-.66l.6-8.13a.6.6 0 0 1 .66-.57.62.62 0 0 1 .58.66l-.6 8.13a.62.62 0 0 1 -.66.57z" fill="#2d4c42"/><path d="m210 133.16c-.64 1.66-1.34 3.27-2.12 4.82l-106.75-40.98q.7-2.52 1.65-5a57.21 57.21 0 0 1 2.94-6.45l105.37 44.45c-.33 1.09-.69 2.12-1.09 3.16z" fill="#723d2e"/><path d="m207.19 158.84-21-6.32-4.27-1.29-26.42-7.93-37.57-11.3-7.05-2.12-6.82-2.05-24.94-7.49a33.93 33.93 0 0 1 14.19-4.21l2.61-6.1 28.18 12.37 32.18 14.12z" fill="#754c28" opacity=".2"/><path d="m226.72 166.33-158.56-60.87c7.84-6.6 19.69-10.46 33.84-11.32h.06l107 41.09c10.01 10.18 16.27 20.98 17.66 31.1z" fill="#d6aa75"/><path d="m198.73 155.59-130.57-50.13c7.84-6.6 19.69-10.46 33.84-11.32.24-.71.5-1.43.77-2.14a57.37 57.37 0 0 1 43-35.86c9.29 8.66 21.81 27.24 6 57.09 0 0 1.24.41 3.31 1.27 6.61 2.74 21.77 10.06 33.09 23.35a58.69 58.69 0 0 1 10.56 17.74z" fill="#754c28" opacity=".2"/><path d="m52.72 98.57q0-4.33-.12-8.64c-.23-6.51-.79-13.1-.2-19.54l-7.72-.39q-.32 14-.68 28.09c0 1.91-.1 3.81-.14 5.72 0 1.14 0 2.28-.08 3.42-.1 3.16-.23 6.33-.57 9.48-.06.6-.14 1.2-.21 1.8-.35 2.77-.83 5.53-1.38 8.27-1.51 7.55-3.51 15-4.61 22.65a4.51 4.51 0 0 0 .09 2.42c1.3 3.12 9.19 2.91 9.19 2.91 3.37-7.24 4-15.4 4.65-23.36q.24-3.06.46-6.11c.17-2.35.34-4.69.49-7 .23-3.52.43-7 .57-10.55.16-3.08.24-6.12.26-9.17z" fill="#723d2e"/><path d="m51.93 118.26c-.15 2.34-.32 4.68-.49 7l-9.78 1.49c.55-2.74 1-5.5 1.38-8.27.07-.6.15-1.2.21-1.8.34-3.15.47-6.32.57-9.48 0-1.14.06-2.28.08-3.42 0-1.91.09-3.81.14-5.72l8.68.48c0 3.05-.1 6.09-.22 9.14-.14 3.54-.34 7.06-.57 10.58z" fill="#fff2e3"/><path d="m51.93 118.26-8.89.25c.07-.6.15-1.2.21-1.8.34-3.15.47-6.32.57-9.48l8.68.48c-.14 3.51-.34 7.03-.57 10.55z" fill="#754c28" opacity=".2"/><path d="m40.15 145c-.86-3.77.4-7.48 1.36-11.09 1.06-4 2-8.05 2.87-12.11a110.92 110.92 0 0 0 2.08-25.8c-.27-8.77-.53-17.3 1.55-25.82l-3.33-.18q-.32 14-.68 28.09c0 1.91-.1 3.81-.14 5.72 0 1.14 0 2.28-.08 3.42-.1 3.16-.23 6.33-.57 9.48-.06.6-.14 1.2-.21 1.8-.35 2.77-.83 5.53-1.38 8.26-1.51 7.56-3.51 15-4.61 22.66a4.51 4.51 0 0 0 .09 2.42c1.3 3.12 9.19 2.91 9.19 2.91.32-.69.62-1.4.89-2.12-3.4-1.49-6.18-4-7.03-7.64z" fill="#754c28" opacity=".2"/><path d="m42.64 82.25s-18.09-10-14.86-26.17c0 0 5.85.47 7.44 7.68 0 0-.09-15.76 5.7-22.11 0 0 2.06 7.38 3 10.46-1-3.32 2.13-6 3.68-8.54a14.8 14.8 0 0 0 1.83-4.57c.23-1 1-4.44.16-5.33 0 0 7.64 8.14 5.49 17.87a6.61 6.61 0 0 1 1.53-2.4 33.53 33.53 0 0 1 3.22-2.74 7.53 7.53 0 0 0 2-3.45 19.07 19.07 0 0 0 .71-3.42s9.21 19.59 1.73 27.36c0 0 2.41 1.65 4.37.85 0 0-1.1 20.14-20.19 17.57z" fill="#f6921e"/><path d="m59.17 67.64a9.82 9.82 0 0 1 -.32 2c-.06.2-.12.41-.19.6l-2.9 8.58-1.91 5.64s-5.63 3.09-11.21-2.2l-1.09-5.36-1.55-7.84a8.8 8.8 0 0 1 -.17-1.33 9.71 9.71 0 1 1 19.39-.09z" fill="#ffdd15"/><path d="m45.6 80.42c-1.2-.27-2.38-.56-3.52-.9l.56 2.73c5.58 5.29 11.21 2.2 11.21 2.2l1.09-3.24a34.43 34.43 0 0 1 -9.34-.79z" fill="#f6921e"/><path d="m58.85 69.63c-.06.2-.12.41-.19.6l-2.9 8.58a35.18 35.18 0 0 1 -14.21-1.91l-1.55-7.84a8.8 8.8 0 0 1 -.17-1.33 23.86 23.86 0 0 0 19.02 1.9z" fill="#f05a28" opacity=".5"/><path d="m56 59.93c-5.79 2.29-9.45.34-11.28-1.27a9.72 9.72 0 0 1 11.28 1.27z" fill="#f05a28" opacity=".72"/><path d="m35.79 47.86s-6-5.92 1.46-8.54c0 0-2.98 3.95-1.46 8.54z" fill="#f6921e"/><path d="m64.11 35.36s7.17 1.57 2.45 9a11.29 11.29 0 0 0 -2.45-9z" fill="#f6921e"/><path d="m70.19 77.34s3.76.41 2.81-3a5.9 5.9 0 0 1 -2.81 3z" fill="#f6921e"/><path d="m211.26 238.06c1.73-1.77 4.79-4.81 7.55-4 5.32 1.48-2.26 6.8-4.38 8.44a64.81 64.81 0 0 1 9.45-3.81 19.74 19.74 0 0 1 5.37-1c1.32 0 4.48.31 4.48 2.21s-3.5 3.11-4.93 3.62a18.13 18.13 0 0 1 -12.8-.52c3 1.29 5.89 2.64 8.74 4.16a46.9 46.9 0 0 1 5.26 3.19c1.28.92 3.25 2.23 3.55 3.94.85 4.83-8.61.12-10.09-.61-5.82-2.87-9.43-6.36-13.85-11l-.31-.34c-2.33 2.21-9.51 9.42-13.05 6.62-4.48-3.8 9.12-9.56 12.6-9z" fill="#e63d31"/><path d="m116.99 260.9h5.54v83.12h-5.54z" fill="#592f26"/><path d="m136.12 260.9h5.54v69h-5.54z" fill="#592f26"/><path d="m260 359.84c-13.62-59.18-53.56-58.34-69.06-55.62a29.79 29.79 0 0 0 -17.94-15.83c-10.4-3.37-22.82-1-31 5.84-12 10-13.51 26.57-13.8 41.39-3.77-3.73-10.8-4.16-15.16-.94a10.07 10.07 0 0 0 -3.78 5.76 9.55 9.55 0 0 0 1.55 8c-3.08-2.81-6.21-5.62-9.52-8.21a61.34 61.34 0 0 0 -14.08-8.58 39.85 39.85 0 0 0 -9.42-2.65 35.93 35.93 0 0 0 -7.31-.41h-.2a29.4 29.4 0 0 0 -5.94.91l-1.06.29a25.47 25.47 0 0 0 -5.07 2.21 19.46 19.46 0 0 0 -4.73 3.81l-.09.1c-5.09 5.68-6.72 14.07-2.19 20-4.81-6-16.24-6.07-21.21 0-6.8-3.64-15.58-1.14-21 4z" fill="#347361"/><path d="m68.48 336.32a43.38 43.38 0 0 0 18-20.25c1.16-2.7 2-5.68 1.38-8.53s-3.39-5.4-6.28-4.94c-2 .32-3.61 2-4.79 3.66-5.47 7.74-6.13 17.74-6.6 27.21.41-6.58-.25-13.42-3.42-19.2a20.42 20.42 0 0 0 -8.77-8.55c-3.62-1.77-10.29-3.3-10.93 2.35-.59 5.2 4 11.23 7.4 14.74 3.88 4 8.67 7 13.41 9.95a31.71 31.71 0 0 0 -16.38-9.21c-3.23-.68-7.29-.49-8.93 2.37-1.5 2.63.09 6.15 2.63 7.79s5.69 1.91 8.71 2.12l13.68 1z" fill="#347361"/><path d="m225.26 310.31a20.28 20.28 0 0 1 -8.15-9.67 6.47 6.47 0 0 1 -.54-4 2.84 2.84 0 0 1 3-2.23 3.65 3.65 0 0 1 2.19 1.77c2.45 3.68 2.64 8.36 2.75 12.78a16.42 16.42 0 0 1 1.82-8.93 9.55 9.55 0 0 1 4.19-3.89c1.71-.78 4.84-1.42 5.07 1.22.22 2.44-2 5.2-3.63 6.8a31.4 31.4 0 0 1 -6.37 4.49 14.85 14.85 0 0 1 7.75-4.11c1.52-.28 3.42-.14 4.15 1.21a2.91 2.91 0 0 1 -1.32 3.61 8.48 8.48 0 0 1 -4.09.89l-6.4.29z" fill="#347361"/><path d="m170.64 348a48.83 48.83 0 0 0 21.36 11.84h9.78l11.24-5.79c3-1.56 6.18-3.23 8.08-6.05s2-7.18-.73-9.23c-3-2.24-7.26-.63-10.3 1.51a35.22 35.22 0 0 0 -5.14 4.46c.63-1.28 1.22-2.58 1.73-3.92 2-5.12 4.05-13.42 1.13-18.54-3.16-5.56-9.38-1-12.34 2.42a23 23 0 0 0 -5.29 12.72c-.67 6.92 1.35 13.83 4.35 20.12-4.51-9.18-9.57-18.62-18.22-24-2-1.23-4.33-2.24-6.59-1.67-3.2.81-4.88 4.65-4.31 7.9s2.86 5.96 5.25 8.23z" fill="#21534e"/></svg>