<svg enable-background="new 215 -215 700 700" height="700" viewBox="215 -215 700 700" width="700" xmlns="http://www.w3.org/2000/svg" xmlns:xlink="http://www.w3.org/1999/xlink"><linearGradient id="a" gradientTransform="matrix(1 0 0 -1 0 270)" gradientUnits="userSpaceOnUse" x1="568.6223" x2="566.5065" y1="496.1991" y2="215.8687"><stop offset="0" stop-color="#f2c086"/><stop offset=".05274168" stop-color="#f3aa8c"/><stop offset=".1315" stop-color="#d37a6e"/><stop offset=".3231" stop-color="#4f5764"/><stop offset=".5913" stop-color="#0c3c4c"/><stop offset="1" stop-color="#1c292e"/></linearGradient><linearGradient id="b"><stop offset="0" stop-color="#4f5764"/><stop offset=".6682" stop-color="#293942"/><stop offset="1" stop-color="#0f1c21"/></linearGradient><linearGradient id="c" gradientTransform="matrix(.8895 .457 .457 -.8895 677.9409 -2384.6621)" gradientUnits="userSpaceOnUse" x1="1028.1904" x2="1008.3552" xlink:href="#b" y1="-2105.9951" y2="-2088.6113"/><linearGradient id="d"><stop offset="0" stop-color="#f2c086"/><stop offset=".08108176" stop-color="#f3aa8c"/><stop offset=".1841" stop-color="#d37a6e"/><stop offset=".6682" stop-color="#d0d1d3"/><stop offset="1" stop-color="#cdd2d1"/></linearGradient><linearGradient id="e" gradientTransform="matrix(1 0 0 -1 0 270)" gradientUnits="userSpaceOnUse" x1="642.6465" x2="649.8132" xlink:href="#d" y1="391.8137" y2="327.8137"/><linearGradient id="f" gradientTransform="matrix(.8895 .457 .457 -.8895 677.9409 -2384.6621)" gradientUnits="userSpaceOnUse" x1="1026.9347" x2="1053.9736" y1="-2056.2344" y2="-2047.4386"><stop offset="0" stop-color="#111c21"/><stop offset="1" stop-color="#201c1d"/></linearGradient><linearGradient id="g" gradientTransform="matrix(1 0 0 -1 0 270)" gradientUnits="userSpaceOnUse" x1="512.9449" x2="528.1949" y1="344.7894" y2="332.4144"><stop offset="0" stop-color="#f2c086"/><stop offset=".08108176" stop-color="#f3aa8c"/><stop offset=".1841" stop-color="#d37a6e"/><stop offset=".5136" stop-color="#4f5764"/><stop offset=".7306" stop-color="#293942"/><stop offset="1" stop-color="#0f1c21"/></linearGradient><linearGradient id="h" gradientTransform="matrix(.8895 .457 .457 -.8895 677.9409 -2384.6621)" gradientUnits="userSpaceOnUse" x1="921.5203" x2="1012.1487" xlink:href="#d" y1="-2101.1213" y2="-2101.1213"/><linearGradient id="i" gradientTransform="matrix(1 0 0 -1 0 270)" gradientUnits="userSpaceOnUse" x1="525.5176" x2="541.0176" y1="351.5702" y2="331.0702"><stop offset="0" stop-color="#f2c086"/><stop offset=".08108176" stop-color="#f3aa8c"/><stop offset=".1384" stop-color="#e08e7a"/><stop offset=".1841" stop-color="#d37a6e"/><stop offset=".4162" stop-color="#4f5764"/><stop offset=".6682" stop-color="#293942"/><stop offset="1" stop-color="#0f1c21"/></linearGradient><linearGradient id="j" gradientTransform="matrix(.8895 .457 .457 -.8895 677.9409 -2384.6621)" gradientUnits="userSpaceOnUse" x1="956.7941" x2="979.1146" xlink:href="#b" y1="-2123.615" y2="-2123.615"/><linearGradient id="k" gradientTransform="matrix(.8895 .457 .457 -.8895 677.9409 -2384.6621)" gradientUnits="userSpaceOnUse" x1="911.5096" x2="949.9388" xlink:href="#d" y1="-2090.5288" y2="-2090.5288"/><linearGradient id="l"><stop offset=".339" stop-color="#0f1e24"/><stop offset="1" stop-color="#332f2f"/></linearGradient><linearGradient id="m" gradientTransform="matrix(.8895 .457 .457 -.8895 677.9409 -2384.6621)" gradientUnits="userSpaceOnUse" x1="998.2144" x2="1031.7042" xlink:href="#l" y1="-2059.0439" y2="-2059.0439"/><linearGradient id="n" gradientTransform="matrix(.8895 .457 .457 -.8895 677.9409 -2384.6621)" gradientUnits="userSpaceOnUse" x1="919.6144" x2="927.4465" y1="-2095.7495" y2="-2083.7512"><stop offset="0" stop-color="#f2c086"/><stop offset=".3086" stop-color="#f3aa8c"/><stop offset=".5775" stop-color="#d37a6e"/><stop offset="1" stop-color="#a28884"/></linearGradient><linearGradient id="o"><stop offset="0" stop-color="#f2c086"/><stop offset=".08108176" stop-color="#f3aa8c"/><stop offset=".1841" stop-color="#d37a6e"/><stop offset=".4162" stop-color="#4f5764"/><stop offset=".6682" stop-color="#293942"/><stop offset="1" stop-color="#0f1c21"/></linearGradient><linearGradient id="p" gradientTransform="matrix(.8895 .457 .457 -.8895 677.9409 -2384.6621)" gradientUnits="userSpaceOnUse" x1="913.2404" x2="982.2673" xlink:href="#o" y1="-2109.1851" y2="-2109.1851"/><linearGradient id="q" gradientTransform="matrix(.8939 .4484 .4484 -.8939 675.5277 -2377.626)" gradientUnits="userSpaceOnUse" x1="938.8642" x2="951.6905" xlink:href="#d" y1="-2094.7258" y2="-2078.1433"/><linearGradient id="r" gradientTransform="matrix(.8895 .457 .457 -.8895 677.9409 -2384.6621)" gradientUnits="userSpaceOnUse" x1="972.9385" x2="1012.6955" y1="-2084.5674" y2="-2084.5674"><stop offset="0" stop-color="#929497"/><stop offset="1" stop-color="#a6a8ac"/></linearGradient><linearGradient id="s"><stop offset=".2638" stop-color="#293942"/><stop offset="1" stop-color="#0f1c21"/></linearGradient><linearGradient id="t" gradientTransform="matrix(.8895 .457 .457 -.8895 677.9409 -2384.6621)" gradientUnits="userSpaceOnUse" x1="955.6743" x2="955.7567" xlink:href="#s" y1="-2098.915" y2="-2093.2283"/><linearGradient id="u" gradientTransform="matrix(.8895 .457 .457 -.8895 677.9409 -2384.6621)" gradientUnits="userSpaceOnUse" x1="936.4908" x2="940.4468" y1="-2122.5688" y2="-2100.3167"><stop offset="0" stop-color="#808285"/><stop offset="1" stop-color="#4d5051"/></linearGradient><linearGradient id="v" gradientTransform="matrix(.8895 .457 .457 -.8895 677.9409 -2384.6621)" gradientUnits="userSpaceOnUse" x1="903.4814" x2="974.077" xlink:href="#o" y1="-2108.5398" y2="-2108.5398"/><linearGradient id="w"><stop offset="0" stop-color="#f3aa8c"/><stop offset=".2348" stop-color="#d37a6e"/><stop offset=".5708" stop-color="#4f5764"/><stop offset="1" stop-color="#808184"/></linearGradient><linearGradient id="x" gradientTransform="matrix(.8939 .4484 .4484 -.8939 675.5277 -2377.626)" gradientUnits="userSpaceOnUse" x1="940.7511" x2="953.3874" xlink:href="#w" y1="-2095.79" y2="-2079.4531"/><linearGradient id="y" gradientTransform="matrix(.8785 .4778 .4778 -.8785 683.4372 -2401.3662)" gradientUnits="userSpaceOnUse" x1="1006.6492" x2="1019.2004" xlink:href="#d" y1="-2083.3235" y2="-2067.0967"/><linearGradient id="z" gradientTransform="matrix(.8785 .4778 .4778 -.8785 683.4372 -2401.3662)" gradientUnits="userSpaceOnUse" x1="1007.6741" x2="1020.2645" xlink:href="#w" y1="-2084.1978" y2="-2067.9202"/><linearGradient id="A" gradientTransform="matrix(.8895 .457 .457 -.8895 677.9409 -2384.6621)" gradientUnits="userSpaceOnUse" x1="1018.3776" x2="1027.7495" xlink:href="#l" y1="-2081.3108" y2="-2081.3108"/><linearGradient id="B" gradientTransform="matrix(1 0 0 -1 0 270)" gradientUnits="userSpaceOnUse" x1="616.2582" x2="632.8574" y1="377.7834" y2="338.4196"><stop offset="0" stop-color="#854c43"/><stop offset=".6682" stop-color="#abadaf"/><stop offset="1" stop-color="#cdd2d1"/></linearGradient><linearGradient id="C" gradientTransform="matrix(.8895 .457 .457 -.8895 677.9409 -2384.6621)" gradientUnits="userSpaceOnUse" x1="989.6072" x2="1007.3871" y1="-2076.896" y2="-2076.896"><stop offset=".4162" stop-color="#4f5764"/><stop offset=".6682" stop-color="#293942"/><stop offset="1" stop-color="#0f1c21"/></linearGradient><clipPath id="D"><circle cx="565.9" cy="134.5" r="343.8"/></clipPath><linearGradient id="E"><stop offset="0" stop-color="#fff"/><stop offset="1" stop-color="#d1d3d4"/></linearGradient><linearGradient id="F" gradientTransform="matrix(1 0 0 -1 0 270)" gradientUnits="userSpaceOnUse" x1="589.7664" x2="348.6917" xlink:href="#E" y1="62.3365" y2="207.5292"/><clipPath id="G"><circle cx="565.9" cy="134.5" r="343.8"/></clipPath><linearGradient id="H" gradientTransform="matrix(.7871 -.6168 -.6168 -.7871 115.0148 754.7249)" gradientUnits="userSpaceOnUse" x1="790.2088" x2="666.9303" y1="-133.9819" y2="-75.0775"><stop offset="0" stop-color="#8f9294"/><stop offset=".5417" stop-color="#535659"/></linearGradient><linearGradient id="I"><stop offset="0" stop-color="#775950"/><stop offset=".1391" stop-color="#4e5763"/><stop offset="1" stop-color="#0e1c22"/></linearGradient><linearGradient id="J" gradientTransform="matrix(.7766 -.63 -.63 -.7766 126.4623 777.3275)" gradientUnits="userSpaceOnUse" x1="713.1075" x2="816.7172" xlink:href="#I" y1="-161.8699" y2="-160.8458"/><linearGradient id="K" gradientTransform="matrix(.7766 -.63 -.63 -.7766 126.4623 777.3275)" gradientUnits="userSpaceOnUse" x1="748.1202" x2="792.0264" xlink:href="#s" y1="-148.7813" y2="-148.7813"/><linearGradient id="L" gradientTransform="matrix(.6721 -.7312 -.7018 -.6451 177.2994 910.5649)" gradientUnits="userSpaceOnUse" x1="806.3007" x2="857.0488" xlink:href="#s" y1="-179.8645" y2="-179.8645"/><clipPath id="M"><path d="m842.8 432.4 3.7 5.6 5.1 4.3 1.7 1.9 12.4-3.7 14.2-13.1 7-13.4-4-11-8.4-7.5-14.3-2.2-2.1 2.1-2.4 8.7-12 12.1-5.4 4.9z"/></clipPath><clipPath id="N" clip-path="url(#M)"><path d="m842.8 432.4 3.7 5.6 5.1 4.3 1.7 1.9 12.4-3.7 14.2-13.1 7-13.4-4-11-8.4-7.5-14.3-2.2-2.1 2.1-2.4 8.7-12 12.1-5.4 4.9z"/></clipPath><clipPath id="O" clip-path="url(#N)"><path d="m842.8 432.4 3.7 5.6 5.1 4.3 1.7 1.9 12.4-3.7 14.2-13.1 7-13.4-4-11-8.4-7.5-14.3-2.2-2.1 2.1-2.4 8.7-12 12.1-5.4 4.9z"/></clipPath><linearGradient id="P"><stop offset="0" stop-color="#202f38"/><stop offset="1" stop-color="#0f1c21"/></linearGradient><linearGradient id="Q" gradientTransform="matrix(.6721 -.7312 -.8362 -.7686 131.3763 868.3412)" gradientUnits="userSpaceOnUse" x1="827.3285" x2="820.8956" xlink:href="#P" y1="-206.6634" y2="-206.6634"/><linearGradient id="R" gradientTransform="matrix(.6092 -.7844 -.904 -.7021 165.1875 936.0389)" gradientUnits="userSpaceOnUse" x1="852.3179" x2="845.6464" xlink:href="#P" y1="-204.6232" y2="-204.6232"/><linearGradient id="S" gradientTransform="matrix(.4969 -.8599 -.9911 -.5727 238.1811 1044.4191)" gradientUnits="userSpaceOnUse" x1="882.3094" x2="875.6378" xlink:href="#P" y1="-200.2831" y2="-200.2831"/><linearGradient id="T" gradientTransform="matrix(.7871 -.6168 -.6168 -.7871 115.0148 754.7249)" gradientUnits="userSpaceOnUse" x1="536.442" x2="696.2455" y1="-96.3723" y2="-96.3723"><stop offset="0" stop-color="#8f9294"/><stop offset=".5417" stop-color="#65686b"/></linearGradient><linearGradient id="U" gradientTransform="matrix(.7779 -.6284 -.6284 -.7779 172.3857 803.7864)" gradientUnits="userSpaceOnUse" x1="520.1522" x2="736.1765" y1="12.5207" y2="12.5207"><stop offset="0" stop-color="#58595b"/><stop offset=".3157" stop-color="#d0d1d3"/><stop offset="1" stop-color="#a6a8ac"/></linearGradient><linearGradient id="V" gradientTransform="matrix(.7779 -.6284 -.6284 -.7779 172.3857 803.7864)" gradientUnits="userSpaceOnUse" x1="620.6932" x2="623.161" y1="5.6807" y2="35.6035"><stop offset=".2638" stop-color="#293a42"/><stop offset="1" stop-color="#111c21"/></linearGradient><linearGradient id="W" gradientTransform="matrix(.7779 -.6284 -.6284 -.7779 172.3857 803.7864)" gradientUnits="userSpaceOnUse" x1="616.7141" x2="627.1404" y1="-1.018" y2="81.7607"><stop offset="0" stop-color="#4f5764"/><stop offset="1" stop-color="#5d6062"/></linearGradient><linearGradient id="X"><stop offset="0" stop-color="#929497"/><stop offset="1" stop-color="#293a42"/></linearGradient><linearGradient id="Y" gradientTransform="matrix(-.995 .09987602 -.09987602 -.995 1814.3662 128.9282)" gradientUnits="userSpaceOnUse" x1="1175.4233" x2="1149.2565" xlink:href="#X" y1="-3.1719" y2="-19.1702"/><linearGradient id="Z" gradientTransform="matrix(-.9973 .07404365 -.07404365 -.9973 1819.2852 151.6636)" gradientUnits="userSpaceOnUse" x1="1156.4115" x2="1125.4084" y1="-38.3863" y2="-73.933"><stop offset="0" stop-color="#5b3629"/><stop offset=".17" stop-color="#5b3528"/><stop offset=".1744" stop-color="#5e3628"/><stop offset=".2178" stop-color="#793f29"/><stop offset=".262" stop-color="#914528"/><stop offset=".307" stop-color="#a34926"/><stop offset=".3532" stop-color="#ad4a26"/><stop offset=".4024" stop-color="#b14b26"/><stop offset=".5719" stop-color="#5b3629"/></linearGradient><linearGradient id="aa" gradientTransform="matrix(-.9999 -.0159716 .0159716 -.9999 1842.2114 228.5742)" gradientUnits="userSpaceOnUse" x1="1188.0166" x2="1154.7296" y1="-31.5409" y2="-68.9159"><stop offset="0" stop-color="#d0d1d3"/><stop offset="1" stop-color="#293a42"/></linearGradient><linearGradient id="ab"><stop offset=".2638" stop-color="#465b66"/><stop offset="1" stop-color="#111c21"/></linearGradient><linearGradient id="ac" gradientTransform="matrix(-.9999 -.0159716 .0159716 -.9999 1842.2114 228.5742)" gradientUnits="userSpaceOnUse" x1="1175.0759" x2="1166.3425" xlink:href="#ab" y1="-47.7707" y2="-38.6278"/><linearGradient id="ad" gradientTransform="matrix(-.9999 -.0159716 .0159716 -.9999 1842.2114 228.5742)" gradientUnits="userSpaceOnUse" x1="1181.1407" x2="1172.6259" xlink:href="#ab" y1="-39.0396" y2="-30.1255"/><linearGradient id="ae" gradientTransform="matrix(-.9764 -.2161 .2161 -.9764 1862.5016 404.6729)" gradientUnits="userSpaceOnUse" x1="1194.7754" x2="1185.6227" xlink:href="#ab" y1="-121.2326" y2="-111.6508"/><linearGradient id="af" gradientTransform="matrix(-.9973 .07404365 -.07404365 -.9973 1819.2852 151.6636)" gradientUnits="userSpaceOnUse" x1="1150.6915" x2="1127.533" y1="-38.3056" y2="-64.8581"><stop offset="0" stop-color="#293941"/><stop offset="1" stop-color="#111c21"/></linearGradient><linearGradient id="ag" gradientTransform="matrix(.7779 -.6284 -.6284 -.7779 172.3857 803.7864)" gradientUnits="userSpaceOnUse" x1="584.4843" x2="632.744" y1="74.845" y2="74.845"><stop offset="0" stop-color="#3b2416"/><stop offset="1" stop-color="#754d29"/></linearGradient><linearGradient id="ah" gradientTransform="matrix(.7779 -.6284 -.6284 -.7779 172.3857 803.7864)" gradientUnits="userSpaceOnUse" x1="500.0829" x2="604.7408" xlink:href="#X" y1="114.8558" y2="114.8558"/><linearGradient id="ai" gradientTransform="matrix(.7779 -.6284 -.6284 -.7779 172.3857 803.7864)" gradientUnits="userSpaceOnUse" x1="612.4407" x2="606.4622" y1="56.9314" y2="102.2421"><stop offset="0" stop-color="#5b3528"/><stop offset=".02638993" stop-color="#663a2a"/><stop offset=".1071" stop-color="#87482f"/><stop offset=".1895" stop-color="#a45431"/><stop offset=".2733" stop-color="#ba5d33"/><stop offset=".3593" stop-color="#c86233"/><stop offset=".4509" stop-color="#ce6433"/><stop offset=".7779" stop-color="#414142"/></linearGradient><linearGradient id="aj" gradientTransform="matrix(.7779 -.6284 -.6284 -.7779 172.3857 803.7864)" gradientUnits="userSpaceOnUse" x1="504.0932" x2="613.8063" y1="112.783" y2="112.783"><stop offset="0" stop-color="#fff"/><stop offset="1" stop-color="#293a42"/></linearGradient><linearGradient id="ak" gradientTransform="matrix(.7779 -.6284 -.6284 -.7779 172.3857 803.7864)" gradientUnits="userSpaceOnUse" x1="621.1768" x2="601.0387" xlink:href="#ab" y1="74.1272" y2="95.2092"/><linearGradient id="al" gradientTransform="matrix(.7037 -.7105 -.7105 -.7037 217.8679 892.7898)" gradientUnits="userSpaceOnUse" x1="820.573" x2="715.0331" y1="115.0942" y2="50.5672"><stop offset="0" stop-color="#f2c086"/><stop offset=".09101394" stop-color="#bcb4ae"/><stop offset=".3157" stop-color="#cacccd"/><stop offset=".7498" stop-color="#9d9fa2"/></linearGradient><linearGradient id="am" gradientTransform="matrix(.8259 -.5638 -.5638 -.8259 138.6139 732.5169)" gradientUnits="userSpaceOnUse" x1="664.5011" x2="709.9995" y1="53.311" y2="53.311"><stop offset="0" stop-color="#7a4e3b"/><stop offset="1" stop-color="#36454d"/></linearGradient><linearGradient id="an" gradientTransform="matrix(.8259 -.5638 -.5638 -.8259 138.6139 732.5169)" gradientUnits="userSpaceOnUse" x1="684.3843" x2="707.0784" y1="61.9266" y2="43.9278"><stop offset="0" stop-color="#5b3528"/><stop offset=".06851529" stop-color="#653929"/><stop offset=".1893" stop-color="#82452c"/><stop offset=".347" stop-color="#b6562b"/><stop offset=".4737" stop-color="#f16724"/><stop offset=".6685" stop-color="#f29040"/><stop offset=".8876" stop-color="#ed693c"/><stop offset="1" stop-color="#e83f39"/></linearGradient><linearGradient id="ao" gradientTransform="matrix(.6604 -.5392 -.74 -.9064 264.872 705.8031)" gradientUnits="userSpaceOnUse" x1="754.1042" x2="722.2978" y1="79.739" y2="67.6745"><stop offset="0" stop-color="#ce9179"/><stop offset=".6433" stop-color="#929497"/><stop offset="1" stop-color="#293a42"/></linearGradient><linearGradient id="ap" gradientTransform="matrix(.5716 -.4667 -.74 -.9064 344.2324 641.0077)" gradientUnits="userSpaceOnUse" x1="732.8594" x2="699.2633" y1="79.7635" y2="67.0202"><stop offset="0" stop-color="#f2c086"/><stop offset=".08108176" stop-color="#f3aa8c"/><stop offset=".1841" stop-color="#d37a6e"/><stop offset=".4658" stop-color="#d0d1d3"/><stop offset=".7773" stop-color="#cdd2d1"/></linearGradient><linearGradient id="aq" gradientTransform="matrix(.7779 -.6284 -.6284 -.7779 172.3857 803.7864)" gradientUnits="userSpaceOnUse" x1="690.4339" x2="759.7191" y1="49.4479" y2="1.7181"><stop offset="0" stop-color="#4f5764"/><stop offset="1" stop-color="#a6a8ac"/></linearGradient><linearGradient id="ar" gradientTransform="matrix(.7779 -.6284 -.6284 -.7779 172.3857 803.7864)" gradientUnits="userSpaceOnUse" x1="748.8201" x2="513.3963" y1="141.0073" y2="129.3527"><stop offset=".2638" stop-color="#293a42"/><stop offset="1" stop-color="#2a383f"/></linearGradient><linearGradient id="as"><stop offset="0" stop-color="#f2c086"/><stop offset="1" stop-color="#f2f2f2"/></linearGradient><linearGradient id="at" gradientTransform="matrix(.7779 -.6284 -.6284 -.7779 172.3857 803.7864)" gradientUnits="userSpaceOnUse" x1="739.0505" x2="751.7803" xlink:href="#as" y1="137.1076" y2="137.1076"/><linearGradient id="au"><stop offset="0" stop-color="#293a42"/><stop offset="1" stop-color="#111c21"/></linearGradient><linearGradient id="av" gradientTransform="matrix(.7779 -.6284 -.6284 -.7779 172.3857 803.7864)" gradientUnits="userSpaceOnUse" x1="611.6525" x2="696.3128" xlink:href="#au" y1="133.228" y2="133.228"/><linearGradient id="aw" gradientTransform="matrix(.7779 -.6284 -.6284 -.7779 172.3857 803.7864)" gradientUnits="userSpaceOnUse" x1="553.1785" x2="650.5598" y1="126.7497" y2="126.7497"><stop offset="0" stop-color="#293a42"/><stop offset="1" stop-color="#172329"/></linearGradient><linearGradient id="ax" gradientTransform="matrix(.7779 -.6284 -.6284 -.7779 172.3857 803.7864)" gradientUnits="userSpaceOnUse" x1="599.5955" x2="694.6506" xlink:href="#au" y1="108.4877" y2="108.4877"/><linearGradient id="ay" gradientTransform="matrix(.7779 -.6284 -.6284 -.7779 172.3857 803.7864)" gradientUnits="userSpaceOnUse" x1="694.4416" x2="737.1846" xlink:href="#au" y1="130.1189" y2="130.1189"/><linearGradient id="az"><stop offset=".339" stop-color="#0f1e24"/><stop offset=".7571" stop-color="#332f2f"/></linearGradient><linearGradient id="aA" gradientTransform="matrix(.7779 -.6284 -.6284 -.7779 -2326.2725 2822.1155)" gradientUnits="userSpaceOnUse" x1="3939.7458" x2="3953.3501" xlink:href="#az" y1="253.5354" y2="253.5354"/><linearGradient id="aB" gradientTransform="matrix(-.7717 .636 -.636 -.7717 -1310.1179 1994.827)" gradientUnits="userSpaceOnUse" x1="-2662.9749" x2="-2611.2295" y1="361.9544" y2="361.9544"><stop offset="0" stop-color="#a87b5e"/><stop offset=".291" stop-color="#4f5764"/><stop offset=".5816" stop-color="#0f1c21"/></linearGradient><linearGradient id="aC" gradientTransform="matrix(.7717 -.636 -.636 -.7717 -2322.054 2828.845)" gradientUnits="userSpaceOnUse" x1="3719.2283" x2="3968.7375" y1="115.6014" y2="115.6014"><stop offset=".09506252" stop-color="#58595b"/><stop offset=".356" stop-color="#283e45"/><stop offset=".4952" stop-color="#3d4a50"/><stop offset=".6566" stop-color="#4f5559"/><stop offset=".8229" stop-color="#5a5c5f"/><stop offset="1" stop-color="#5d5e61"/></linearGradient><linearGradient id="aD" gradientTransform="matrix(.7717 -.636 -.636 -.7717 -2322.054 2828.845)" gradientUnits="userSpaceOnUse" x1="3977.0273" x2="3715.6147" y1="127.8165" y2="127.8165"><stop offset="0" stop-color="#929592"/><stop offset=".3887" stop-color="#7c7a7b"/><stop offset="1" stop-color="#283e45"/></linearGradient><linearGradient id="aE" gradientTransform="matrix(.7717 -.636 -.636 -.7717 -2322.054 2828.845)" gradientUnits="userSpaceOnUse" x1="3923.1406" x2="3988.561" y1="249.6053" y2="237.9231"><stop offset="0" stop-color="#111c21"/><stop offset="1" stop-color="#293a42"/></linearGradient><linearGradient id="aF" gradientTransform="matrix(.7717 -.636 -.636 -.7717 -2322.054 2828.845)" gradientUnits="userSpaceOnUse" x1="3722.5569" x2="3958.6992" y1="131.65" y2="131.65"><stop offset="0" stop-color="#f2c086"/><stop offset=".09101394" stop-color="#d37a6e"/><stop offset=".3157" stop-color="#d0d1d3"/><stop offset=".9595" stop-color="#a6a8ac"/><stop offset=".9653" stop-color="#bcafa2"/><stop offset=".9736" stop-color="#d4b695"/><stop offset=".982" stop-color="#e5bb8c"/><stop offset=".9907" stop-color="#eebf86"/><stop offset="1" stop-color="#f2c084"/></linearGradient><linearGradient id="aG" gradientTransform="matrix(.7717 -.636 -.636 -.7717 -2322.054 2828.845)" gradientUnits="userSpaceOnUse" x1="3718.4038" x2="3958.679" y1="165.2335" y2="165.2335"><stop offset=".09101394" stop-color="#808285"/><stop offset=".3157" stop-color="#d0d1d3"/><stop offset=".9673" stop-color="#a6a8ac"/></linearGradient><linearGradient id="aH" gradientTransform="matrix(.7717 -.636 -.636 -.7717 -2322.054 2828.845)" gradientUnits="userSpaceOnUse" x1="3710.7349" x2="3828.5422" y1="397.0823" y2="312.7692"><stop offset="0"/><stop offset=".6682" stop-color="#bebfc1"/><stop offset=".8462" stop-color="#cdd2d1"/><stop offset="1" stop-color="#a6a8ac"/></linearGradient><linearGradient id="aI" gradientTransform="matrix(.7717 -.636 -.636 -.7717 -2322.054 2828.845)" gradientUnits="userSpaceOnUse" x1="3698.5442" x2="3754.1438" y1="364.0316" y2="364.0316"><stop offset="0" stop-color="#585c65"/><stop offset=".4266" stop-color="#4f5764"/><stop offset="1" stop-color="#0f1c21"/></linearGradient><linearGradient id="aJ" gradientTransform="matrix(.7717 -.636 -.636 -.7717 -2322.054 2828.845)" gradientUnits="userSpaceOnUse" x1="3725.7444" x2="3780.0652" y1="158.1008" y2="158.1008"><stop offset="0" stop-color="#6d6e71"/><stop offset=".4162" stop-color="#4f5764"/><stop offset=".6682" stop-color="#283e45"/><stop offset="1" stop-color="#283e45"/></linearGradient><linearGradient id="aK" gradientTransform="matrix(.7779 -.6284 -.6284 -.7779 -2326.2725 2822.1155)" gradientUnits="userSpaceOnUse" x1="3946.3506" x2="3873.9421" y1="358.3901" y2="241.2089"><stop offset="0" stop-color="#283e45"/><stop offset=".2046" stop-color="#be918a"/><stop offset=".3735" stop-color="#b4b6b8"/><stop offset=".687" stop-color="#c1c6c5"/></linearGradient><radialGradient id="aL" cx="3876.4524" cy="243.7325" gradientTransform="matrix(.7717 -.636 -.636 -.7717 -2322.054 2828.845)" gradientUnits="userSpaceOnUse" r="98.8168"><stop offset="0" stop-color="#111c21" stop-opacity="0"/><stop offset=".6763" stop-color="#111c21" stop-opacity=".6512"/><stop offset=".7468" stop-color="#1a272d" stop-opacity=".7272"/><stop offset=".8376" stop-color="#233138" stop-opacity=".825"/><stop offset=".9238" stop-color="#27373f" stop-opacity=".918"/><stop offset="1" stop-color="#293941"/></radialGradient><linearGradient id="aM" gradientTransform="matrix(.7717 -.636 -.636 -.7717 -2322.054 2828.845)" gradientUnits="userSpaceOnUse" x1="3830.0632" x2="3908.886" xlink:href="#as" y1="442.3295" y2="385.9172"/><clipPath id="aN"><path d="m576.1 174.5c2.5-2.1 5.2-3.5 7.6-4.2.1-.1.2-.1.3-.2.8-4.1-.7-9.5-4.4-14-5.5-6.8-13.6-9.3-18.2-5.6s-3.9 12.2 1.6 19c3.1 3.9 7.1 6.3 10.8 7 .7-.6 1.5-1.3 2.3-2z"/></clipPath><linearGradient id="aO" gradientTransform="matrix(.7779 -.6284 -.6284 -.7779 -2326.2725 2822.1155)" gradientUnits="userSpaceOnUse" x1="3919.7046" x2="3931.4336" xlink:href="#au" y1="240.3917" y2="240.3917"/><clipPath id="aP"><path d="m528.3 215.6c1.4-1.2 2.9-2.2 4.4-3.1 0-4.5-1.9-9.6-5.4-14-6.8-8.4-17.1-11.2-23.2-6.3s-5.5 15.6 1.3 24c4.1 5.1 9.7 8.2 14.7 8.6 1.7-3 4.6-6.3 8.2-9.2z"/></clipPath><linearGradient id="aQ" gradientTransform="matrix(.7779 -.6284 -.6284 -.7779 -2326.2725 2822.1155)" gradientUnits="userSpaceOnUse" x1="3848.6343" x2="3863.8796" xlink:href="#au" y1="239.2057" y2="239.2057"/><linearGradient id="aR" gradientTransform="matrix(.7779 -.6284 -.6284 -.7779 -2326.2725 2822.1155)" gradientUnits="userSpaceOnUse" x1="3914.4958" x2="3937.9512" y1="275.9999" y2="275.9999"><stop offset="0" stop-color="#a0a1a3"/><stop offset="1" stop-color="#9e867b"/></linearGradient><radialGradient id="aS" cx="3858.6646" cy="156.3801" gradientTransform="matrix(.7779 -.6284 -.8887 -1.1002 -2341.2334 2803.6082)" gradientUnits="userSpaceOnUse" r="83.4991"><stop offset="0" stop-color="#e7e7e7"/><stop offset=".1707" stop-color="#e0e1e2"/><stop offset=".3176" stop-color="#d1d2d4"/><stop offset=".4556" stop-color="#bbbdc0"/><stop offset=".5883" stop-color="#9ea2a6"/><stop offset=".7172" stop-color="#7d8389"/><stop offset=".8431" stop-color="#5a646a"/><stop offset=".9646" stop-color="#34464d"/><stop offset="1" stop-color="#283e45"/></radialGradient><linearGradient id="aT" gradientTransform="matrix(.7717 -.636 -.636 -.7717 -2322.054 2828.845)" gradientUnits="userSpaceOnUse" x1="3944.6672" x2="3880.3926" y1="314.1439" y2="301.9837"><stop offset="0" stop-color="#e1d9d5"/><stop offset=".4618" stop-color="#b3b5b7"/></linearGradient><linearGradient id="aU"><stop offset="0" stop-color="#e7968b"/><stop offset=".4658" stop-color="#a4a7a9"/><stop offset=".7085" stop-color="#a9acad"/><stop offset=".9757" stop-color="#293a42"/></linearGradient><linearGradient id="aV" gradientTransform="matrix(.9927 .1204 .1204 -.9927 30.7338 173.0801)" gradientUnits="userSpaceOnUse" x1="544.2763" x2="441.7046" xlink:href="#aU" y1="39.9794" y2="39.9794"/><linearGradient id="aW" gradientTransform="matrix(.7779 -.6284 -.6284 -.7779 -2326.2725 2822.1155)" gradientUnits="userSpaceOnUse" x1="3948.1292" x2="3889.1353" xlink:href="#aU" y1="223.9217" y2="242.3461"/><linearGradient id="aX" gradientTransform="matrix(.9927 .1204 .1204 -.9927 30.7338 173.0801)" gradientUnits="userSpaceOnUse" x1="437.0363" x2="561.0479" xlink:href="#az" y1="44.6385" y2="44.6385"/><linearGradient id="aY" gradientTransform="matrix(.7717 -.636 -.636 -.7717 -2322.054 2828.845)" gradientUnits="userSpaceOnUse" x1="3972.8721" x2="3765.9458" y1="175.7981" y2="172.2381"><stop offset="0" stop-color="#f2c084"/><stop offset=".3806" stop-color="#293a42"/><stop offset="1" stop-color="#1f2c32"/></linearGradient><linearGradient id="aZ"><stop offset=".2638" stop-color="#465b66"/><stop offset="1" stop-color="#19262c"/></linearGradient><linearGradient id="a0" gradientTransform="matrix(.6903 -.6762 -.713 -.7278 -2266.437 2855.957)" gradientUnits="userSpaceOnUse" x1="3815.0576" x2="3893.5559" xlink:href="#aZ" y1="-19.5463" y2="-19.5463"/><linearGradient id="a1" gradientTransform="matrix(.6482 -.6211 -.6934 -.7205 -2237.2761 2817.6956)" gradientUnits="userSpaceOnUse" x1="4032.333" x2="4118.3735" y1="50.9571" y2="-10.6839"><stop offset=".2886" stop-color="#77787b"/><stop offset=".3531" stop-color="#828486"/><stop offset=".4969" stop-color="#9b9c9f"/><stop offset=".6066" stop-color="#a8aaac"/><stop offset=".6682" stop-color="#adaeb1"/><stop offset=".7156" stop-color="#a7a9ac"/><stop offset=".7987" stop-color="#969ba0"/><stop offset=".9068" stop-color="#7a858c"/><stop offset=".9602" stop-color="#6b7a83"/></linearGradient><linearGradient id="a2" gradientTransform="matrix(.7779 -.6284 -.6284 -.7779 -2326.2725 2822.1155)" gradientUnits="userSpaceOnUse" x1="3737.9841" x2="3698.7585" y1="272.0966" y2="266.0927"><stop offset="0" stop-color="#4e6471"/><stop offset="1" stop-color="#212f35"/></linearGradient><linearGradient id="a3" gradientTransform="matrix(.7884 -.6498 -.636 -.7717 -2337.1162 2841.2749)" gradientUnits="userSpaceOnUse" x1="3926.8777" x2="3688.5122" y1="338.3141" y2="338.3141"><stop offset="0" stop-color="#5b3629"/><stop offset="1" stop-color="#19262c"/></linearGradient><linearGradient id="a4" gradientTransform="matrix(.7884 -.6498 -.636 -.7717 -2337.1162 2841.2749)" gradientUnits="userSpaceOnUse" x1="3722.9561" x2="3882.99" y1="248.2865" y2="390.2299"><stop offset="0" stop-color="#283e45"/><stop offset=".4874" stop-color="#f16724"/><stop offset=".6685" stop-color="#f29040"/><stop offset=".8876" stop-color="#ed693c"/><stop offset="1" stop-color="#e83f39"/></linearGradient><linearGradient id="a5" gradientTransform="matrix(.7717 -.636 -.636 -.7717 -2322.054 2828.845)" gradientUnits="userSpaceOnUse" x1="3896.9092" x2="3996.1851" y1="359.1921" y2="359.1921"><stop offset=".05668016" stop-color="#f16724"/><stop offset="1" stop-color="#f3ddbd"/></linearGradient><linearGradient id="a6"><stop offset="0" stop-color="#7d7f82"/><stop offset="1" stop-color="#4a4c4f"/></linearGradient><linearGradient id="a7" gradientTransform="matrix(.7625 -.647 -.647 -.7625 180.7452 816.6684)" gradientUnits="userSpaceOnUse" x1="577.376" x2="677.8174" xlink:href="#a6" y1="1.6807" y2="1.6807"/><linearGradient id="a8" gradientTransform="matrix(.7779 -.6284 -.6284 -.7779 172.3857 803.7864)" gradientUnits="userSpaceOnUse" x1="663.624" x2="613.7041" xlink:href="#a6" y1="-7.5485" y2="19.3072"/><linearGradient id="a9" gradientTransform="matrix(.7779 -.6284 -.6284 -.7779 172.3857 803.7864)" gradientUnits="userSpaceOnUse" x1="504.4589" x2="626.4152" y1="95.6789" y2="35.0168"><stop offset="0" stop-color="#f2c086"/><stop offset=".09101394" stop-color="#95807f"/><stop offset=".7166" stop-color="#a6a8ac"/><stop offset=".7326" stop-color="#a0a3a5"/><stop offset=".7835" stop-color="#949699"/><stop offset=".8353" stop-color="#898b8e"/><stop offset=".8881" stop-color="#808285"/><stop offset=".9423" stop-color="#7a7d7f"/><stop offset="1" stop-color="#797b7d"/></linearGradient><linearGradient id="ba" gradientTransform="matrix(.7779 -.6284 -.6284 -.7779 172.3857 803.7864)" gradientUnits="userSpaceOnUse" x1="665.2471" x2="609.0453" xlink:href="#aZ" y1="13.6722" y2="39.1449"/><linearGradient id="bb" gradientTransform="matrix(.7978 -.6437 -.6424 -.8185 166.289 874.3619)" gradientUnits="userSpaceOnUse" x1="533.2502" x2="584.1332" y1="135.2812" y2="135.2812"><stop offset="0" stop-color="#f3aa8c"/><stop offset=".8597" stop-color="#929497"/><stop offset="1" stop-color="#3f525c"/></linearGradient><linearGradient id="bc" gradientTransform="matrix(.9103 -.414 -.414 -.9103 121.385 694.4481)" gradientUnits="userSpaceOnUse" x1="456.7009" x2="509.469" y1="82.592" y2="111.4022"><stop offset="0" stop-color="#b5a397"/><stop offset=".9974" stop-color="#c2c7cf"/></linearGradient><linearGradient id="bd" gradientTransform="matrix(.9927 .1204 .1204 -.9927 30.7338 173.0801)" gradientUnits="userSpaceOnUse" x1="497.2814" x2="532.7081" y1="-171.351" y2="-171.351"><stop offset="0" stop-color="#4f5764"/><stop offset=".6682" stop-color="#293942"/><stop offset="1" stop-color="#111c21"/></linearGradient><linearGradient id="be" gradientTransform="matrix(.7625 -.647 -.647 -.7625 180.7452 816.6684)" gradientUnits="userSpaceOnUse" x1="826.4843" x2="648.2738" y1="-21.0111" y2="133.5533"><stop offset="0" stop-color="#bdbfc1"/><stop offset="1" stop-color="#909295"/></linearGradient><linearGradient id="bf" gradientTransform="matrix(.9111 .4122 .4122 -.9111 240.1536 -140.447)" gradientUnits="userSpaceOnUse" x1="623.5251" x2="589.6899" xlink:href="#E" y1="-214.7713" y2="-194.3934"/><linearGradient id="bg" gradientTransform="matrix(.7779 -.6284 -.6284 -.7779 172.3857 803.7864)" gradientUnits="userSpaceOnUse" x1="758.8296" x2="642.8271" y1="37.334" y2="137.9444"><stop offset="0" stop-color="#9fa1a3"/><stop offset="1" stop-color="#707376"/></linearGradient><linearGradient id="bh" gradientTransform="matrix(.8547 -.5191 -.5191 -.8547 93.982 663.3017)" gradientUnits="userSpaceOnUse" x1="588.1034" x2="700.1631" xlink:href="#I" y1="-203.2439" y2="-202.1363"/><linearGradient id="bi" gradientTransform="matrix(.8547 -.5191 -.5191 -.8547 93.982 663.3017)" gradientUnits="userSpaceOnUse" x1="626.9907" x2="675.6721" xlink:href="#s" y1="-188.049" y2="-188.049"/><linearGradient id="bj" gradientTransform="matrix(.7649 -.6335 -.6081 -.7341 126.3236 802.1825)" gradientUnits="userSpaceOnUse" x1="678.9003" x2="735.2218" xlink:href="#s" y1="-207.9719" y2="-207.9719"/><clipPath id="bk"><path d="m769.9 519.3 3.2 6.7 4.9 5.5 1.7 2.3 14.2-2.1 17.4-12.3 9.8-13.7-2.7-12.7-8.2-9.5-15.3-4.5-2.7 2-3.9 9.2-15 11.4-6.6 4.6z"/></clipPath><linearGradient id="bl" gradientTransform="matrix(.6243 -.7724 -.8902 -.7195 145.492 917.227)" gradientUnits="userSpaceOnUse" x1="755.8708" x2="748.475" xlink:href="#P" y1="-217.1661" y2="-217.1661"/><circle cx="565.9" cy="134.5" fill="url(#a)" r="343.8"/><g fill="#585c7a"><path d="m605 371.9h2.4v2.4h-2.4z" transform="matrix(.6316 .7753 -.7753 .6316 512.6171 -332.5347)"/><path d="m755.8 98.3h2.4v2.4h-2.4z" transform="matrix(.6316 .7753 -.7753 .6316 356.0391 -550.2149)"/><path d="m372 12.3h3.3v3.3h-3.3z" transform="matrix(.6316 .7753 -.7753 .6316 148.4741 -284.5547)"/><path d="m623-1.1h3.3v3.3h-3.3z" transform="matrix(.6316 .7753 -.7753 .6316 230.5205 -484.0628)"/><path d="m270.6 24.1h2.8v2.8h-2.8z" transform="matrix(.6316 .7753 -.7753 .6316 119.9564 -201.4589)"/><path d="m478.5 398.3h2.4v2.4h-2.4z" transform="matrix(.6316 .7753 -.7753 .6316 486.4603 -224.6828)"/><path d="m303.3 92.1h2.8v2.8h-2.8z" transform="matrix(.6316 .7753 -.7753 .6316 184.7358 -201.7535)"/><path d="m815.4-44.4h3.3v3.3h-3.3z" transform="matrix(.6316 .7753 -.7753 .6316 267.8972 -649.1894)"/><path d="m655.8-21.8h3.3v3.3h-3.3z" transform="matrix(.6316 .7753 -.7753 .6316 226.5736 -517.1137)"/><path d="m354.2 146h3.3v3.3h-3.3z" transform="matrix(.6316 .7753 -.7753 .6316 245.5411 -221.5023)"/><path d="m228.2 75.8h2.8v2.8h-2.8z" transform="matrix(.6316 .7753 -.7753 .6316 144.4174 -149.5711)"/><path d="m571.8-11.8h3.3v3.3h-3.3z" transform="matrix(.6316 .7753 -.7753 .6316 203.4049 -448.3648)"/><path d="m321.4 12.3h3.3v3.3h-3.3z" transform="matrix(.6316 .7753 -.7753 .6316 129.848 -245.2912)"/><path d="m308.4-56.4h3.3v3.3h-3.3z" transform="matrix(.6316 .7753 -.7753 .6316 71.7906 -260.5075)"/><path d="m452 432.3h3.3v3.3h-3.3z" transform="matrix(.6316 .7753 -.7753 .6316 503.5223 -191.8466)"/><path d="m340 358.1h2.8v2.8h-2.8z" transform="matrix(.6316 .7753 -.7753 .6316 404.4751 -132.2456)"/><path d="m524.6 393.2h3.3v3.3h-3.3z" transform="matrix(.6316 .7753 -.7753 .6316 500.0213 -262.5322)"/><path d="m417 381.1h3.3v3.3h-3.3z" transform="matrix(.6316 .7753 -.7753 .6316 450.9482 -183.5588)"/><path d="m448.8 9.7h3.3v3.3h-3.3z" transform="matrix(.6316 .7753 -.7753 .6316 174.7493 -345.0791)"/><path d="m397.6 346.1h3.3v3.3h-3.3z" transform="matrix(.6316 .7753 -.7753 .6316 416.6702 -181.4232)"/><path d="m336.1 120.5h2.8v2.8h-2.8z" transform="matrix(.6316 .7753 -.7753 .6316 218.8539 -216.7152)"/><path d="m627.1 53.7h3.3v3.3h-3.3z" transform="matrix(.6316 .7753 -.7753 .6316 274.554 -467.0949)"/><path d="m371.6 384.6h3.3v3.3h-3.3z" transform="matrix(.6316 .7753 -.7753 .6316 436.9541 -147.0799)"/><path d="m250.6 98.5h3.3v3.3h-3.3z" transform="matrix(.6316 .7753 -.7753 .6316 170.5869 -158.6222)"/><path d="m805.4-75.1h3.3v3.3h-3.3z" transform="matrix(.6316 .7753 -.7753 .6316 240.391 -652.7816)"/><path d="m259.2 215.4h3.3v3.3h-3.3z" transform="matrix(.6316 .7753 -.7753 .6316 264.328 -122.25)"/><path d="m282.6 1.8h1.9v1.9h-1.9z" transform="matrix(.6316 .7753 -.7753 .6316 106.6099 -218.7853)"/><path d="m391.9 393.6h3.3v3.3h-3.3z" transform="matrix(.6316 .7753 -.7753 .6316 451.4341 -159.4539)"/><path d="m481.3-32.4h3.3v3.3h-3.3z" transform="matrix(.6316 .7753 -.7753 .6316 154.0821 -385.7177)"/><path d="m523.3 9.8h3.3v3.3h-3.3z" transform="matrix(.6316 .7753 -.7753 .6316 202.2331 -402.7639)"/><path d="m423.7-46.2h3.3v3.3h-3.3z" transform="matrix(.6316 .7753 -.7753 .6316 122.1788 -346.1633)"/><path d="m751.2-25.7h3.3v3.3h-3.3z" transform="matrix(.6316 .7753 -.7753 .6316 258.7228 -592.5502)"/><path d="m577.8 65.4h2.2v2.2h-2.2z" transform="matrix(.6316 .7753 -.7753 .6316 264.8459 -424.3455)"/><path d="m692.2 118.8h2.2v2.2h-2.2z" transform="matrix(.6316 .7753 -.7753 .6316 348.3828 -493.3)"/><path d="m729.7 54.8h3.3v3.3h-3.3z" transform="matrix(.6316 .7753 -.7753 .6316 313.1965 -546.2602)"/><path d="m707 14.7h3.3v3.3h-3.3z" transform="matrix(.6316 .7753 -.7753 .6316 273.7048 -543.3695)"/><path d="m666.9 139.3h2.4v2.4h-2.4z" transform="matrix(.6316 .7753 -.7753 .6316 355.11 -466.2325)"/><path d="m540.1 423.2h2.4v2.4h-2.4z" transform="matrix(.6316 .7753 -.7753 .6316 528.4612 -263.3274)"/><path d="m365.1-32.2h3.3v3.3h-3.3z" transform="matrix(.6316 .7753 -.7753 .6316 111.4402 -295.5711)"/><path d="m464.6 383h2.4v2.4h-2.4z" transform="matrix(.6316 .7753 -.7753 .6316 469.4221 -219.5895)"/><path d="m781.2-11.4h3.3v3.3h-3.3z" transform="matrix(.6316 .7753 -.7753 .6316 280.8709 -610.5146)"/><path d="m889.5 149.1h2.4v2.4h-2.4z" transform="matrix(.6316 .7753 -.7753 .6316 444.6659 -635.1498)"/><path d="m357.9 86.9h3.3v3.3h-3.3z" transform="matrix(.6316 .7753 -.7753 .6316 201.08 -246.1245)"/><path d="m308.8 139h3.3v3.3h-3.3z" transform="matrix(.6316 .7753 -.7753 .6316 223.4087 -188.9043)"/><path d="m391.6-.6h2.4v2.4h-2.4z" transform="matrix(.6316 .7753 -.7753 .6316 145.1207 -304.2987)"/><path d="m242.7 48.9h3.3v3.3h-3.3z" transform="matrix(.6316 .7753 -.7753 .6316 129.1652 -170.8119)"/><path d="m283.1 186.4h1.9v1.9h-1.9z" transform="matrix(.6316 .7753 -.7753 .6316 249.8742 -151.193)"/><path d="m690.1 154.2h3.3v3.3h-3.3z" transform="matrix(.6316 .7753 -.7753 .6316 375.6628 -478.9214)"/><path d="m684.2 76h2.2v2.2h-2.2z" transform="matrix(.6316 .7753 -.7753 .6316 312.2493 -502.92)"/><path d="m818.3 315.7h3.3v3.3h-3.3z" transform="matrix(-.00632627 1 -1 -.00632627 1142.4856 -500.554)"/><path d="m867.6 79.8h2.8v2.8h-2.8z" transform="matrix(-.00632627 1 -1 -.00632627 955.6652 -787.2479)"/><path d="m849.5 153h2.8v2.8h-2.8z" transform="matrix(-.00632627 1 -1 -.00632627 1010.7306 -695.4924)"/><path d="m855.9 302h3.3v3.3h-3.3z" transform="matrix(-.00632627 1 -1 -.00632627 1166.649 -552.0298)"/><path d="m854.3 227.1h3.3v3.3h-3.3z" transform="matrix(-.00632627 1 -1 -.00632627 1090.085 -625.7638)"/><path d="m802 92.5h2.8v2.8h-2.8z" transform="matrix(-.00632627 1 -1 -.00632627 902.4266 -708.8439)"/><path d="m851.1 2.8h3.3v3.3h-3.3z" transform="matrix(-.00632627 1 -1 -.00632627 862.6433 -848.2132)"/><path d="m801.2 47.2h3.3v3.3h-3.3z" transform="matrix(-.00632627 1 -1 -.00632627 856.8036 -753.7369)"/><path d="m784.5 151.1h3.3v3.3h-3.3z" transform="matrix(-.00632627 1 -1 -.00632627 943.8194 -632.4237)"/><path d="m856.8 195.8h2.8v2.8h-2.8z" transform="matrix(-.00632627 1 -1 -.00632627 1060.7736 -659.7383)"/><path d="m727.5 126.2h3.3v3.3h-3.3z" transform="matrix(-.00632627 1 -1 -.00632627 861.6183 -600.39)"/><path d="m866.4 39.1h3.3v3.3h-3.3z" transform="matrix(-.00632627 1 -1 -.00632627 914.2276 -827.044)"/><path d="m503.5 448.4h1.9v1.9h-1.9z" transform="matrix(-.00632627 1 -1 -.00632627 956.9156 -52.2538)"/><path d="m819.7 122.3h3.3v3.3h-3.3z" transform="matrix(-.00632627 1 -1 -.00632627 950.5355 -696.5613)"/><path d="m787.9 180h2.8v2.8h-2.8z" transform="matrix(-.00632627 1 -1 -.00632627 975.6188 -606.763)"/><path d="m759.9 364.3h3.3v3.3h-3.3z" transform="matrix(-.00632627 1 -1 -.00632627 1132.2759 -393.3124)"/><path d="m823.7 192.7h3.3v3.3h-3.3z" transform="matrix(-.00632627 1 -1 -.00632627 1025.0004 -629.7505)"/><path d="m830.1 81.2h3.3v3.3h-3.3z" transform="matrix(-.00632627 1 -1 -.00632627 919.8071 -748.3768)"/><path d="m303.8 221h2.8v2.8h-2.8z" transform="matrix(.6316 .7753 -.7753 .6316 284.8553 -154.665)"/><path d="m259.1 151.1h3.3v3.3h-3.3z" transform="matrix(.6316 .7753 -.7753 .6316 214.4889 -145.9247)"/><path d="m369.3 317.4h2.8v2.8h-2.8z" transform="matrix(.6316 .7753 -.7753 .6316 383.7529 -169.9213)"/><path d="m283.8 295.4h3.3v3.3h-3.3z" transform="matrix(.6316 .7753 -.7753 .6316 335.4859 -111.8283)"/><path d="m334.2 277.9h3.3v3.3h-3.3z" transform="matrix(.6316 .7753 -.7753 .6316 340.4651 -157.4255)"/><path d="m550.1 458.2h2.8v2.8h-2.8z" transform="matrix(.6316 .7753 -.7753 .6316 559.4943 -258.2546)"/><path d="m677.3 439.6h3.3v3.3h-3.3z" transform="matrix(.6316 .7753 -.7753 .6316 592.2399 -363.8461)"/><path d="m885.6 199.2h2.8v2.8h-2.8z" transform="matrix(.6316 .7753 -.7753 .6316 482.2898 -613.771)"/><path d="m801.7 228.8h3.3v3.3h-3.3z" transform="matrix(.6316 .7753 -.7753 .6316 474.5901 -537.9606)"/><path d="m631.9 432.5h3.3v3.3h-3.3z" transform="matrix(.6316 .7753 -.7753 .6316 570.0242 -331.2277)"/><path d="m275.9 245.8h3.3v3.3h-3.3z" transform="matrix(.6316 .7753 -.7753 .6316 294.0642 -124.018)"/></g><g opacity=".75"><path d="m606.2-60.5 6.7 3 61.5-8.3 6.1-.7 6.1-.8 11.8-.1-8.8 3.6-6.6 2-6 1.2-66.7 10.6-6.1-3.7-3.4-6.5-46.7 4.1-10.5-5.4 59.1-3.8z" fill="url(#c)"/><path d="m659.1-97.7 18.2 8.1 21.1 22.2-11.8.1-3 .4-9.2 1.1-53.6 7.3-24.8-36.4z" fill="url(#e)"/><path d="m624.3-96.2 11.4 13.6 19.1.4 9.1 10.4 29.4-.9-16-16.9-18.2-8.1z" fill="url(#f)"/><path d="m652.9-82.2 8.7 10.7 2.3-.3-9.1-10.4z" fill="#231f20" opacity=".74"/><path d="m527-74.6-14 3.8-.3 4.6 2.8 4.7 15.5-1.6z" fill="url(#g)"/><g fill="#111c21"><path d="m524.5-73.2.1 1.2-10.9 2.7.1-.8z"/><path d="m524.7-71 .1 1.4-11.1 2.3.1-1.3z"/><path d="m525-68.7 1.1 1.5-11.7 1.8-.7-1.1z"/><path d="m526.5-66.6 1 1.5-12.4 1.4-.5-.9z"/><path d="m527.8-64.6.9 1.3-12.8 1-.4-.6z"/></g><path d="m556-91.8-18.5 2.4-5.9 5.9 5.5 14.1 6.5 7.9 59.1-3.8 3.5 4.8 6.7 3 7.8-1.1-25.5-36.2-27 2.4z" fill="url(#h)"/><path d="m535.3-80.1-9.6 2.5.8 8.4 5.9 8.2 12.4-1.8z" fill="url(#i)"/><path d="m583.6-58.7-11.7 8.7-18.8 1.9 7-8.6z" fill="url(#j)"/><path d="m568.2-92.4-10.9-16.6-20.9-5.6 6.7 11.5 4.9 3.3 2.5 5.2-4 5.5z" fill="url(#k)"/><path d="m654.8-82.2-12.7-14.7-17.8.7 11.4 13.6z" fill="url(#m)"/><path d="m659.1-97.7 4.8 25.9 13.4-17.8z" fill="#231f20" opacity=".64"/><path d="m558.1-56.5-5.8 8.3.8.1 7-8.6z" fill="#f79a6b" opacity=".63"/><path d="m536.4-114.6-1.2.2 5.7 11.1 6 4.1 1.8 4.4-3.6 5.7h1.4l4-5.5-2.5-5.2-4.9-3.3z" fill="url(#n)"/><path d="m602.7-65.3-6.2-10.7-15.4-7.9-48.3 3.6 4.3 10.9 6.5 7.9z" fill="url(#p)"/><path d="m624.3-96.2 11.5 13.6h-3.4l-11.1-13.4z" fill="#231f20" opacity=".62"/><path d="m606.2-60.5-2 6.8 3-6.4z" fill="#111c21"/><path d="m612.8-57.4-2.5 7.4 3.6-7.6z" fill="#1e2e36"/><path d="m593.9-92.6 3.7 5.4-22.7 1.9-2.8-4.8z" fill="url(#q)"/><path d="m596-94.9 25.3 36.3h-.6l-25.5-36.2z" fill="url(#r)"/><path d="m620.7-58.6h.6l-3 7.2z" fill="#1e2e36"/><path d="m580.8-80.7 18.5 9.5-2.8-4.8-15.4-7.9-48.3 3.6 1.1 2.7z" fill="url(#t)"/><path d="m580.5-74.9-35.4-16.3-31.6 3.4 33.5 20.8 36.5-2.4z" fill="url(#u)"/><path d="m583.5-69.4-38.6-18.6-28.8 1.6-2.6-1.4 31.6-3.4 35.4 16.3z" fill="url(#v)"/><path d="m596.7-88.5.9 1.3-22.7 1.9-.6-1.1z" fill="url(#x)"/><path d="m591.2-97.3 2.3 3.8-22.3 2.1-1.5-3.6z" fill="url(#y)"/><path d="m592.7-94.8.8 1.3-22.3 2.1-.5-1.1z" fill="url(#z)"/><path d="m547-67 18.4 4.1 37.3-2.4-22.2-9.6 3 5.5z" fill="#111c21" opacity=".44"/><path d="m614.1-68.6-.5-.8 22.4-2.3 7.7 10.1h-.3l-7.8-9.1z" fill="#a6a8ac"/><path d="m633.1-69.1 1.9-.3 5.4 6.6-2.6.2z" fill="url(#A)"/><path d="m630.9-84.5-4.9.5-2.5-3h2.1l-2.8-3.1-1.9-.1-2.4-3 4.9-.3-.2-.3-5.9.1 8.4 10.4 5.4-.9z" fill="url(#B)"/><path d="m610.5-80.1c-2.1-4.5-1.4-8.3 3-8.9 1.9-.2 3.6.2 5.1 1.1l-.3 2.2c-1.2-.7-2.3-1.1-3.7-.9-2.5.3-2.9 2.9-1.6 5.7.1.1.1.3.2.4.2-1.1 1.3-2.5 3.1-2.7 2.7-.4 5.9 1 7.4 4.4 1.3 2.9.2 5.5-3.2 6-4.6.5-8.1-2.9-10-7.3zm10.4 1.7c-.9-1.9-2.7-2.6-4.4-2.4-1.3.2-2.2 1-2.5 2.3.9 1.7 2.7 3.5 5 3.2 2.1-.2 2.5-1.8 1.9-3.1z" fill="url(#C)"/></g><g clip-path="url(#D)" fill="#fff" opacity=".1"><path d="m1124.5-69.4h-382.1l-3.8 3.8 3.8 3.8h102.7l-1.2 3.4 5.2 5.2h267.1l12.2-12.4z"/><path d="m941 17.3h-238.5l-6-6 6-6.1h238.5l6 6.1z"/><path d="m717.7-110.1 4.6-4.6h523c2.5 0 4.6 2.1 4.6 4.6 0 2.5-2.1 4.6-4.6 4.6h-523z"/><path d="m468.3-103.1h-424.3l-3.9-3.9 3.9-3.9h424.3l3.9 3.9z"/><path d="m96.1-6.2h564.7l5-5-5-5h-564.7c-2.7 0-5 2.2-5 5 0 2.8 2.3 5 5 5z"/><path d="m118.6-34.5h346.4l1.8-1.8-1.8-1.8h-346.4c-1 0-1.8.8-1.8 1.8 0 1 .8 1.8 1.8 1.8z"/><path d="m230.9 21h257.7l4.6-4.6-4.6-4.6h-257.7c-2.5 0-4.6 2.1-4.6 4.6 0 2.6 2.1 4.6 4.6 4.6z"/><path d="m272.1 7.9h234.1l4.1-4.1-4.1-4.1h-234.1l-4.1 4.1z"/><path d="m490.2 60.3h-104.5l.4-1.8-5.4-5.4h-250.9l-10.7 10.7 3.5 3.6h367.6l3.6-3.6z"/><path d="m96.1 127h326.2l3.5-3.6-3.5-3.5h-326.2l-3.6 3.5z"/><path d="m411.9 77.2h161.1l3.6-3.6-3.6-3.6h-161.1l-3.6 3.6z"/><path d="m544.2 32h217.5l2.5-2.5-2.5-2.5h-217.5l-2.5 2.5z"/><path d="m632.9-23.5h190.4l5.4-5.4-5.4-5.3h-190.4l-5.4 5.3z"/><path d="m730.3 58.8h304.4c1.8 0 3.3-1.5 3.3-3.3 0-1.8-1.5-3.3-3.3-3.3h-304.4l-3.3 3.3z"/><path d="m913.2 95.5h-266.5l-2.1-2.1 2.1-2.2h266.5l2.1 2.2z"/></g><path d="m519.7 324s-.8.7-2.4 2c-1.5 1.3-4.1 3.4-7.5 5.9-6.7 4.9-16.7 12-30.9 18.5-7.1 3.2-15.2 6.4-24.4 8.7-9.2 2.4-19.4 3.9-30.4 4s-22.8-1.4-34.6-5c-11.8-3.7-23.7-9.5-34.4-17.9s-20.3-19.3-27.2-32.2c-7-12.9-11.4-27.7-12.5-43.2-.1-1.9-.3-3.9-.3-5.8v-2.9l.1-2.9c0-.9.1-2 .1-2.9 0-1 .1-2 .2-3 .1-2 .4-3.9.6-5.9 1-7.9 2.9-15.8 5.6-23.4 2.8-7.7 6.5-15.1 11-22s9.9-13.4 15.9-19.3c12-11.7 26.4-21.1 41.9-28.1 15.5-7.1 32.1-11.9 49.2-14.5 8.5-1.3 17.2-2.1 25.8-2.4 8.4-.2 16.7-.7 24.9-1.8 4.1-.6 8.1-1.3 12-2.3 3.8-1.1 7.6-2.4 10.6-4.3 1.5-1 2.8-2.1 3.7-3.3s1.5-2.6 1.8-4.1c.6-3.1-.3-6.9-1.6-10.6-2.7-7.6-7.1-15-10.4-23.3-.4-1-.8-2.1-1.2-3.2-.1-.4-.4-1-.5-1.4-.1-.3-.3-.8-.5-1.2-.8-1.6-1.9-3.1-3.1-4.5-2.5-2.8-5.8-5.2-9.2-7.3-7-4.2-14.8-7.2-22.7-9.9s-16-5-24.1-7.3-16.2-4.6-24.2-7.2c-4-1.3-8-2.7-11.9-4.4-3.9-1.6-7.8-3.5-11.5-5.8-1.8-1.2-3.6-2.5-5.3-4.1-1.6-1.6-3.2-3.4-4.3-5.6s-1.7-4.7-1.6-7.2c0-2.5.7-4.8 1.5-6.9.9-2.1 2-4 3.3-5.8.3-.4.7-.9 1.1-1.4s.8-.8 1.2-1.3c.4-.4.8-.8 1.3-1.1l1.3-1c3.6-2.7 7.6-4.3 11.6-5.6 8-2.5 16.2-3.3 24.2-3.7 8-.3 15.9 0 23.7.7 15.5 1.3 30.5 4 44.9 7.4s28.2 7.7 41.2 12.5c3.3 1.2 6.5 2.5 9.6 3.7s6.3 2.2 9.4 3c3.2.8 6.4 1.4 9.5 1.6 3.2.3 6.3.2 9.2-.4 1.4-.3 2.8-.8 4-1.6 1.2-.7 2-1.7 2.4-2.9s.3-2.5-.2-3.9c-.4-1.3-1.1-2.6-2-3.8-1.7-2.4-3.8-4.5-6-6.5-2.2-1.9-4.6-3.7-7-5.3s-4.8-3.2-7.3-4.6c-2.4-1.4-4.9-2.8-7.3-4.2-2.4-1.5-4.7-2.9-6.8-4.7-.5-.4-1.1-.9-1.5-1.4-.5-.5-1-1.1-1.3-1.9-.1-.4-.2-1 .1-1.5s.7-.7 1-.9c.7-.3 1.4-.5 2.1-.5 2.7-.3 5.3-.1 7.8.1s5 .5 7.4.9c4.8.7 9.5 1.4 13.9 2.1 4.5.7 8.7 1.3 12.8 1.8s8 .9 11.7.8c.9-.1 1.8-.1 2.7-.4.4-.1.8-.3 1.1-.6s.3-.6.2-1c-.2-.8-.8-1.4-1.4-2s-1.1-1.3-1.7-1.9c-2.2-2.5-4.1-5-5.8-7.4-1.6-2.4-2.9-4.8-3.7-7.2-.8-2.3-1.1-4.7-.7-6.7.3-2 1.1-3.6 2-4.9s1.8-2.2 2.6-2.9 1.4-1.2 1.8-1.5.6-.5.6-.5-.2.2-.6.5-1 .8-1.8 1.5-1.6 1.6-2.5 2.9c-.8 1.3-1.6 2.9-1.9 4.9s0 4.2.8 6.5 2.1 4.7 3.8 7c1.6 2.4 3.6 4.8 5.8 7.3.6.6 1.1 1.2 1.7 1.9.6.6 1.2 1.3 1.5 2.3.2.5 0 1.1-.4 1.5s-.8.6-1.3.7c-.9.3-1.9.4-2.8.4-3.8.2-7.7-.2-11.9-.7-4.1-.5-8.4-1.1-12.9-1.7s-9.1-1.3-13.9-1.9c-2.4-.3-4.9-.6-7.4-.8s-5.1-.4-7.6-.1c-.6.1-1.2.2-1.7.4-.2.1-.4.3-.4.4-.1.1-.1.2 0 .5.2.4.6.9 1 1.4.4.4.9.9 1.4 1.3 2.1 1.6 4.4 3.1 6.7 4.5 2.4 1.4 4.8 2.7 7.3 4.1s5 2.9 7.5 4.5 4.9 3.4 7.3 5.3c2.3 2 4.6 4.1 6.5 6.7 1 1.3 1.8 2.7 2.4 4.3s.9 3.5.3 5.3c-.3.9-.7 1.8-1.3 2.5s-1.3 1.4-2 1.9c-1.5 1-3.2 1.6-4.8 2.1-3.3.8-6.7.9-10.1.8-3.4-.2-6.7-.7-10.1-1.5-3.3-.7-6.6-1.7-9.9-2.8s-6.4-2.4-9.7-3.6c-12.9-4.7-26.6-8.8-40.8-12.1s-29.1-5.8-44.4-7c-7.6-.6-15.4-.8-23.1-.5-7.7.4-15.5 1.3-22.9 3.6-3.6 1.2-7.1 2.7-10 4.9l-1.1.9c-.3.3-.7.6-1 .9s-.6.6-.9 1c-.3.3-.5.6-.8 1-1 1.5-2 3.2-2.6 4.8-.7 1.7-1.1 3.4-1.1 5s.4 3.2 1.1 4.7c1.5 3 4.5 5.5 7.8 7.5 3.3 2.1 6.9 3.7 10.7 5.2s7.6 2.8 11.6 4.1c7.9 2.5 16 4.6 24.1 6.8s16.3 4.5 24.5 7.1c8.1 2.7 16.3 5.7 24.1 10.2 3.9 2.3 7.6 4.9 10.9 8.4 1.6 1.7 3.1 3.7 4.2 5.9.3.6.6 1.1.8 1.7.3.7.4 1 .6 1.6.3.9.7 1.9 1.1 2.8 1.6 3.8 3.5 7.5 5.5 11.3 1.9 3.8 4 7.7 5.6 12 .8 2.1 1.5 4.4 2 6.8s.7 5 .3 7.7-1.5 5.4-3.1 7.6c-1.6 2.3-3.6 4-5.7 5.4-4.1 2.8-8.5 4.4-12.9 5.7-4.3 1.3-8.7 2.2-13 2.9-8.7 1.4-17.3 2.1-25.9 2.6-8.4.3-16.5 1.1-24.6 2.5-16.2 2.7-32 7.4-46.5 14.1s-27.8 15.6-38.7 26.4-19.2 23.7-24 37.4c-2.4 6.9-4 14-4.9 21.1-.2 1.8-.4 3.6-.5 5.3-.1.9-.1 1.8-.1 2.6 0 .9-.1 1.7-.1 2.7v2.7l.1 2.6c0 1.8.2 3.5.3 5.2 1.1 13.9 5.1 27.1 11.4 38.5 6.2 11.4 14.8 21 24.3 28.4 9.6 7.4 20.1 12.5 30.7 15.7s21.1 4.4 30.9 4.2c9.9-.1 19.1-1.6 27.4-3.8 8.3-2.1 15.7-5.1 22.2-8.1 13-6.1 22.3-12.7 28.5-17.3 3.1-2.3 5.3-4.1 6.9-5.5 1.6-1.3 2.4-2 2.4-2z" fill="url(#F)" opacity=".25"/><g clip-path="url(#G)"><path d="m718.3 430.1c12-5.4 28.5-20.1 28.5-20.1 9.3 7.4 17.5 20.1 17.5 20.1 31.5-21.2 55.9-43.5 55.9-43.5-23.8-46.1-34.5-45.4-51.5-46.4-29.3-1.7-104.5 55.8-104.5 55.8s42.1 39.4 54.1 34.1z" fill="url(#H)"/><path d="m767.4 435.5 18.5 22.7 20.7 3 29.2-5.7 25.2-12.6 15.2-12.5 4.4-18.2-13.5-18.4-23.5.6-16.1 1.4-10.4-19.3-15.2 14-19.8 16.1-26.1 14.5z" fill="url(#J)"/><path d="m802.6 423.3 5.4-12.9 6.5-9.5 10.6-8.7 9.7 1.1 1.5 1.9-3.8.4-13.4 11-5.8 8-5.2 11.3z" fill="url(#K)"/><path d="m842.8 432.4 3.7 5.6 5.1 4.3 1.7 1.9 12.4-3.7 14.2-13.1 7-13.4-4-11-8.4-7.5-14.3-2.2-2.1 2.1-2.4 8.7-12 12.1-5.4 4.9z" fill="url(#L)"/><path clip-path="url(#O)" d="m842.4 416.1 11 6.4 9.7 9.4 5.5 7.3 1.7-2.1-4.7-7.3-9.3-9-11.8-7.5z" fill="url(#Q)"/><path clip-path="url(#O)" d="m849.5 405.6 12 6.1 11.3 8.1 7.3 8.2 2.3-2.4-8.8-9.1-10.3-7.5-11.8-6z" fill="url(#R)"/><path clip-path="url(#O)" d="m854.8 397.6 12.6 4.4 12.4 6.5 8.3 7.1 1.9-2.7-9.9-7.8-11.2-6-12.6-4.4z" fill="url(#S)"/><path d="m628.5 499.5c13-2 36.4-17 36.4-17 14.7-1.2 20.7 16 20.7 16 31.5-21.2 66.1-45.4 66.1-45.4-7.4-15.9-9.5-38.5-37.7-53.2-26-13.6-147 48.2-147 48.2s11.2 58.9 61.5 51.4z" fill="url(#T)"/><path d="m573.1 455.1-2.4 6 5.4 9.5 30.6-12.4 28.5-16.3 40.9-11.1 70.7-73.6-6.2-12.1-7-10.2-4.5-2.3-48.1 52.4-81.7 55.7z" fill="#293a42" opacity=".61"/><path d="m560.9 448.6-2.7 5 9.1 11.3 4.6-.7 33.7-11.6 83.9-57.4 44.4-48 4-13.4-7.2-10.4-4.8 5.4-47.2 51.6-80.5 54.8z" fill="url(#U)"/><path d="m543 438.9 21.1 15.7 38.2-12.3 79-52.9 22.7-21.7 15.5-20.7 7.7-13.6-4.6-9.1-47-31.6-129.1 76.1-18.9 31z" fill="url(#V)"/><path d="m669.6 370.4-27.1 18.9 1.6-2.4 24.7-17.5 17.5-15.4 7.1-10.1 2-.6-8.2 11.6z" fill="#111c21"/><path d="m669.6 384.8-40.8 26.6 1.1-2.3 38.9-25.3 25.8-22.6 15.8-23 2-.7-16.9 24.6z" fill="#111c21"/><path d="m488.2 389.8 9 17.7 15.6 15.6 19.6 13.6 20.6 15 35-13.8 33.7-12.1 8-17.3 30.6-46.8 13.1-10.6 26.9-9.6 14.4.1 8.9-1.9 6.8-6.5-7.6-28.6-25.6-57.6-19.6-17-11.6 2.4-36.5 25.9-7.2 43.7-118 69.3z" fill="url(#W)"/><path d="m669.8 274.2-4.5-12.5-7.2-12.7-6-5.7-.6-3.6 8 6.7 8.4 13.8 5.7 12.8z" fill="url(#Y)"/><path d="m661.9 276.7 3.7 10.6 8.3 21.3 22-10.8.9-10.7-4.4-15-6.1-7.3-20.2 6.5z" fill="url(#Z)"/><path d="m663.5 233.5 6.8 7.5 6.2 8.6 4.9 8.9 2.5 7.3 5.7 16.3-14.4 3.1-4.5-15.4-2.1-6.9-4-7.7-5.8-8.6-7.3-6.9z" fill="url(#aa)"/><path d="m665.2 256.3 12.1-5.4-.6-1.1-12.1 5.4z" fill="url(#ac)"/><path d="m659.1 247.3 12-5.3-.8-1-11.6 5.7z" fill="url(#ad)"/><path d="m669 263.8 12.9-4.4-.5-.9-12.8 4.4z" fill="url(#ae)"/><path d="m688.2 269.3-20.1 7 6.4 18 13 4.8 7.4-12.5z" fill="url(#af)"/><path d="m567.2 356.2.3 4.7 1.8 4.1 15.2 5.8 5.2 11.7 21.9 2.7 14.3-24.3-.7-3.5-15.4 21-15.1-.5-6.1-12.6z" fill="url(#ag)"/><path d="m485.1 388.7 4.7 12.2 7.4 6.6-7-17.4 14.2-18.4 12.1-7 11.8-4.7 15.2-3 14.1-.6 17.7 1.1 3-3.1 4.6-4.8-31.3-4.9-19.8 3.3-14.8 5.9-14.6 8.8-11.2 13.3z" fill="url(#ah)"/><path d="m567.2 356.2.3 4.7 19.8 6.8 4.5 12.5 18.8 2 14.6-24.8-4.6-5.1-13.3-6.2-20-6.1-6.3 1.7z" fill="url(#ai)"/><path d="m511.5 353.1 15-8.6 14.3-3.5 14-1.9 13.5 1.8 13.4 2.2 11.4 4.7-7.8 9.2-29.3-4.5-11.2-.8-15.6 3-16.2 6.1-12.1 7.7-15.8 20.2 9.4-19.2z" fill="url(#aj)"/><path d="m574 358.5 14.5-15.6 17.8 6.5 2.1 8.3-14 6.4z" fill="url(#ak)"/><g fill="#293a42"><path d="m502.3 367.6-1.4.9 10.8-15.5 1-.6z"/><path d="m514.3 360.3-1.3.5 13.5-16.3.9-.2z"/><path d="m530.4 354.5-1 .1 10.6-13.4 1.1-.2z"/><path d="m546.1 351.8-1.3-.1 10-12.6 1 .2z"/><path d="m557.5 352.9-1.5-.4 10.4-11.9 1.3.2z"/></g><path d="m667.5 235.4-1.5-3 14.1-3.9 12.2 1.4 16.1 8.1 21.6 23.3 10.6 15.9 3.4 19.7-4.1 17.9-11.5 22.7-22.3 15.1-28 8.4-31.5.6 5-27 1-18.6 18.3-21.5 10.2-6.3 13.8-5.7-4.9-12.5-6.4-8.9-7.1-11.5-8.4-11z" fill="url(#al)"/><path d="m656.2 311.6 33.5-10.7 3-16-2.5-2.6-36 26.9z" fill="url(#am)"/><path d="m660 294.3 30.2-12-2.9 16-33.1 10.9z" fill="url(#an)"/><path d="m718.8 332.3-12 .1 15.5-29.2 11.4.2zm-9.1-1.6h7.9l13.9-26.1-8.1-.1z" fill="#7b818e"/><path d="m666 232.4 18.4.3 8.6 3.4 3.1 1.2 5.3 3.8 16.9 12 8 4.2.8-1.8-14.5-14.5-17.8-10.6-17.5-3.6z" fill="url(#ao)"/><path d="m669.3 230.8h15.5l8.6 3.1 8.1 4.4 17.1 12.4 8.5 4.8-.8-2.6-13.2-11.8-15.9-10.4-11.3-3.7-8.6-.2z" fill="url(#ap)"/><path d="m744 296.9-6.4 15.6-11.6 21.8-20.6 14.5-26.4 9.8-7.7 2.5 7-.1 27.9-8.4 22.3-15.2s11.6-22.8 11.6-23.2c.1-.4 3.9-17.3 3.9-17.3z" fill="url(#aq)"/><path d="m663.4 215.2 1.2 14.4 2.9 5.8 1.3 6.8-.5 5.5 3 6-3.7 13.1-15.5 11.5-19.7 23.1-7 10.6-47.5 27.4-30.2 6.6-26.6 7-17.9 10.4-12 13.5-4.6 8.6-.3-11.8-12.4-8.7 2.4-6.4-4.2-13.6 7 5.9 32.8-15.3 109.5-81.9 21.6-22z" fill="url(#ar)"/><path d="m659.7 222.3 1.8 10.1 7.3 9.8-1.3-6.8-2.9-5.8-1.2-14.4z" fill="url(#at)" opacity=".55"/><path d="m628.4 260.2-10.6 12.6-20 20.5-14.8 11.3-14.3 7.1-6.4 1.4 9.6-6.7 8-3.3 18-14.8 17.2-15.5z" fill="url(#av)"/><path d="m542.4 330.5 26.5-17.8 23.1-8.3 12.4-1.1-8.7 6.8-19.8 9.1-9.2 7.7-30.9 20.8-16.6 5.1z" fill="url(#aw)"/><path d="m569.5 341.2 16.5-11.4 12.3-11.2 16.2-10.1 25.9-30.8-7.1 13.8-12.7 19.3-42.7 28.6z" fill="url(#ax)"/><path d="m658 231.8-14.9 27.3-6.2 14.6 10.9-16.3 5.4-9.9z" fill="url(#ay)"/><path d="m537.6 39.8-63.2 32.7-54.8 77.1-15.6 73 46.6 45 51.9-12.1 43.5 24.8 22.6-15.5 45.9-37.8 29.5-33.6 1-1.2c1.9-28.2-10.5-70.5-36.3-101.9-13.9-16.8-26.1-29-43.2-37.9z" fill="#f0efef" opacity=".17"/><path d="m577.9 147.7 4.2 5.2 8.7-10.4-4.1-5.6z" fill="url(#aA)"/><path d="m476.1 4.5c-4.1-4.6-.8-7.3 6.1-5 7.6 2.5 18 8.4 22.6 12.2 17.6 14.4 22.9 34.5 15.2 60.5v.1.2c-.5 1.7-9.9.4-21-2.9s-19.7-7.4-19.2-9.1c0-.1.1-.2.2-.3 5.5-18.8 9.5-40.8-3.9-55.7z" fill="url(#aB)"/><path d="m466.8 364.8 6.3 7.6c5.1 6.2 52.4-24.3 105.5-68.1 53.2-43.8 92.1-84.4 87-90.6l-6.3-7.6z" fill="url(#aC)"/><path d="m659.4 206c5.1 6.2-33.8 46.8-87 90.6s-100.5 74.4-105.6 68.2 33.8-46.8 87-90.6 100.4-74.4 105.6-68.2z" fill="url(#aD)"/><path d="m645.1 192.1-22.7-34.6-43.9 1.3-19.5-26.7-3.3-4.1 8.1-34.9 1.7-23.7-2.6-16.7-.9-3.4-7.2-5.4-28.6-7.4-62-2.2-67.2 31.5-30.4 60.9-18.9 95.6 48.4 55.4 76.3 35.8 69.4-10.1 51.9-35.7z" fill="url(#aE)"/><path d="m461.6 347.5 9.2 11.2c3.9 4.8 47.5-24.6 97.3-65.7s87-78.2 83-83l-9.2-11.2-13.7 15.2-13.8 14.1z" fill="url(#aF)"/><path d="m499.2 302.1c-25.7 24.2-40.9 41.5-38.3 44.6s22.3-8.5 50.9-29.1z" fill="#283e45"/><path d="m617.1 233.3-69.2 50-18.9-10.9-28.8-16.7-25.6 5.8-27.1 9-13.7 49.6 16 5.1s21.7 2.6 29.3 3.1l14.2-6.6 12.1-5.8 5.5 2.1c-33.6 24.5-48.2 30.8-50.1 28.5l9.9 12c3.9 4.8 48.4-23.6 98.1-64.6s87.3-77.7 83.4-82.5l-10.5-12.7c.5.6-24.7 34-24.6 34.6z" fill="url(#aG)"/><path d="m390.1 220.3 59.5-148.1 44.6-38.9c-29.3-15.3-73.2-1.9-109.2 30.6-60.8 54.9-68.7 151.6-16.6 214.8 10.5 12.8 21.7-58.4 21.7-58.4z" fill="url(#aH)"/><path d="m290 151.7c-3.6-4.2-7.1-2.3-6.4 5.3.8 8.9 5.1 20.3 8.1 26 11.4 21.2 31.2 30.8 59.7 28l1.4-.1c1.9-.2 3.9-10.7 2.7-22.9s-5.2-21.2-7.1-21.1c-.1 0-1.2 0-1.4 0-20.5 2-43.2 1-57-15.2z" fill="url(#aI)"/><path d="m440.3 322.4s19.6 17.2 21.8 19.1 2.1 1.8 3.9 1.3c2.1-.6 6.6-3 11-5.7 8.7-5.2 29.7-19.5 29.7-19.5l-1.2-1.5s-21 9-32.3 10.1c-15.9 1.6-32.9-3.8-32.9-3.8z" fill="url(#aJ)"/><path d="m512.7 86.7 8.5-12.5 17.8-6.9-4 16.5 15-8.1 12.3 2.3-6.8 13.3-.1 7.9s19.4 36 32.6 53.5 46.3 54.6 46.3 54.6l-18.1 19.9-45.2 36.6-23 14.6-46.5-29.6-21 5s-32.3-29.7-35.5-34.3-7.4-22.4-7.7-24.9c-.3-3 3.7-18.5 3.7-18.5s9.3-26.1 13.7-33.9 9-12.4 9-12.4l34-48.4z" fill="url(#aK)"/><path d="m484.3 257.5s-36.5-33.3-39.3-38-7.4-21.4-7.7-24.9 3.7-18.5 3.7-18.5 9.8-26.7 13.7-33.9c4-7.2 20.5-28 20.5-28l27.2-24.1 10.4-3.3s7.2-8 10.8-10.9 15.4-8.4 15.4-8.4l-4 16.5 15-8.1 12.3 2.3-6.8 13.3-.1 7.9 4.8 8.6 3.4-14.7 1.7-23.8-2.6-16.7-.6-2.2-18.1-10.2-32.1 6.5-27.7 18.2-15.2 13.4-13 12.3-17.2 25.5-45.8 81.7 13.3 21.6 47.6 46.8z" fill="url(#aL)"/><path d="m584.4 227.6 5 .1-1.2-9.8.6.2 3.7 12.5-5.3.9-1.4 7.9-11.3 3.1.1 4.6-18.3-5.2 12.6.5 1-3.9 12.3-2.8z" fill="#929497" opacity=".9"/><path d="m406.2 51.1 25.8-12.1 19.3-3.1 34.8 4.5 8.1-7.1c-29.3-15.3-73.2-1.9-109.2 30.6-.9.9-1.9 1.7-2.8 2.6z" fill="url(#aM)"/><path d="m576.1 174.5c2.5-2.1 5.2-3.5 7.6-4.2.1-.1.2-.1.3-.2.8-4.1-.7-9.5-4.4-14-5.5-6.8-13.6-9.3-18.2-5.6s-3.9 12.2 1.6 19c3.1 3.9 7.1 6.3 10.8 7 .7-.6 1.5-1.3 2.3-2z" fill="#fff"/><g clip-path="url(#aN)" opacity=".8"><path d="m580.9 164.6c3.3 4.1 4 9.1 1.5 11.2-2.5 2-7.3.3-10.6-3.8s-4-9.1-1.5-11.2 7.2-.4 10.6 3.8z" fill="url(#aO)"/><ellipse cx="570.2" cy="164.2" fill="#fff" rx="3.7" ry="2.2" transform="matrix(-.6284 -.7779 .7779 -.6284 800.8473 710.9186)"/></g><path d="m528.3 215.6c1.4-1.2 2.9-2.2 4.4-3.1 0-4.5-1.9-9.6-5.4-14-6.8-8.4-17.1-11.2-23.2-6.3s-5.5 15.6 1.3 24c4.1 5.1 9.7 8.2 14.7 8.6 1.7-3 4.6-6.3 8.2-9.2z" fill="#fff"/><g clip-path="url(#aP)" opacity=".9"><path d="m529.1 208c3.9 4.8 4.4 10.9 1.1 13.5s-9.1.9-13-3.9-4.4-10.9-1.1-13.5c3.3-2.7 9.1-.9 13 3.9z" fill="url(#aQ)"/><ellipse cx="515.4" cy="208.7" fill="#fff" rx="4.2" ry="2.8" transform="matrix(-.6284 -.7779 .7779 -.6284 676.9242 740.7784)"/></g><path d="m495.7 178.8c4.8-2.9 9.8-4.3 14.5-4.4-5.2-3.5-12-4.1-17.6-.7-5.6 3.3-8.3 9.6-7.6 15.8 2.3-4 5.9-7.8 10.7-10.7z" fill="#929497"/><path d="m553.6 140.6c2.7-3.7 6.3-6.3 10.1-7.6-5.8-1.6-11.7-.2-14.9 4.1s-2.8 10.3.5 15.4c.2-4 1.6-8.2 4.3-11.9z" fill="url(#aR)"/><path d="m579.2 211.7c.4-.7-9.5 7.7-27.9 17.6 0 0-.9-1.4-2.2-2.7-.8-.8-1.7-1.5-2.7-1.9 0 0 2.9 6.5 2.3 8.6 0 0 5.4.6 14.3-4.4 0 0-5.8 1.5-8.6 1.6 0 .1 20.1-11 24.8-18.8z" fill="#4f4e51" opacity=".6"/><path d="m624.4 216.7 4.2-4.7 4.9-5.8s-11.9-13.2-26-29.8c.8 1.4 1.7 2.8 2.5 4.1 8.5 14.8 14.5 28 14.4 36.2z" fill="#231f20" opacity=".21"/><path d="m513.7 249.1-20.8-11.1-20.2-16.3-16.1-16.4-6.3-18.4-1-11.6 3.5-14.8 4.2-13.7 6.7-17.3s-1.4 1.5-3.1 3.7c-1 1.3-2.1 3-3 4.3-2.9 4-4.8 8.2-4.8 8.2l-3.7 8.6-8.3 21.6s-4.1 16.1-3.7 18.5 4 19.3 7.7 24.9c3.6 5.6 35.5 34.3 35.5 34.3l21-5 45.6 29 15.2-9 11.7-8.7-24.3 3.6z" fill="url(#aS)"/><path d="m497.8 107.8 14.8-2.8 22.9-.5-10.6-11.3-9.8-7.8-4.6-1.1-16.2 22.5-1.5 3z" fill="#231f20" opacity=".21"/><path d="m498.2 106.2s9-4.4 14.7-5.4 19.2 0 19.2 0-10.3-11.2-13-13c-3.3-2-8.4-5.6-15.3-6.8-2.5-.4-11.4-1.1-11.4-1.1s-13.3 15-16.2 18c-4.6 4.9-12.4 31.8-12.4 31.8" fill="url(#aT)"/><g opacity=".8"><path d="m561.9 160.7c3.4-3.7 9.7-8.7 9.7-8.7s7.8-4.6 12.2-5.1l-3.7-5.5-2.9 1.4-7.8 4.4s-8.1 6.1-11.9 9.8c-3.8 3.8-10.2 13.6-10.2 13.6s-3.8 1.5-6.4 3.6-5 4.7-5 4.7-12.5-1.4-36 21c-9.1 8.6-23.4 24.9-23.4 24.9l-12.1 14.5 5.4 4.8 16.2-18.8 2.2-2 5 4.6s12.6 9.5 15.3 11.2 8.2.4 12.6-2.5c4.3-2.8 12.2-8.8 12.2-8.8l13.6-14.6s2.6-3.4 2.8-6.9c.1-3.6-1.8-8-1.8-8l-6.9-12.3s1.8-4.6 4.4-6.7c.6-.5 1.1-.8 1.7-1l6.5-2.8 1.3-4c.3-1.7 1.5-3.5 1.5-3.5s2.1-3.6 5.5-7.3zm-21.6 35.9c2 3.2 4.3 7.7 3.4 10.7s-14.3 16.4-14.3 16.4l-12 8.5s-4.1 2-6.3.5c-1.5-1-14.6-10.2-16.3-12.4-1.8-2.2-.4-4.9-.4-4.9s4.8-7.7 12.4-14.2 20.3-12.6 20.3-12.6 5.6-2.8 6.6-2.3c.9.7 4.6 7.1 6.6 10.3z" fill="url(#aV)" opacity=".39"/><path d="m594.5 160.9c0 .8-2.3 4.9-2.5 5.5-2 5.4-13.9 17.7-21 17.1-.1 0-5.9 0-6 0l8.2 5.6c2-1 7.5-4.2 7.5-4.2s5.1-3.4 7.5-5.6c1.9-1.7 8.8-10.3 10.6-13.3z" fill="url(#aW)" opacity=".39"/></g><path d="m583.9 135.3s-9 3.5-14.2 7.1-10 7.5-14.7 12.6c-3.6 4-7.5 11.8-7.5 11.8s-3.5.7-6.1 2.8-6.1 6.4-6.1 6.4-11.4-3.6-34.9 18.8c-5.5 5.2-8.6 9.8-12.9 14.8-2.8 3.3-5.9 7-10.9 12.4-4.1 4.4-13.5 15.9-13.5 15.9l5 4.7 19.1-22 2.2-2s2.5 2.1 5 4.6c4.1 4 10.4 7.7 13 9.6 4.9 3.6 11.5 1.4 14.9-.9s7.4-5 12.2-8.8 10.2-9.4 12.2-12.3 3-4.1 3.1-7.6c.1-3.6-2.5-7.8-2.5-7.8l-6.1-13.3s1.8-4.6 4.4-6.7 5.7-2 5.7-2 10.3 8.3 12.7 9.5c2.3 1.2 3.9 2.1 7.2 2.2s9.6-4 9.6-4 5.1-3.4 7.5-5.6 8.3-10 8.7-11.8c.5-2.6-.4-6.8-1.1-9s-5.2-11.7-5.2-11.7l-.3-4.2s-1-4.3-2.2-4.5c-1.2-.3-4.3 1-4.3 1zm-43.9 57.6c1.7 3.6 5 9.2 4.1 12.3-1.1 3.8-13.6 13.8-13.6 13.8l-10.7 7.6s-4.9 3.2-9.2.5c-1.6-1-10.3-7.4-14.5-12.2-1.9-2.1-.7-4.2-.7-4.2s4.8-7.7 12.4-14.2 15.9-11.1 18.2-12.2 6.6-2.3 7.7-1.8c1.7.9 4.7 6.9 6.3 10.4zm52.1-30.4c-2 5.4-13.9 17.7-21 17.1-4.6-.4-14.8-8.2-15.9-10s1.2-5.5 1.2-5.5 1.7-3.9 5.1-7.6 6.2-5.9 9.7-8.3c4-2.7 7.8-4.6 10.8-5.2 3.2-.7 3.6 1.1 5.1 3.9 2.1 4.1 6.4 11.8 5 15.6z" fill="url(#aX)"/><path d="m537.6 39.8-63.2 32.7-54.8 77.1-15.6 73 46.6 45 51.9-12.1 43.5 24.8 22.6-15.5 45.9-37.8 29.5-33.6 1-1.2c1.9-28.2-10.5-70.5-36.3-101.9-13.9-16.8-26.1-29-43.2-37.9z" fill="#f0efef" opacity=".17"/><path d="m450.6 260.9 50.9-12.1 45.6 29s15.5-9.7 26.9-17.7 30.8-24.6 41.1-34c10.3-9.3 29.9-34.1 29.9-34.1l1.8 13.1s-14.5 19.6-25.6 30.1-30.3 27.2-45.5 38.2c-15.3 11-29.9 21.2-29.9 21.2l-49.3-33.2-55.3 13.6z" fill="url(#aY)"/><path d="m363.4 219.5c-2 1.8-7.3 6.7-7.3 6.7l.4 10.9c-.9 15.8 8.1 36.4 25.1 53.8 16.1 16.5 35.4 25.8 50.9 26.2l5.6 1.2s12.4-7.3 14.4-9.2c14.6-14.3 6.6-45-16.6-71.2-23.5-26.3-57-31.8-72.5-18.4z" fill="url(#a0)"/><path d="m423 247.2c23.9 24.4 32.3 55 18.7 68.2-13.6 13.3-43.9 4.3-67.8-20.1s-32.3-55-18.7-68.2c13.5-13.3 43.9-4.3 67.8 20.1z" fill="url(#a1)"/><path d="m374.4 256.3 4.6 4.7c-5.8 5.7-3.2 17.9 6 27.3s21.3 12.3 27.1 6.5l4.6 4.7c7.5-7.3 4-22.9-7.6-34.9-11.7-11.9-27.2-15.6-34.7-8.3z" fill="url(#a2)"/><path d="m435.6 40.7c-63.1 41.5-78.6 116-59.8 173.5 8-2.4 25.7 9.2 25.7 9.2l4.9-3.7s1.3-1.2 1.3-1.3c3.8-53.2 27.1-104.9 81.2-149.4 12.5-10.3 34-23.1 54.5-26.5h.1l8.2 3.4 8.3 3.5 2.3 1.1s-.8-8-6.3-11.6c-28.3-16.6-79.3-25.2-120.4 1.8z" fill="url(#a3)"/><path d="m432.9 37.5c-63.1 41.5-80.6 122.2-61.8 179.8 10-1.4 19.4 1.3 30.4 6.3 2.7-55.1 27.4-111.4 83.2-157.4 9-7.4 23.5-16.4 38.6-22 6.5-2.4 13.2-4.3 19.5-5.1 5.4-.7 14.2.3 17.3 5.1-1.9-6.6-10-9.2-14.6-11.1-30-13.1-76.9-19-112.6 4.4z" fill="url(#a4)"/><path d="m545.8 32.9c-30-13.1-76.3-19.5-111.3 3.3-1.8 1.2-3.6 2.4-5.3 3.6 0 0 34.3-13 62.3-11.4 27.7 1.6 46.1 11.3 46.1 11.3 1.9-.4 3.7-.7 5.5-.9 5.3-.6 14 .5 17.2 5.2-2-6.5-10-9.1-14.5-11.1z" fill="url(#a5)"/><path d="m561.4 50.2-17.8-7.6-4.7.9-5.9 1.5 22.3 10.2c17.3 9 32.2 21.7 46.3 38.7 26.2 31.7 38.7 74.6 36.8 103.2l-.1 3.4 5.4-6.6 1.4-1.9c2-28.6-11.3-71.4-37.4-103.2-14.1-16.9-29-29.6-46.3-38.6z" fill="#fff" opacity=".45"/><path d="m612.6 425.3c-1.2.4-1.9 1.8-1.4 3.2l1.5 4.4c1.1 3.2 6.1 4.6 12.1 2.6l43-11.6 36.2-30.5-4.4-12.9-34.6 29.9z" fill="url(#a7)"/><path d="m665.9 379.9-54.2 46 56.4-14.8s41.6-33.1 41.3-33.4c-.3-.4-43.5 2.2-43.5 2.2z" fill="url(#a8)"/><path d="m507.2 422.5 15.6 9.3 29.9 7.6 28.3 2.6 27.5-9.2 42.1-21.4s8.5-9.8 8.9-10.3l10.9-14.6-23-32.5-42 5.1-15.5 7.2-14.7-5.3-23.5-5.6-34.2 7.7-21.4 19.3-2.8 22.8z" fill="url(#a9)"/><path d="m640.9 357.2-17.7-.6-8.1 10.6-3.8 19.1 9 19.9 13.2 14.9 18.2-10.2s12-8.6 12.4-9.1l6.1-16.6-11-30.2z" fill="url(#ba)"/><path d="m532.1 433.6-29.4-15.8-13-17.6 8.5-21.1 15.3-7.4 19 5.7 13.6 11.4 4.3 5.3 7.1 24.5-5.1 10z" fill="url(#bb)"/><path d="m512 428.8-9.5-7.7-12.8-20.9 2.2-12.4 6-8.6 12.9-6.3 20.3 7.2 16 15.9 5.8 22.7-3.8 7.7-17 7.2z" fill="url(#bc)"/><path d="m516.2 414.8c-9-5.8-14.2-13.8-10.8-20.4 1.5-2.8 4-4.1 6.9-4.2l3.1 4.5c-2.3.1-4.1.8-5.2 2.9-2 3.8 1.6 9.1 7.1 12.6.3.2.6.4.9.6-1.5-2.4-2.6-6.3-1.1-8.9 2.2-4.1 7.5-5.4 14.2-1.1 5.7 3.7 8.7 10.1 6 15.1-3.6 6.7-12.4 4.5-21.1-1.1zm13.1-9.8c-3.8-2.5-6.7-1.4-8 1-1 1.9-.6 4.7 1 7.3 3.5 2 8.2 3.2 10-.3 1.6-3-.5-6.4-3-8z" fill="url(#bd)"/><path d="m743.4 172.3 2.5 3.5 70 106.8 2.5 3.5c2.7 3.5 2.3 9-1 11.8l-147.2 124.9c-3.3 2.8-8.3 1.7-10.7-1.8l-2.5-3.5-73.4-103.9-2.5-3.5c-2.7-3.5-2.3-9 1-11.8l150.6-127.8c3.2-2.8 8.1-1.9 10.7 1.8z" fill="url(#be)"/><path d="m715.3 306c-6 5.1-17 3.4-21.5-3s-3.5-15.8 2.5-20.9 17-4.1 21.6 2.3c4.5 6.3 3.4 16.5-2.6 21.6z" fill="#a7a9ac"/><path d="m715.5 305.8c-6 5.1-14.6 3.9-19.1-2.5s-3.5-15.8 2.5-20.9 14.6-3.9 19.1 2.5 3.5 15.9-2.5 20.9z" fill="url(#bf)"/><path d="m586.3 309.5c-1.9-2.7-3.1-6.4-.6-8.6 2.6-2.3 111.6-94.4 155-131-2.6-1.5-5.7-1.4-8.1.6l-150.5 127.8c-3.3 2.8-3.7 8.2-1 11.8l2.5 3.5 73.4 103.8 2.5 3.5c1.7 2.4 4.6 3.7 7.3 3.3-12.4-17.6-78.8-112.3-80.5-114.7z" fill="url(#bg)"/><path d="m688.3 508.8 16.8 27.7 23.8 8.9 32.9-1.9 26.5-9.9 18.5-11.5 7.6-19.3-12.1-22.2-24.2-5.5-17.9-.8-10.1-26.5-17.1 16.7-24.3 14.8-29.5 11.3z" fill="url(#bh)"/><path d="m728.8 500.6 7.8-13.3 8.6-9.5 13-7.9 10.4 2.6 1.4 2.3-4.2-.1-16.4 10.1-7.6 7.9-7.3 11.6z" fill="url(#bi)"/><path d="m769.9 519.3 3.2 6.7 4.9 5.5 1.7 2.3 14.2-2.1 17.4-12.3 9.8-13.7-2.7-12.7-8.2-9.5-15.3-4.5-2.7 2-3.9 9.2-15 11.4-6.6 4.6z" fill="url(#bj)"/><path clip-path="url(#bk)" d="m788.9 483.1 13.1 7 12.4 9.3 7.8 9.2 2.6-2.7-9.5-10.2-11.2-8.6-13-6.9z" fill="url(#bl)"/></g></svg>